<?xml version="1.0" encoding="UTF-8" standalone="no"?>
<svg width="30px" height="25px" viewBox="0 0 30 25" version="1.1" xmlns="http://www.w3.org/2000/svg" xmlns:xlink="http://www.w3.org/1999/xlink">
    <!-- Generator: Sketch 41 (35326) - http://www.bohemiancoding.com/sketch -->
    <title>Icon_AuctionPage_ProgrammeGuide</title>
    <desc>Created with Sketch.</desc>
    <defs></defs>
    <g id="Ibiza-Visual-Design-Home-Page" stroke="none" stroke-width="1" fill="none" fill-rule="evenodd">
        <g id="07a1-Auction-Page-Description-1366px" transform="translate(-1047.000000, -1544.000000)" fill="#00BCB4">
            <g id="Todays-products" transform="translate(65.000000, 1522.000000)">
                <g id="Programme-Guide" transform="translate(892.000000, 0.000000)">
                    <g id="Header" transform="translate(90.000000, 18.000000)">
                        <path d="M16.4318334,24.9179667 C16.7572637,25.2146046 16.9155439,25.5829012 16.9155439,26.0439154 C16.9155439,26.5217768 16.7542672,26.9007198 16.4226039,27.2025639 C16.0533634,27.5384532 15.529019,27.7395071 15.0010188,27.8590163 C14.4728389,27.7395656 13.9483147,27.5385702 13.5790142,27.2025639 C13.247351,26.9007198 13.0860742,26.5217768 13.0860742,26.0439154 C13.0860742,25.5829012 13.2443544,25.2146046 13.5697847,24.9179667 C13.9263197,24.5928994 14.4516829,24.3861128 15.0010788,24.2570686 C15.5502949,24.3862298 16.0754783,24.5930749 16.4318334,24.9179667 M29.5023853,4 L0.497674642,4 C0.222826869,4 0,4.21749154 0,4.48575841 L0.000119863835,8.1398221 C0.00773121734,8.47740781 0.23631155,8.69039509 0.51014048,8.68407743 C0.784988253,8.67822773 1.00284077,8.45605644 0.996727717,8.18778957 L0.995289351,4.97145832 L29.0047706,4.97145832 L29.0047706,23.1022224 L17.2472072,23.1022224 C17.0858705,23.0923949 16.0805725,23.0440765 15.000899,23.2608075 C13.9211056,23.044018 12.9156878,23.0925119 12.754411,23.1022224 L0.996847581,23.1022224 L0.996847581,12.3495528 C0.996847581,12.081286 0.774080644,11.8638529 0.499232871,11.8638529 C0.224385099,11.8638529 0.00155822985,12.081286 0.00155822985,12.3495528 L0.00155822985,23.5879223 C0.00155822985,23.8561892 0.224385099,24.0736807 0.499232871,24.0736807 L12.7705327,24.0736807 C12.8781105,24.067597 12.9664501,24.0639702 13.0656974,24.0622153 C13.0060052,24.1083694 12.9475716,24.1558689 12.8920147,24.2064687 C12.3603586,24.6902967 12.0907849,25.3085507 12.0907849,26.0439154 C12.0907849,26.7963613 12.3638347,27.4258466 12.9022031,27.9148809 C12.9433164,27.9522019 12.9875461,27.9860131 13.030817,28.0208188 C12.9782567,28.0177769 6.1512322,28.017426 6.1512322,28.017426 C5.87638443,28.017426 5.65355756,28.234859 5.65355756,28.5031259 C5.65355756,28.7713927 5.87638443,28.9888258 6.1512322,28.9888258 L12.9378027,28.9888258 C12.9925804,28.9922771 13.1422304,29.0001157 13.3570863,28.9999987 C13.748202,28.9999987 14.3559117,28.9729146 15.0005993,28.8479652 C15.6455267,28.9729731 16.2533562,29.0000572 16.6445318,28.9999987 C16.8592679,28.9999987 17.0090377,28.9922771 17.0638155,28.9888258 L23.8502661,28.9888258 C24.1251139,28.9888258 24.3478808,28.7713927 24.3478808,28.5031259 C24.3478808,28.234859 24.1251139,28.017426 23.8502661,28.017426 L17.0472144,28.017426 C17.0141319,27.9859546 17.0583018,27.9522019 17.0994151,27.9148809 C17.6377835,27.4258466 17.9108333,26.7963613 17.9108333,26.0439154 C17.9108333,25.3085507 17.6412595,24.6902967 17.1096035,24.2064687 C17.0541065,24.1559274 16.9957328,24.1084864 16.9361006,24.0623908 C17.035168,24.0641457 17.1233279,24.0676555 17.1963849,24.0725108 C17.2078918,24.0733297 29.5023853,24.0736807 29.5023853,24.0736807 C29.7772331,24.0736807 30,23.8561892 30,23.5879223 L30,4.48575841 C30,4.21749154 29.7772331,5 29.5023853,5 L29.5023853,4 Z M8,9.00879864 L9,9.00879864 L9,10.0105584 L8,10.0105584 L8,9.00879864 Z M8,12.0087986 L9,12.0087986 L9,13.0105584 L8,13.0105584 L8,12.0087986 Z M8,15.0087986 L9,15.0087986 L9,16.0105584 L8,16.0105584 L8,15.0087986 Z M8,18.0087986 L9,18.0087986 L9,19.0105584 L8,19.0105584 L8,18.0087986 Z M10,9.00879864 L22,9.00879864 L22,10.0087986 L10,10.0087986 L10,9.00879864 Z M10,12.0087986 L22,12.0087986 L22,13.0087986 L10,13.0087986 L10,12.0087986 Z M10,15.0087986 L22,15.0087986 L22,16.0087986 L10,16.0087986 L10,15.0087986 Z M10,18.0087986 L22,18.0087986 L22,19.0087986 L10,19.0087986 L10,18.0087986 Z" id="Icon_AuctionPage_ProgrammeGuide"></path>
                    </g>
                </g>
            </g>
        </g>
    </g>
</svg>