<?xml version="1.0" encoding="UTF-8" standalone="no"?>
<svg width="40px" height="35px" viewBox="0 0 40 35" version="1.1" xmlns="http://www.w3.org/2000/svg" xmlns:xlink="http://www.w3.org/1999/xlink">
    <!-- Generator: Sketch 41 (35326) - http://www.bohemiancoding.com/sketch -->
    <title>Icon_Phone_Black</title>
    <desc>Created with Sketch.</desc>
    <defs></defs>
    <g id="--Symbols" stroke="none" stroke-width="1" fill="none" fill-rule="evenodd">
        <g id="Header-360px" transform="translate(-73.000000, -55.000000)" fill="#192332">
            <g id="Header">
                <path d="M103.981502,87.1917816 C103.063115,87.8093298 102.056351,88.2455345 100.989373,88.4882594 C100.726343,88.5480071 100.462224,88.5967077 100.182546,88.6483645 C100.075654,88.6679692 99.9688392,88.6876517 99.8621025,88.7080344 L98.5307718,88.7080344 C98.3851369,88.68065 98.2384128,88.6567665 98.0917665,88.6330386 C97.7547523,88.5784255 97.4365648,88.5267686 97.1497293,88.4324016 C95.7591955,87.9750362 94.2456656,87.4513883 92.5227077,86.8314284 C91.3556053,86.4117166 90.2000169,85.8427134 89.0879167,85.1404448 C87.7486508,84.2944862 86.6892965,83.5162106 85.7541054,82.6910236 L85.5588363,82.5187045 C84.6977074,81.7591 83.8071715,80.9738226 82.9826847,80.1617833 C81.4650316,78.6671579 80.1929819,77.2117419 79.0937958,75.7120598 C78.2852574,74.6089061 77.4542357,73.4025944 76.8545807,72.057805 C76.4147973,71.0715794 75.9734581,69.975583 75.4656807,68.6089328 C75.0985592,67.6206845 74.7921968,66.6118202 74.5663537,65.8432691 C74.4786771,65.5446863 74.4242196,65.226421 74.3665724,64.8894846 C74.3425333,64.7491398 74.3184942,64.6087172 74.2920434,64.4690726 L74.2920434,63.2039467 C74.3090808,63.1546238 74.3253403,63.0938647 74.3331199,63.0228366 C74.5006157,61.4658185 75.1101509,59.9732936 76.2514248,58.325876 C76.8950348,57.3969086 77.6131738,56.8797956 78.5114894,56.6988411 C78.9602193,56.6083638 79.4117499,56.5083953 79.8483436,56.41185 C80.0296871,56.371707 80.2110306,56.331564 80.3925298,56.2920434 L80.9189005,56.2920434 C81.1610031,56.4436687 81.3163626,56.7101993 81.5337259,57.1061055 C81.5718461,57.1755777 81.6100442,57.2450499 81.6489424,57.3135886 C82.0785344,58.0706258 82.5042366,58.8297636 82.9300943,59.5887457 C83.3939168,60.415722 83.8576614,61.2424649 84.3263072,62.066796 C84.454049,62.2917834 84.5949383,62.4992665 84.7312377,62.6999813 C84.8440426,62.8662323 84.9507015,63.023459 85.045302,63.1829417 C85.3973309,63.7765286 85.2866266,63.9354667 84.9140594,64.3076449 C84.5165973,64.7049514 84.094007,65.0704391 83.6465996,65.4574765 C83.3809248,65.6872872 83.1062255,65.9248775 82.8393059,66.1680692 C82.3927543,66.575178 81.924264,67.0255417 81.407151,67.5446774 C80.8747899,68.0794502 80.7775444,68.8263739 81.1469997,69.5427236 C81.508053,70.2426582 81.904037,70.9306122 82.2871067,71.5956941 L82.429552,71.8433202 C83.153059,73.1017555 84.0289692,74.3340513 85.0326212,75.5058992 C86.0486428,76.6920617 86.9751985,77.5881211 87.9488211,78.3254759 C88.7969579,78.9676078 89.7043757,79.6456816 90.6517031,80.2576285 C91.4875481,80.7974581 92.3684373,81.2745837 93.2201528,81.73615 L93.3731007,81.8190032 C94.2003103,82.2676553 95.083689,82.0958808 95.735312,81.3594596 C96.0387182,81.0163773 96.3393237,80.6645039 96.6298934,80.3243001 C97.0009825,79.8896513 97.3849857,79.4402212 97.7717897,79.0131187 C98.0965898,78.6544771 98.4714131,78.2951353 98.951106,77.8821917 C99.0494408,77.7980938 99.253423,77.6228962 99.7050314,77.8888822 C100.009216,78.0679696 100.316745,78.2663506 100.614161,78.45843 C100.969691,78.6878518 101.337357,78.9252865 101.718326,79.1427276 C102.425106,79.5460244 102.97046,79.8454629 103.547865,80.1625612 C104.039149,80.4322037 108.140812,82.8580526 108.761705,83.2094592 C107.560061,84.5443684 105.966012,85.8739875 103.981502,87.1917816 M105.904786,72.6733305 C104.648685,73.017502 104.240798,72.2634988 104.1094,71.7838059 L104.074313,71.6555195 C103.942993,71.1758266 103.910163,70.3193655 105.166264,69.9754274 C105.243983,69.954189 105.329792,69.9440755 105.422292,69.9440755 C105.973558,69.9440755 106.763659,70.3026393 107.533532,70.7775866 C107.042559,71.7118442 106.446794,72.5248171 105.904786,72.6733305 M110.045035,71.0304251 C109.948334,70.9450824 109.62649,70.6666489 109.171303,70.3288567 C109.38361,69.8239577 109.516953,69.4299965 109.561453,69.293386 C109.806511,68.631027 110.563393,66.4651739 110.36719,65.5005757 C110.296007,65.151114 109.956581,64.9245708 109.605252,64.9962991 C109.255712,65.0674829 109.029947,65.4084647 109.101131,65.7582375 C109.187096,66.1805167 108.775708,67.6952135 108.345494,68.8565589 C108.342382,68.8647275 108.339348,68.8734407 108.336703,68.8819205 C108.264041,69.1055853 108.17652,69.3465987 108.077174,69.5948472 C107.048005,68.9792439 105.806374,68.4606528 104.824971,68.7293617 C102.966881,69.2382283 102.483298,70.7369769 102.828248,71.996657 L102.863334,72.1250211 C103.208283,73.384779 104.388455,74.4283406 106.246079,73.9193962 C107.227637,73.6507651 108.031585,72.5721173 108.603623,71.5182088 C108.817018,71.6823593 109.016566,71.8462764 109.194564,72.0030363 C109.219537,72.0248971 111.70031,74.225992 111.48178,77.5771518 C111.381578,79.1134761 110.751505,80.6543904 109.601829,82.1902479 C108.973311,81.8345625 104.664633,79.3017435 104.169614,79.0300005 C103.59711,78.7154695 103.056269,78.4185982 102.358824,78.0205138 C102.008506,77.8205769 101.67157,77.6030581 101.314951,77.3728584 C101.006488,77.1738551 100.687678,76.9678501 100.3607,76.7755372 C99.5670205,76.3079028 98.7463458,76.3540361 98.1085705,76.9026566 C97.5869453,77.3514644 97.1756355,77.7464369 96.8140376,78.1458439 C96.4146306,78.5870276 96.024637,79.0436149 95.6474798,79.485032 C95.3604887,79.8211904 95.0634619,80.168785 94.7674464,80.5034653 C94.469097,80.8409463 94.2403755,80.8197078 93.9889373,80.6830973 L93.8357561,80.6000885 C93.0053568,80.1501916 92.1467952,79.6850466 91.3527269,79.1722124 C90.442664,78.5844603 89.5574182,77.9226459 88.7287305,77.2954509 C87.8308816,76.6153544 86.9681968,75.7796649 86.0140234,74.6653864 C85.0624172,73.5543753 84.2331849,72.3882065 83.549743,71.199399 L83.406831,70.9511505 C83.0310741,70.2985939 82.6426365,69.6237875 82.2954309,68.9504592 C82.1368817,68.6430077 82.2532652,68.5261574 82.3226597,68.456374 C82.8249913,67.9520974 83.2786224,67.5159705 83.7097703,67.1230206 C83.9642425,66.8911094 84.2324069,66.6591204 84.4917802,66.4347555 C84.9368537,66.0497408 85.3970197,65.6516564 85.8275453,65.2215198 C86.4264223,64.6228762 86.9340442,63.8342536 86.1565465,62.5238502 C86.0421079,62.3306038 85.9191895,62.1494159 85.8003165,61.9742961 C85.6726525,61.7863398 85.5520681,61.6085749 85.4494545,61.428165 C84.9820535,60.6062455 84.5195536,59.7814475 84.0570537,58.9568052 C83.6301068,58.1957225 83.2033155,57.4347955 82.7727121,56.6758911 C82.7366924,56.6125648 82.7016062,56.5483827 82.6663644,56.4843562 C82.3955549,55.9908934 82.0584629,55.3769238 81.3404017,55.0562468 C81.2574707,55.0190601 81.1676936,55.0000778 81.0769051,55.0000778 L80.3230575,55.0000778 C80.2770798,55.0000778 80.2311021,55.0049012 80.1861358,55.0147035 C79.9803642,55.0593587 79.774826,55.104714 79.5692099,55.1503027 C79.138451,55.2455256 78.6929885,55.3441715 78.2561615,55.4321593 C77.0267442,55.6800188 76.0236368,56.3859437 75.1892699,57.590155 C73.9374472,59.3972887 73.2585176,61.0587096 73.0566358,62.8111525 C73.0511123,62.8240667 73.0458999,62.8372143 73.0409987,62.8501285 C73.0138478,62.9227126 73,62.9994199 73,63.0768273 L73,64.5307652 C73,64.5723863 73.0039676,64.6136962 73.0119807,64.6546171 C73.0413099,64.8047643 73.0671383,64.9561561 73.0930446,65.1072368 C73.1543482,65.4658785 73.2177523,65.8367341 73.3266673,66.2076676 C73.5585007,66.996368 73.8734207,68.0330835 74.2545455,69.0587519 C74.7720475,70.4519307 75.2232669,71.572044 75.6744863,72.584098 C76.3236977,74.0398251 77.2006971,75.3148311 78.0517124,76.4758653 C79.1922861,78.0319499 80.5086021,79.5387115 82.0760449,81.0824264 C82.9257377,81.9193606 83.8298881,82.7166187 84.7042424,83.4877371 L84.899278,83.659745 C85.8737564,84.519707 87.0181421,85.3613867 88.3980177,86.2327848 C89.589237,86.985232 90.8298569,87.5956229 92.085336,88.0472313 C93.8194967,88.6712367 95.3440737,89.1986966 96.7461213,89.6597961 C97.12958,89.7858264 97.5135055,89.8482191 97.8849057,89.9084336 C98.0388649,89.9334062 98.1929796,89.9582233 98.3453829,89.9879416 C98.3863038,89.9961102 98.4277693,90 98.4693904,90 L99.9234061,90 C99.9644826,90 100.005481,89.9961102 100.045935,89.9882527 C100.169476,89.964447 100.293173,89.9416527 100.416869,89.9189361 C100.697014,89.8672793 100.986884,89.8137553 101.275742,89.7480173 C102.498624,89.4700506 103.651567,88.970753 104.699408,88.2661505 C109.828061,84.8602998 112.544246,81.2854752 112.772268,77.6407893 C113.022461,73.6445414 110.161108,71.1303935 110.045035,71.0304251" id="Icon_Phone_Black"></path>
            </g>
        </g>
    </g>
</svg>