<?xml version="1.0" encoding="UTF-8" standalone="no"?>
<svg width="23px" height="20px" viewBox="0 0 23 20" version="1.1" xmlns="http://www.w3.org/2000/svg" xmlns:xlink="http://www.w3.org/1999/xlink">
    <!-- Generator: Sketch 41 (35326) - http://www.bohemiancoding.com/sketch -->
    <title>Icon_Phone_White</title>
    <desc>Created with Sketch.</desc>
    <defs></defs>
    <g id="--Symbols" stroke="none" stroke-width="1" fill="none" fill-rule="evenodd">
        <g id="Header-1440px" transform="translate(-1225.000000, -6.000000)" fill="#FFFFFF">
            <g id="Header">
                <g id="phone" transform="translate(1225.000000, 4.000000)">
                    <path d="M17.7037156,20.3953038 C17.1789229,20.7481885 16.6036293,20.9974483 15.9939274,21.1361482 C15.8436247,21.1702898 15.6926996,21.1981187 15.5328834,21.2276369 C15.4718021,21.2388395 15.4107653,21.2500867 15.3497728,21.2617339 L14.5890125,21.2617339 C14.5057925,21.2460857 14.4219502,21.232438 14.3381523,21.2188792 C14.1455727,21.1876717 13.9637513,21.1581535 13.7998453,21.1042295 C13.0052546,20.8428778 12.1403804,20.5436505 11.155833,20.1893877 C10.4889173,19.9495523 9.82858108,19.6244076 9.19309523,19.2231113 C8.42780045,18.7397064 7.82245517,18.2949775 7.28806025,17.8234421 L7.17647791,17.724974 C6.68440426,17.2909143 6.17552657,16.8421843 5.70439128,16.3781619 C4.83716092,15.5240902 4.11027535,14.692424 3.48216905,13.8354627 C3.02014706,13.2050892 2.54527753,12.5157682 2.20261752,11.7473171 C1.95131276,11.1837597 1.6991189,10.557476 1.40896037,9.77653303 C1.19917669,9.21181973 1.02411245,8.63532581 0.895059259,8.19615374 C0.844958346,8.02553502 0.813839766,7.84366915 0.780898527,7.65113405 C0.767161897,7.57093702 0.753425267,7.49069554 0.738310528,7.41089862 L0.738310528,6.68796956 C0.748046198,6.65978502 0.757337317,6.62506557 0.761782828,6.58447805 C0.857494688,5.69475341 1.2058005,4.84188205 1.85795702,3.90050056 C2.22573418,3.36966205 2.63609933,3.07416891 3.14942253,2.97076632 C3.40583962,2.91906502 3.6638571,2.8619402 3.9133392,2.8067714 C4.01696407,2.78383256 4.12058894,2.76089373 4.22430272,2.73831053 L4.52508602,2.73831053 C4.66343033,2.82495354 4.7522072,2.97725676 4.87641478,3.20348884 C4.89819779,3.24318725 4.92002525,3.28288567 4.94225281,3.32205063 C5.18773395,3.75464334 5.43099233,4.18843634 5.67433962,4.62214042 C5.93938101,5.09469828 6.20437794,5.56712278 6.47217554,6.03816916 C6.54517084,6.16673335 6.62567905,6.28529514 6.70356441,6.39998933 C6.76802433,6.49498991 6.82897229,6.58483369 6.8830297,6.67596668 C7.08418909,7.01515919 7.02092947,7.10598099 6.80803393,7.31865425 C6.58091275,7.54568652 6.33943257,7.75453664 6.08377122,7.97570083 C5.931957,8.10702124 5.774986,8.24278716 5.6224605,8.38175384 C5.36728815,8.61438745 5.09957945,8.87173811 4.80408631,9.16838708 C4.49987997,9.47397153 4.44431108,9.90078508 4.65542841,10.3101278 C4.8617446,10.7100904 5.08802113,11.103207 5.3069181,11.4832538 L5.38831542,11.6247544 C5.80174798,12.3438603 6.3022681,13.0480293 6.87578352,13.7176567 C7.45636731,14.3954638 7.98582771,14.9074978 8.54218346,15.3288434 C9.02683311,15.6957759 9.54535755,16.0832466 10.0866875,16.4329306 C10.5643132,16.7414046 11.0676785,17.0140478 11.554373,17.2778 L11.6417718,17.3251447 C12.114463,17.5815173 12.6192508,17.4833605 12.9916069,17.0625483 C13.1649818,16.8665013 13.3367564,16.6654308 13.5027962,16.4710286 C13.7148471,16.2226579 13.9342776,15.9658407 14.1553084,15.7217821 C14.3409085,15.516844 14.5550932,15.3115059 14.8292035,15.0755381 C14.8853947,15.0274822 15.001956,14.9273692 15.260018,15.0793613 C15.4338375,15.1816969 15.6095685,15.2950575 15.7795204,15.4048172 C15.9826803,15.5359153 16.1927752,15.6715923 16.4104718,15.7958443 C16.8143466,16.0262996 17.1259769,16.1974074 17.4559228,16.3786064 C17.7366568,16.5326878 20.0804638,17.9188872 20.43526,18.1196909 C19.7486063,18.8824962 18.8377211,19.6422786 17.7037156,20.3953038 M18.8027349,12.099046 C18.0849626,12.2957154 17.8518845,11.8648565 17.7767998,11.5907462 L17.7567505,11.5174397 C17.6817103,11.2433295 17.6629502,10.7539232 18.3807225,10.5573871 C18.4251331,10.5452509 18.4741671,10.5394717 18.5270243,10.5394717 C18.8420332,10.5394717 19.2935193,10.7443653 19.7334471,11.0157638 C19.4528909,11.5496252 19.1124537,12.0141812 18.8027349,12.099046 M21.1685916,11.1602429 C21.1133339,11.1114756 20.9294231,10.9523708 20.6693162,10.7593467 C20.7906342,10.470833 20.8668303,10.2457123 20.8922586,10.1676491 C21.0322922,9.78915829 21.464796,8.55152792 21.3526802,8.00032897 C21.3120038,7.8006366 21.1180461,7.67118331 20.9172868,7.71217092 C20.71755,7.75284735 20.5885412,7.94769411 20.6292177,8.1475643 C20.6783406,8.38886666 20.4432619,9.25440772 20.1974252,9.91803366 C20.195647,9.92270145 20.1939132,9.92768042 20.1924017,9.93252603 C20.1508807,10.0603345 20.1008687,10.1980564 20.0440995,10.3399127 C19.4560028,9.98813938 18.7464992,9.69180159 18.1856979,9.84534955 C17.123932,10.1361304 16.847599,10.9925582 17.044713,11.7123754 L17.0647622,11.7857264 C17.2618762,12.505588 17.9362603,13.1019089 18.9977595,12.8110835 C19.5586496,12.65758 20.0180488,12.0412099 20.3449272,11.4389765 C20.4668676,11.5327768 20.580895,11.6264437 20.6826083,11.7160207 C20.6968784,11.7285126 22.114463,12.9862812 21.9895886,14.9012296 C21.9323304,15.7791292 21.5722885,16.6596516 20.9153308,17.5372845 C20.5561779,17.3340357 18.0940759,15.8867106 17.811208,15.7314289 C17.4840628,15.5516969 17.1750109,15.3820561 16.7764708,15.1545793 C16.5762894,15.0403297 16.3837543,14.9160332 16.1799721,14.7844905 C16.0037076,14.6707743 15.8215305,14.5530572 15.6346857,14.4431641 C15.1811546,14.1759444 14.7121976,14.2023063 14.3477546,14.5158038 C14.049683,14.7722653 13.8146488,14.997964 13.6080215,15.2261965 C13.3797889,15.4783015 13.1569354,15.7392085 12.9414171,15.9914468 C12.7774221,16.1835374 12.6076925,16.3821628 12.4385408,16.5734087 C12.2680554,16.766255 12.1373574,16.7541188 11.9936785,16.6760556 L11.9061464,16.628622 C11.4316325,16.3715381 10.9410258,16.1057409 10.4872725,15.8126928 C9.96723658,15.4768344 9.46138184,15.0986548 8.98784597,14.7402577 C8.47478951,14.3516311 7.98182675,13.8740942 7.43658478,13.2373636 C6.89280983,12.6025002 6.41896277,11.936118 6.0284246,11.2567994 L5.94676056,11.1149431 C5.73204236,10.7420536 5.51007797,10.35645 5.3116748,9.97169098 C5.22107528,9.79600437 5.28758013,9.72923279 5.32723409,9.68935656 C5.61428076,9.40119851 5.87349853,9.15198314 6.11986877,8.92744036 C6.26528145,8.79491967 6.41851822,8.66235452 6.56673157,8.53414597 C6.82105928,8.31413762 7.08401127,8.0866608 7.33002587,7.84086848 C7.67224134,7.49878638 7.96231095,7.04814489 7.51802655,6.29934295 C7.45263308,6.18891645 7.382394,6.08538049 7.31446658,5.98531203 C7.24151574,5.87790848 7.17261032,5.77632854 7.11397402,5.67323713 C6.8468877,5.20356886 6.58260205,4.73225574 6.3183164,4.26103154 C6.07434673,3.82612716 5.83046598,3.39131169 5.58440692,2.95765206 C5.56382421,2.9214656 5.54377495,2.88479013 5.52363678,2.84820357 C5.36888853,2.56622478 5.17626453,2.21538503 4.76594383,2.03214105 C4.71855468,2.0108915 4.66725347,2.00004446 4.61537436,2.00004446 L4.18460431,2.00004446 C4.15833133,2.00004446 4.13205836,2.00280067 4.1063633,2.00840202 C3.98877953,2.03391925 3.87132912,2.05983658 3.75383425,2.08588728 C3.50768629,2.14030034 3.25313631,2.19666942 3.00352085,2.24694816 C2.30099668,2.38858215 1.72779245,2.79196785 1.25101135,3.48008855 C0.53568412,4.51273639 0.147724343,5.4621198 0.0323633228,6.46351569 C0.0292070097,6.47089524 0.0262285171,6.47840815 0.0234278449,6.4857877 C0.00791301023,6.52726432 0,6.57109706 0,6.6153299 L0,7.44615152 C0,7.46993501 0.0022672108,7.49354067 0.00684608751,7.51692406 C0.0236056654,7.60272243 0.0383647631,7.68923208 0.053168316,7.77556391 C0.0881989455,7.98050199 0.124429863,8.19241951 0.186667022,8.4043815 C0.319143261,8.85506744 0.499097561,9.44747628 0.716883163,10.0335725 C1.01259858,10.8296747 1.27043824,11.4697394 1.5282779,12.048056 C1.89925582,12.8799001 2.40039832,13.6084749 2.88669281,14.271923 C3.53844923,15.1611142 4.29062975,16.0221209 5.18631138,16.9042437 C5.67185013,17.3824918 6.18850746,17.8380678 6.68813849,18.2787069 L6.79958746,18.3769971 C7.35643221,18.868404 8.01036693,19.3493638 8.79886728,19.8473056 C9.47956398,20.2772754 10.1884897,20.6260703 10.9059063,20.8841322 C11.8968552,21.2407067 12.7680421,21.5421123 13.5692122,21.8055978 C13.7883314,21.8776151 14.0077174,21.9132681 14.2199461,21.9476763 C14.3079228,21.9619464 14.3959884,21.9761276 14.4830759,21.9931095 C14.5064593,21.9977772 14.5301539,22 14.5539374,22 L15.3848035,22 C15.4082758,22 15.4317036,21.9977772 15.4548203,21.9932873 C15.525415,21.979684 15.5960986,21.9666587 15.6667822,21.9536778 C15.8268651,21.9241596 15.9925049,21.8935745 16.1575667,21.8560099 C16.8563566,21.6971718 17.5151814,21.4118588 18.1139473,21.0092289 C21.0446063,19.0630285 22.5967121,17.0202715 22.72701,14.9375939 C22.8699777,12.6540236 21.2349186,11.2173677 21.1685916,11.1602429" id="Icon_Phone_White"></path>
                </g>
            </g>
        </g>
    </g>
</svg>