<?xml version="1.0" encoding="UTF-8" standalone="no"?>
<svg width="87px" height="77px" viewBox="0 0 87 77" version="1.1" xmlns="http://www.w3.org/2000/svg" xmlns:xlink="http://www.w3.org/1999/xlink">
    <!-- Generator: Sketch 41 (35326) - http://www.bohemiancoding.com/sketch -->
    <title>Icon_AuctionPage_MsgStudio</title>
    <desc>Created with Sketch.</desc>
    <defs></defs>
    <g id="Ibiza-Visual-Design-Home-Page" stroke="none" stroke-width="1" fill="none" fill-rule="evenodd">
        <g id="07a9-Auction-Page-Program-Guide-Details-1366px" transform="translate(-243.000000, -938.000000)">
            <g id="TV-Section" transform="translate(-1.000000, 111.000000)">
                <g id="Description-Area" transform="translate(66.000000, 778.000000)">
                    <g id="msg-studio" transform="translate(24.000000, 24.000000)">
                        <g id="Icon_AuctionPage_MsgStudio" transform="translate(155.000000, 26.000000)">
                            <path d="M84.4905361,30.9874138 C84.4905361,14.1475148 65.6892871,0.496 42.4968659,0.496 C19.3027129,0.496 0.501463948,14.1475148 0.501463948,30.9874138 C0.501463948,45.6815181 14.8188852,57.9458 33.8764518,60.8337037 C32.6191096,66.9775348 22.0667874,71.496 22.0667874,71.496 C35.0316132,69.312104 42.230157,65.1521372 46.2203999,61.3532666 C67.6670899,59.9842184 84.4905361,46.9154799 84.4905361,30.9874138" id="Fill-1" stroke="#00BCB4" stroke-width="3"></path>
                            <ellipse id="Oval" fill="#00BCB4" cx="26.5" cy="31.5" rx="5.5" ry="5.5"></ellipse>
                            <ellipse id="Oval" fill="#00BCB4" cx="42.5" cy="31.5" rx="5.5" ry="5.5"></ellipse>
                            <ellipse id="Oval" fill="#00BCB4" cx="58.5" cy="31.5" rx="5.5" ry="5.5"></ellipse>
                        </g>
                    </g>
                </g>
            </g>
        </g>
    </g>
</svg>