<?xml version="1.0" encoding="UTF-8" standalone="no"?>
<svg width="40px" height="35px" viewBox="0 0 40 35" version="1.1" xmlns="http://www.w3.org/2000/svg" xmlns:xlink="http://www.w3.org/1999/xlink">
    <!-- Generator: Sketch 41 (35326) - http://www.bohemiancoding.com/sketch -->
    <title>Icon_Basket_Raspberry</title>
    <desc>Created with Sketch.</desc>
    <defs></defs>
    <g id="--Symbols" stroke="none" stroke-width="1" fill="none" fill-rule="evenodd">
        <g id="Header-360px" transform="translate(-297.000000, -56.000000)" fill="#EA516C">
            <g id="Header">
                <g id="Basket" transform="translate(297.000000, 52.000000)">
                    <g id="basket">
                        <g id="icon" transform="translate(0.000000, 4.000000)">
                            <path d="M38.0126962,10.4173359 C37.5498974,12.8853862 35.9200805,20.7269857 35.9035296,20.8059695 C35.8986411,20.8296437 35.896127,20.8433314 35.8943113,20.8676341 C35.8870484,20.9288098 35.6873194,22.3712585 33.0387447,22.6941771 C29.8844226,23.0789698 11.8258447,24.3209212 11.643784,24.3334218 C11.6330992,24.3340503 11.622554,24.3359358 11.6120089,24.3371929 L8.91622556,8.21067915 L36.7222091,8.21067915 C36.8421862,8.2402195 37.2070758,8.34671837 37.5232902,8.61369883 C38.0039667,9.0196516 38.1640293,9.60962045 38.0126962,10.4173359 M15.1609006,31.2898585 C15.7211895,31.803637 16.1736526,32.3589675 16.1806361,32.7517214 C16.1848262,32.9826669 16.1536098,33.1796723 16.0881043,33.3370812 C15.9039485,33.7791388 15.4453399,33.8347975 15.2567147,33.8381496 L15.1544059,33.8399654 C14.7268741,33.8444348 14.2081372,33.671313 14.1924941,32.7870581 C14.1855106,32.3954216 14.6186293,31.8238893 15.1609006,31.2898585 M27.6257386,31.2898585 C28.1859576,31.803637 28.6384207,32.3589675 28.6454042,32.7517214 C28.6495943,32.9826669 28.6183779,33.1796723 28.5528724,33.3370812 C28.3687166,33.7791388 27.910108,33.8347975 27.7214828,33.8381496 L27.6191042,33.8399654 C27.1922009,33.8444348 26.6729752,33.671313 26.6572622,32.7870581 C26.6502787,32.3954216 27.0833974,31.8238893 27.6257386,31.2898585 M38.7446402,8.24524764 C38.0696818,7.27383822 36.9309469,7.0676145 36.8827605,7.05937393 C36.8501474,7.05371727 36.817255,7.05092385 36.7842229,7.05092385 L8.72550528,7.05092385 C8.60133807,6.36954055 8.3527243,4.97185629 8.03350701,3.00277937 C7.52070619,-0.1591548 4.81319051,-0.0282135588 4.38202719,0.0134781323 L0.579842732,0.0134781323 C0.259577916,0.0134781323 -9.09494702e-13,0.273125884 -9.09494702e-13,0.5933907 C-9.09494702e-13,0.913655516 0.259577916,1.17330327 0.579842732,1.17330327 L4.41142786,1.17330327 C4.4405492,1.17330327 4.46953086,1.17120821 4.49823318,1.16680858 C4.50340099,1.16569122 5.00949762,1.09725259 5.55658758,1.30249863 C6.28154813,1.57443739 6.72975126,2.20896119 6.8885568,3.18840167 C7.2291437,5.28883884 7.48990881,6.74371824 7.60639414,7.37908006 L10.5338911,24.8916155 C9.97374194,25.3484084 9.46149981,26.0899898 9.46149981,27.1796304 C9.46149981,29.3330028 10.6120368,30.3375141 13.0816236,30.3400282 L13.9827088,30.3691495 C14.0685364,30.4258558 14.157367,30.4868919 14.2478037,30.5514896 C13.6054584,31.2036817 13.0187718,32.0180315 13.0327388,32.8077992 C13.0599048,34.3269969 14.0998925,35 15.1326872,35 C15.1467939,35 15.1609006,35 15.1750772,34.9997207 L15.2774558,34.9979049 C16.1450899,34.982192 16.8483317,34.5281925 17.1588894,33.7829797 C17.2861992,33.476682 17.3472353,33.1228962 17.3403914,32.73112 C17.3262847,31.9415618 16.7111053,31.1486515 16.0462031,30.5197843 C16.1281199,30.4565135 16.2089194,30.3963155 16.2873445,30.3400282 L25.1814322,30.3400282 L26.449572,30.3705462 C26.5349107,30.4268335 26.6228334,30.4875204 26.7125718,30.5514896 C26.0702265,31.2036817 25.4835399,32.0180315 25.4975069,32.8077992 C25.5246729,34.3269969 26.5646606,35 27.5973854,35 C27.611562,35 27.6257386,35 27.6398453,34.9997207 L27.7422239,34.9979049 C28.609858,34.982192 29.3130998,34.5281925 29.6237273,33.7829797 C29.7509673,33.476682 29.8120034,33.1228962 29.8051595,32.73112 C29.7910528,31.9415618 29.1758734,31.1486515 28.5109712,30.5197843 C28.592888,30.4565135 28.6736875,30.3963155 28.7521126,30.3400282 L31.701468,30.3400282 C32.0217328,30.3400282 32.2813806,30.0803805 32.2813806,29.7601855 C32.2813806,29.4399207 32.0217328,29.1802729 31.701468,29.1802729 L28.5692139,29.1802729 C28.4527285,29.1802729 28.3390366,29.2153302 28.2427337,29.2809056 C28.1246422,29.3613559 27.8865735,29.528821 27.5977346,29.7594871 C27.3010043,29.5391567 27.0570695,29.3803511 26.9361845,29.3041608 C26.8475635,29.2482925 26.7454643,29.2174951 26.6408509,29.2149811 L25.20357,29.1804126 C25.2011258,29.1803427 25.1988212,29.1810411 25.196377,29.1809713 C25.1940026,29.1809713 25.1919075,29.1802729 25.189603,29.1802729 L16.1045156,29.1802729 C15.9879604,29.1802729 15.8742685,29.2153302 15.7778958,29.2809056 C15.6598741,29.3613559 15.4218054,29.528821 15.1328967,29.7594871 C14.8360965,29.5391567 14.5923014,29.3803511 14.4714164,29.3041608 C14.3841921,29.2491305 14.2837689,29.2185427 14.1808316,29.2151207 L13.1097672,29.1805522 C13.1034122,29.1802729 13.0973365,29.1802729 13.0909815,29.1802729 C11.4893082,29.1802729 10.6212551,28.8614048 10.6212551,27.1796304 C10.6212551,25.9840496 11.5492968,25.573348 11.7946981,25.4857047 C13.218431,25.3876559 30.0633407,24.225596 33.1791137,23.8454823 C36.5695491,23.4319873 36.9955446,21.3740799 37.0439405,21.0191767 C37.1422686,20.5460424 38.700225,13.0437029 39.1525484,10.631032 C39.3288826,9.69097861 39.1915863,8.88829134 38.7446402,8.24524764" id="Icon_Basket_Raspberry"></path>
                        </g>
                    </g>
                </g>
            </g>
        </g>
    </g>
</svg>