<?xml version="1.0" encoding="UTF-8" standalone="no"?>
<svg width="50px" height="50px" viewBox="0 0 50 50" version="1.1" xmlns="http://www.w3.org/2000/svg" xmlns:xlink="http://www.w3.org/1999/xlink">
    <!-- Generator: Sketch 41 (35326) - http://www.bohemiancoding.com/sketch -->
    <title>Icon_Social_Twitter</title>
    <desc>Created with Sketch.</desc>
    <defs>
        <polygon id="path-1" points="25.0000214 39.0254286 42.8571429 39.0254286 42.8571429 10 25.0000214 10 7.1429 10 7.1429 39.0254286 25.0000214 39.0254286"></polygon>
    </defs>
    <g id="--Symbols" stroke="none" stroke-width="1" fill="none" fill-rule="evenodd">
        <g id="Footer-360px" transform="translate(-155.000000, -357.000000)">
            <g id="Footer">
                <g id="Social-Networks" transform="translate(21.000000, 357.000000)">
                    <g id="Icon_Social_Twitter" transform="translate(134.000000, 0.000000)">
                        <rect id="Rectangle-9" fill="#1DA1F2" x="0" y="0" width="50" height="50"></rect>
                        <mask id="mask-2" fill="white">
                            <use xlink:href="#path-1"></use>
                        </mask>
                        <g id="Clip-2"></g>
                        <path d="M18.9047371,38.1319657 C31.3041029,38.1319657 38.0848971,27.8593771 38.0848971,18.9518057 C38.0848971,18.6599029 38.0789829,18.3694457 38.0655771,18.0803029 C39.3817029,17.1288914 40.52592,15.9416971 41.4285714,14.5899543 C40.2206114,15.1265771 38.9207829,15.4881371 37.5572114,15.65124 C38.9489086,14.8168 40.0175543,13.4962057 40.5214514,11.9222171 C39.2187314,12.69436 37.7765657,13.2560857 36.2410857,13.5585029 C35.0109143,12.24816 33.2591029,11.4285714 31.3204,11.4285714 C27.5974229,11.4285714 24.5782457,14.4477486 24.5782457,18.16928 C24.5782457,18.6984114 24.63752,19.2126914 24.7531771,19.7063371 C19.1507714,19.4246857 14.18264,16.7420971 10.8582857,12.6632114 C10.2788171,13.6591771 9.94525143,14.8168 9.94525143,16.05144 C9.94525143,18.3902114 11.1354686,20.4548229 12.9451086,21.6626514 C11.8394,21.6286114 10.8004571,21.3247486 9.89189143,20.8194057 C9.89044571,20.8475314 9.89044571,20.8756571 9.89044571,20.9052286 C9.89044571,24.17044 12.2144971,26.8960057 15.2987314,27.5141143 C14.7325371,27.6681486 14.1367714,27.7512114 13.5216857,27.7512114 C13.0874457,27.7512114 12.6650343,27.7082343 12.2544514,27.62964 C13.1125486,30.3078914 15.6011486,32.2568457 18.5519829,32.3117829 C16.24436,34.1198457 13.3379486,35.1974286 10.1794571,35.1974286 C9.63560571,35.1974286 9.09898286,35.16628 8.57142857,35.1039829 C11.5548571,37.0160057 15.09712,38.1319657 18.9047371,38.1319657" id="Fill-1" fill="#FFFFFF" mask="url(#mask-2)"></path>
                    </g>
                </g>
            </g>
        </g>
    </g>
</svg>