<?xml version="1.0" encoding="UTF-8" standalone="no"?>
<svg width="21px" height="20px" viewBox="0 0 21 20" version="1.1" xmlns="http://www.w3.org/2000/svg" xmlns:xlink="http://www.w3.org/1999/xlink">
    <!-- Generator: Sketch 41 (35326) - http://www.bohemiancoding.com/sketch -->
    <title>Icon_User_White</title>
    <desc>Created with Sketch.</desc>
    <defs></defs>
    <g id="--Symbols" stroke="none" stroke-width="1" fill="none" fill-rule="evenodd">
        <g id="Header-1440px" transform="translate(-1029.000000, -6.000000)" fill="#FFFFFF">
            <g id="Header">
                <g id="Login/Register" transform="translate(1029.000000, 6.000000)">
                    <path d="M19.8623729,19.301259 L1.5907113,19.301259 L1.5907113,17.4488757 C1.5907113,16.8583162 2.05571113,16.2263103 2.06004512,16.2205457 C2.07165855,16.2049349 2.08205172,16.1883984 2.0909301,16.1711045 C2.68889523,15.0126654 6.60657456,12.9876376 8.30196622,12.2417275 C9.45085369,11.7361649 10.1290608,11.2190309 10.1602824,11.1950045 C10.357879,11.039654 10.5482381,10.8865335 10.730855,10.7359797 C10.904846,10.8795486 11.0778271,11.0189097 11.248494,11.1536422 C11.2626741,11.1693372 11.2783691,11.1840223 11.295663,11.1972347 C11.3239392,11.2190309 12.0021884,11.7361649 13.1510338,12.2417275 C13.7080574,12.4867455 15.1254422,13.1605766 16.5028953,13.9571481 L18.5919652,15.3460464 C18.6900902,15.4262463 18.7806413,15.5045949 18.8612199,15.5786515 C19.1074161,15.804945 19.2758949,16.0043087 19.3620278,16.1711886 C19.3709904,16.1883984 19.3812573,16.2049349 19.392997,16.2205457 C19.5235217,16.3946208 19.8623729,16.9545898 19.8623729,17.4488757 L19.8623729,19.301259 Z M7.07898006,4.54253206 C7.07898006,0.975990507 9.77451478,0.698741037 10.6006248,0.698741037 L10.8608328,0.698741037 C11.6869007,0.698741037 14.3824355,0.975990507 14.3824355,4.54253206 C14.3824355,5.37449086 13.8804073,7.11482142 10.7307709,9.82297943 C7.58050327,7.11385364 7.07898006,5.37444878 7.07898006,4.54253206 L7.07898006,4.54253206 Z M19.9698812,15.8256892 C19.8428909,15.5897179 19.6345646,15.3402818 19.3342145,15.0641684 C19.2438318,14.981023 19.1430138,14.8939644 19.0345797,14.8051806 L16.8527287,13.3521981 C15.4490191,12.5403945 14.001675,11.8524254 13.432491,11.6019793 C12.533755,11.2065338 11.9382725,10.7993486 11.7701724,10.6788804 C11.7594005,10.6677298 11.747745,10.6572525 11.7353321,10.6474905 C11.5760262,10.5223516 11.4221483,10.3990221 11.2734039,10.2775019 C14.3876952,7.57565557 15.0812186,5.68746423 15.0812186,4.54253206 C15.0812186,2.93188474 14.5833561,1.71070791 13.6014327,0.913126536 C12.6232541,0.118616824 11.4644784,0 10.8608328,0 L10.6006248,0 C9.9969371,0 8.83811932,0.118616824 7.86002493,0.913126536 C6.8780594,1.71070791 6.38019694,2.93188474 6.38019694,4.54253206 C6.38019694,6.47094961 8.25866834,8.59932003 10.1886848,10.2769128 C10.0414552,10.3972549 9.88926046,10.5191537 9.73163768,10.6429882 C9.72532603,10.6479113 9.08612484,11.1331504 8.02046691,11.6019793 C7.96437744,11.6266789 2.41160368,14.1066079 1.48316089,15.8256051 C1.38103849,15.9686269 0.891844027,16.6930774 0.891844027,17.4488757 L0.891844027,19.6506716 C0.891844027,19.8435975 1.04833071,20 1.24125662,20 L20.2117434,20 C20.4047114,20 20.561156,19.8435975 20.561156,19.6506716 L20.561156,17.4488757 C20.561156,16.6933299 20.072214,15.9689635 19.9698812,15.8256892 L19.9698812,15.8256892 Z" id="Icon_User_White"></path>
                </g>
            </g>
        </g>
    </g>
</svg>