<?xml version="1.0" encoding="UTF-8" standalone="no"?>
<svg width="35px" height="35px" viewBox="0 0 35 35" version="1.1" xmlns="http://www.w3.org/2000/svg" xmlns:xlink="http://www.w3.org/1999/xlink">
    <!-- Generator: Sketch 41 (35326) - http://www.bohemiancoding.com/sketch -->
    <title>Icon_Search_Black</title>
    <desc>Created with Sketch.</desc>
    <defs></defs>
    <g id="--Symbols" stroke="none" stroke-width="1" fill="none" fill-rule="evenodd">
        <g id="Header-360px" transform="translate(-249.000000, -56.000000)" fill="#192332">
            <g id="Header">
                <g id="Search" transform="translate(249.000000, 56.000000)">
                    <path d="M29.2233285,33.5886499 L21.7167569,26.0819375 C20.4746618,24.8398424 20.3805295,22.7056383 20.677289,20.6746488 C22.7055327,20.3790158 24.8388919,20.4739225 26.0820431,21.7167921 L33.5884035,29.2233637 L29.2233285,33.5886499 Z M15.0228064,21.0716658 C11.2635713,22.5980586 6.98101162,21.7302395 4.11254783,18.8617054 C2.21117497,16.9601917 1.16410332,14.4322092 1.16410332,11.7434205 C1.16410332,9.05442049 2.21117497,6.52636764 4.11268864,4.62485397 L4.62481877,4.11244222 C6.5877261,2.14981652 9.16506284,1.16878529 11.7433149,1.16878529 C14.3208628,1.16878529 16.8992557,2.15023895 18.8616702,4.11244222 C21.7301339,6.98111723 22.5977418,11.2636065 21.0771223,15.0097461 C21.0036893,15.1785787 20.1292521,17.2215372 19.6644345,19.6641881 C17.2243886,20.1283016 15.1851616,21.0009082 15.0228064,21.0716658 L15.0228064,21.0716658 Z M34.828668,28.8100126 L26.9087453,20.8900899 C25.4373393,19.4184726 23.1070557,19.2139444 20.8968136,19.4734594 C21.3682493,17.3015883 22.1363741,15.5061054 22.1548907,15.462806 C23.8582831,11.2671972 22.8900657,6.48743336 19.6883724,3.28574001 C15.3077377,-1.09524667 8.17924404,-1.09524667 3.79797574,3.28574001 L3.28584561,3.79815175 C-1.09528187,8.17913843 -1.09528187,15.3074913 3.28584561,19.6884076 C6.48718694,22.8901009 11.2669508,23.8586 15.4757958,22.1495047 C15.5128292,22.1334523 17.3043693,21.3657499 19.4738466,20.8945958 C19.2144021,23.1058236 19.4184374,25.4372337 20.8900547,26.9086397 L28.8099774,34.8287032 C28.9240344,34.9429011 29.0736462,35 29.2233285,35 C29.3729403,35 29.5226226,34.9429011 29.6366796,34.8287032 L34.828668,29.6367148 C34.9383599,29.5271637 34.9999648,29.3783968 34.9999648,29.2233637 C34.9999648,29.068401 34.9383599,28.9195636 34.828668,28.8100126 L34.828668,28.8100126 Z" id="Icon_Search_Black"></path>
                </g>
            </g>
        </g>
    </g>
</svg>