<?xml version="1.0" encoding="UTF-8" standalone="no"?>
<svg width="50px" height="50px" viewBox="0 0 50 50" version="1.1" xmlns="http://www.w3.org/2000/svg" xmlns:xlink="http://www.w3.org/1999/xlink">
    <!-- Generator: Sketch 41 (35326) - http://www.bohemiancoding.com/sketch -->
    <title>Icon_Social_Pinterest</title>
    <desc>Created with Sketch.</desc>
    <defs></defs>
    <g id="--Symbols" stroke="none" stroke-width="1" fill="none" fill-rule="evenodd">
        <g id="Footer-360px" transform="translate(-289.000000, -357.000000)">
            <g id="Footer">
                <g id="Social-Networks" transform="translate(21.000000, 357.000000)">
                    <g id="Icon_Social_Pinterest" transform="translate(268.000000, 0.000000)">
                        <rect id="Rectangle-9" fill="#BD081C" x="0" y="0" width="50" height="50"></rect>
                        <path d="M22.3797293,32.5751174 C22.1084504,33.6114979 21.8046034,34.6138493 21.587087,35.6345874 C21.0461279,38.1729627 20.0061875,40.4949509 18.6419821,42.6847101 C18.6101906,42.7357081 18.5762065,42.7852882 18.529113,42.8571429 C18.0480828,42.6892839 17.5691082,42.522111 17.0944729,42.3564474 C16.9415902,41.0577587 16.8822094,39.7743922 16.9097529,38.4862232 C16.9346015,37.3209983 17.2020435,36.1976696 17.4695311,35.0725114 C18.1651087,32.1464138 18.8550679,29.2189899 19.5400025,26.2904225 C19.5667696,26.1759857 19.543474,26.0354781 19.5027296,25.9217273 C18.7859577,23.9194945 18.6940545,21.9322638 19.6995542,19.9967629 C20.218725,18.9974303 21.0004047,18.2636533 22.1421147,18.0393077 C23.6888018,17.735332 25.0521392,18.501949 25.3197182,20.2882521 C25.4715047,21.3015348 25.2396455,22.2736533 24.971427,23.2343372 C24.5796051,24.637995 24.157362,26.033054 23.7484567,27.4319093 C23.5275601,28.1875033 23.4576278,28.9473968 23.7819383,29.6883547 C24.2521885,30.7628808 25.1019277,31.3717469 26.2492561,31.4982129 C27.99697,31.6908619 29.428367,30.9992555 30.6124657,29.7601636 C31.8077555,28.5093169 32.4558284,26.9705944 32.8390629,25.3076013 C33.1418593,23.9934073 33.2564186,22.6576707 33.1571156,21.315302 C32.8948352,17.7718768 30.7406826,14.9654302 27.2417376,14.0157692 C24.7951574,13.3516972 22.3779479,13.5201965 20.096903,14.6718828 C17.5243899,15.9707088 15.9839606,18.0928213 15.4055917,20.9110226 C14.9929865,22.9217627 15.3158353,24.8281741 16.2884014,26.6269637 C16.4215057,26.8731264 16.5858078,27.1055219 16.7592455,27.3256596 C16.9251919,27.5362837 16.9698189,27.7575648 16.9082913,28.0090331 C16.722338,28.7688351 16.5390797,29.5293689 16.3470057,30.2876158 C16.2431806,30.6975668 16.0493709,30.785384 15.6548083,30.6065936 C14.7585694,30.2004389 14.0569624,29.5544791 13.4763552,28.7758788 C12.3849818,27.312304 11.7274994,25.6597393 11.5197123,23.8531285 C11.133463,20.4943024 11.9742951,17.4516183 14.0535366,14.7838498 C15.6011372,12.7981742 17.6415527,11.5055686 20.0245498,10.741513 C21.8455762,10.1576656 23.7178984,9.94681278 25.6231998,10.0111206 C28.4732497,10.1072622 31.0745854,10.9444074 33.3416072,12.7021241 C35.7172502,14.5440447 37.2374443,16.9437878 37.6911593,19.9271952 C38.2753749,23.769016 37.5169451,27.3521419 35.2713461,30.5523482 C33.7953678,32.6557995 31.8063852,34.0741392 29.2728806,34.6471009 C27.5882474,35.0280539 25.9247629,35.0222451 24.3319415,34.2384764 C23.5767091,33.866854 22.9166687,33.3792854 22.4544121,32.6573089 C22.4396582,32.6342568 22.4173219,32.6160531 22.3797293,32.5751174" id="Fill-1" fill="#FFFFFF"></path>
                    </g>
                </g>
            </g>
        </g>
    </g>
</svg>