<?xml version="1.0" encoding="UTF-8" standalone="no"?>
<svg width="32px" height="21px" viewBox="0 0 32 21" version="1.1" xmlns="http://www.w3.org/2000/svg" xmlns:xlink="http://www.w3.org/1999/xlink">
    <!-- Generator: Sketch 41 (35326) - http://www.bohemiancoding.com/sketch -->
    <title>Icon_Email_SignUp</title>
    <desc>Created with Sketch.</desc>
    <defs></defs>
    <g id="Ibiza-Visual-Design-Home-Page" stroke="none" stroke-width="1" fill="none" fill-rule="evenodd">
        <g id="07b9-Auction-Page-Programme-Guide-Details-768px" transform="translate(-57.000000, -3774.000000)" fill="#00BCB4">
            <g id="Email-Sign-Up" transform="translate(35.000000, 3773.000000)">
                <g id="Icon_Email_SignUp" transform="translate(22.000000, 1.000000)">
                    <path d="M30.8742785,19.883706 L1.11033688,19.883706 L1.11033688,1.59038458 L14.5173521,10.1317446 C14.6938614,10.2480323 14.906408,10.3999456 15.1346666,10.5763936 C14.0764133,11.5792904 13.5401327,12.491913 13.5401327,13.2905334 C13.5401327,15.1777539 14.827848,15.8473825 15.9306297,15.8473825 L16.0539856,15.8473825 C17.1567674,15.8473825 18.4444827,15.1777539 18.4444827,13.2905334 C18.4444827,12.4915097 17.9075335,11.5782149 16.8481436,10.5745787 C17.0590856,10.4124482 17.2666177,10.2642319 17.4604436,10.136181 L30.8742785,1.57371445 L30.8742785,19.883706 L30.8742785,19.883706 Z M17.3341458,13.2905334 C17.3341458,14.5438855 16.5320316,14.7310885 16.0539856,14.7310885 L15.9306297,14.7310885 C15.4525838,14.7310885 14.6504696,14.5438855 14.6504696,13.2905334 C14.6504696,12.7477458 15.2553481,11.9864987 15.9906696,11.2999984 C16.7020555,11.9600819 17.3341458,12.7226734 17.3341458,13.2905334 L17.3341458,13.2905334 Z M29.5193025,1.11629403 L16.8583731,9.19821712 C16.8361089,9.21273626 16.4711894,9.45445321 15.9922743,9.83504313 C15.5128911,9.45411712 15.1462333,9.2113919 15.1194226,9.19378071 L2.44064174,1.11629403 L29.5193025,1.11629403 L29.5193025,1.11629403 Z M31.9837462,0.547627355 C31.982877,0.539090633 31.9815398,0.530621129 31.981005,0.52194997 C31.9795341,0.4996335 31.9783974,0.477451467 31.9742522,0.455269433 C31.970976,0.437591025 31.9653598,0.421055327 31.9604791,0.404049101 C31.9553309,0.386169038 31.9510519,0.368356193 31.9440985,0.350946657 C31.9361422,0.330915609 31.9256452,0.312497799 31.9155494,0.293743898 C31.9093315,0.282249572 31.9051862,0.270150281 31.898166,0.258924828 C31.8968288,0.256773842 31.8949567,0.255227822 31.8935527,0.253076837 C31.8817185,0.2349279 31.8674774,0.218728294 31.8536375,0.20205816 C31.843876,0.19029496 31.8351174,0.17738905 31.8245536,0.166566906 C31.8121177,0.153862651 31.797676,0.143511035 31.7841035,0.132083927 C31.7701299,0.120320727 31.7569585,0.107347599 31.7420489,0.0971304195 C31.7277409,0.0873165501 31.7117615,0.0801914121 31.6965844,0.0717219084 C31.6807386,0.0629163132 31.6654947,0.052900789 31.6489803,0.0457084327 C31.6326666,0.0386505129 31.6150825,0.0345501977 31.5980334,0.0290382984 C31.5808504,0.0235263992 31.5641355,0.0167373526 31.5465515,0.0129731287 C31.5317755,0.00974665109 31.5162641,0.00920890482 31.501087,0.0072595746 C31.4796919,0.0044364067 31.4584974,0.00107549253 31.4368349,0.000739401117 C31.4343611,0.000739401117 31.432021,0 31.4294804,0 L0.55513501,0 C0.248583881,0 0,0.249917578 0,0.558113407 L0,20.4418866 C0,20.7501496 0.248583881,21 0.55513501,21 L31.4294804,21 C31.7360315,21 31.9846154,20.7501496 31.9846154,20.4418866 L31.9846154,0.547627355 L31.9837462,0.547627355 L31.9837462,0.547627355 Z" id="Fill-1"></path>
                </g>
            </g>
        </g>
    </g>
</svg>