<svg xmlns="http://www.w3.org/2000/svg" width="120" height="86" viewBox="0 0 120 86"><title>SimplySewingLogo</title><g id="Layer_3" data-name="Layer 3"><path d="M18.2,7.13H17.5c0,.75-.22,1.34-1.12,1.34s-3-2-6.38-2c-5.33,0-8.5,3.88-8.5,8.58,0,12.34,15.18,5,15.18,12.9,0,3.39-3,5.41-6.15,5.41-5,0-7.76-5.48-7.9-8H1.91v8.05h.71A1.26,1.26,0,0,1,3.89,32c1.64,0,2.91,2,6.86,2,6.38,0,9.66-4.21,9.66-9.58C20.4,12.17,5.23,19,5.23,11.76A4.45,4.45,0,0,1,9.81,7.17c5.33,0,7.35,5.11,7.68,7.12h.71V7.13ZM28.68,23.69V20.55c0-3,.52-4,2.12-4s2.13,1.45,2.13,3.06v4.1Zm11,.71a8.56,8.56,0,0,0-8.8-8.58c-5.37,0-9.54,3.73-9.54,9.21s4.18,9,9.84,9c4.29,0,6.86-2.05,8.35-6l-.71-.22c-1,2.68-3.43,5.29-6.45,5.29-2.27,0-3.65-1.08-3.65-4.88V24.39Zm6.3,9.21h1.64L52,22l4.88,11.6h1.64L64,19.47c.34-.86.82-2.27,2.2-2.27h.3v-.71H61.12v.71h.78c1,0,1.34.37,1.34,1a5.66,5.66,0,0,1-.45,2l-2.2,6.08h-.07L57.13,17.2h1.34v-.71H48.63v.71H50l1.57,3.73-1.94,5.33h-.07L46.17,17.2h1.34v-.71h-10v.71H39l6.9,16.41Zm19.87-.22H76.63v-.71H74.58V15.82c-1.27.6-4.1.67-6.53.67H65.82v.71h2.05V32.67H65.82v.71Zm1.94-23.3a3.47,3.47,0,1,0,3.47-3.47,3.49,3.49,0,0,0-3.47,3.47Zm8.39,23.3H87v-.71H84.91V21.82c0-2.16,2-4.62,3.65-4.62,1.45,0,1.83,1,1.83,2.39V32.67H88.34v.71H99.15v-.71H97.1V21.82c0-4.25-2.5-6-6.15-6a6.42,6.42,0,0,0-6,3.24h-.07V15.82c-1.27.6-4.1.67-6.52.67H76.14v.71H78.2V32.67H76.14v.71ZM103,28.91c-1.3,0-1.79-.41-1.79-1,0-.78,2-2,2.91-2a17.8,17.8,0,0,0,4,.6c3.36,0,7.68-1.64,7.68-5.48a4.62,4.62,0,0,0-2.39-3.8,4.49,4.49,0,0,1,1.19-1.9,2.11,2.11,0,0,0,1.9,2.31,1.85,1.85,0,0,0,2.05-1.94,1.9,1.9,0,0,0-2.09-2c-1.79,0-3,1.6-3.65,3.17a9.25,9.25,0,0,0-5.11-1c-3.58,0-7.72,1.86-7.72,5.11,0,2.31,1.6,3.69,3.43,4.44v.07a5.6,5.6,0,0,0-4,5.22A3.76,3.76,0,0,0,103,34.83v.07c-1.83.41-3.92,1.42-3.92,3.58,0,3.13,4,4.51,7.9,4.51,3.47,0,10.22-1.16,10.22-8.65,0-2.91-1.12-5.44-6.53-5.44Zm8.5,6c2.27,0,3.92.41,3.92,2.24,0,2.5-3.32,4.88-7.72,4.88-3.09,0-5.89-1.16-5.89-3.73A3.37,3.37,0,0,1,105,34.95Zm-5.74-15.77c0-1.42.67-2.65,2.09-2.65s2.09,1.23,2.09,2.65v4c0,1.42-.67,2.65-2.09,2.65s-2.09-1.23-2.09-2.65v-4Z" style="fill:#192332"/><path d="M18,36.15h3v.33H18.31v2h2v.33h-2v2.63H18Z" style="fill:#192332"/><path d="M21.43,36.15h1.71c1.14,0,1.77.5,1.77,1.36a1.33,1.33,0,0,1-1.29,1.39L25,41.41h-.41l-1.34-2.47H21.79v2.47h-.36Zm1.68,2.47c.91,0,1.44-.28,1.44-1.09s-.53-1.05-1.45-1.05H21.79v2.15Z" style="fill:#192332"/><path d="M25.43,36.15h3v.33H25.79v2h2v.33h-2v2.3h2.84v.33h-3.2Z" style="fill:#192332"/><path d="M28.71,40.09l.35-.09a1.47,1.47,0,0,0,1.53,1.18c.85,0,1.39-.42,1.39-1.05s-.24-.89-1.46-1.28-1.66-.7-1.66-1.51A1.44,1.44,0,0,1,30.44,36a1.67,1.67,0,0,1,1.74,1.24l-.34.1a1.33,1.33,0,0,0-1.41-1c-.75,0-1.21.44-1.21,1s.34.85,1.54,1.24,1.57.75,1.57,1.55-.79,1.39-1.76,1.39A1.8,1.8,0,0,1,28.71,40.09Z" style="fill:#192332"/><path d="M32.65,36.15H33v2.31h3V36.15h.36v5.26H36V38.78H33v2.62h-.36Z" style="fill:#192332"/><path d="M39.05,36.15h.36v5.26h-.36Z" style="fill:#192332"/><path d="M39.9,36.15h1.26a2.32,2.32,0,0,1,2.57,2.63,2.33,2.33,0,0,1-2.57,2.63H39.9Zm1.34,4.93c1.34,0,2.14-.71,2.14-2.3s-.8-2.3-2.15-2.3h-1v4.6Z" style="fill:#192332"/><path d="M44.1,36.15h3v.33H44.46v2h2v.33h-2v2.3H47.3v.33H44.1Z" style="fill:#192332"/><path d="M49.43,36.13h.42l1.86,5.28h-.38l-.61-1.76H48.54l-.61,1.76h-.36Zm1.18,3.2-1-2.8h0l-1,2.8Z" style="fill:#192332"/><path d="M51.59,40.09l.35-.09a1.47,1.47,0,0,0,1.53,1.18c.85,0,1.39-.42,1.39-1.05s-.24-.89-1.46-1.28-1.66-.7-1.66-1.51A1.44,1.44,0,0,1,53.32,36a1.66,1.66,0,0,1,1.74,1.24l-.34.1a1.33,1.33,0,0,0-1.41-1c-.75,0-1.21.44-1.21,1s.34.85,1.54,1.24,1.57.75,1.57,1.55-.79,1.39-1.76,1.39A1.8,1.8,0,0,1,51.59,40.09Z" style="fill:#192332"/><path d="M57,36.15h.36l.88,3.37c.14.5.26,1,.33,1.36h0c.07-.33.19-.85.32-1.35l.84-3.38h.41L61,39.56c.12.49.24.94.31,1.32h0c.09-.4.2-.82.32-1.29l.89-3.44h.35l-1.4,5.26h-.36l-1.18-4.77h0l-1.19,4.77h-.36Z" style="fill:#192332"/><path d="M63.31,36.15h.36v5.26h-.36Z" style="fill:#192332"/><path d="M65.8,36.48H64.07v-.33h3.81v.33H66.15v4.93H65.8Z" style="fill:#192332"/><path d="M68.13,36.15h.36v2.31h3V36.15h.36v5.26h-.36V38.78h-3v2.62h-.36Z" style="fill:#192332"/><path d="M74.46,36.15h3v.33H74.81v2h2v.33h-2v2.63h-.36Z" style="fill:#192332"/><path d="M78.28,36.13h.42l1.86,5.28h-.38l-.61-1.76H77.39l-.61,1.76h-.36Zm1.18,3.2-1-2.8h0l-1,2.8Z" style="fill:#192332"/><path d="M80.83,36.15H82.6c1.24,0,1.76.55,1.76,1.33a1.21,1.21,0,0,1-1,1.21h0A1.31,1.31,0,0,1,84.54,40c0,.78-.51,1.42-1.78,1.42H80.83Zm1.73,2.39c.9,0,1.43-.33,1.43-1s-.44-1-1.41-1h-1.4v2.07Zm.22,2.54c1,0,1.4-.41,1.4-1.09s-.62-1.12-1.58-1.12H81.19v2.22Z" style="fill:#192332"/><path d="M84.88,36.15h1.71c1.14,0,1.77.5,1.77,1.36a1.33,1.33,0,0,1-1.29,1.39l1.36,2.51H88l-1.34-2.47H85.23v2.47h-.36Zm1.68,2.47c.91,0,1.44-.28,1.44-1.09s-.53-1.05-1.45-1.05H85.23v2.15Z" style="fill:#192332"/><path d="M88.81,36.15h.36v5.26h-.36Z" style="fill:#192332"/><path d="M89.83,38.75c0-1.52.83-2.7,2.14-2.7a1.84,1.84,0,0,1,1.85,1.59l-.34.08c-.25-.89-.67-1.35-1.52-1.35-1.07,0-1.78,1-1.78,2.37s.72,2.45,1.79,2.45a1.61,1.61,0,0,0,1.6-1.41l.33.08A2,2,0,0,1,92,41.5C90.65,41.5,89.83,40.38,89.83,38.75Z" style="fill:#192332"/><path d="M23.57,8.1V8a.32.32,0,0,0-.13-.23,1.22,1.22,0,0,0-.33-.2,2.61,2.61,0,0,0-.46-.15,2.4,2.4,0,0,0-.52-.06,2.45,2.45,0,0,0-1.06.23,2.56,2.56,0,0,0-.85.64,3,3,0,0,0-.56,1,3.45,3.45,0,0,0-.2,1.2,3.68,3.68,0,0,0,.45,1.8,4.5,4.5,0,0,0,1.24,1.42,6,6,0,0,0,1.87.93,7.91,7.91,0,0,0,2.34.33,7.4,7.4,0,0,0,2.29-.35,6.53,6.53,0,0,0,1.88-.94,4.73,4.73,0,0,0,1.28-1.38,3.24,3.24,0,0,0,.47-1.69,4,4,0,0,0-1.71-3L27.84,6.17a6.44,6.44,0,0,1-1.35-1.4,2.32,2.32,0,0,1-.41-1.27,1.89,1.89,0,0,1,.26-1,2.36,2.36,0,0,1,.74-.76,3.77,3.77,0,0,1,1.14-.49,5.71,5.71,0,0,1,1.46-.17A5,5,0,0,1,31,1.28a4.69,4.69,0,0,1,1.16.49,3.09,3.09,0,0,1,.82.69,1.25,1.25,0,0,1,.31.79.61.61,0,0,1-.2.48.72.72,0,0,1-.5.17,1.41,1.41,0,0,1-.41-.07,1.45,1.45,0,0,1-.39-.18l-.06,0s0,0,0,.06l-.07.08a.06.06,0,0,0,0,.05s0,.09.12.14l.38.13a1.49,1.49,0,0,0,.4.06,1.28,1.28,0,0,0,.86-.29.94.94,0,0,0,.34-.75,1.44,1.44,0,0,0-.3-.87,2.65,2.65,0,0,0-.82-.71A4.64,4.64,0,0,0,31.38,1,6.07,6.07,0,0,0,29.91.85a6.59,6.59,0,0,0-1.78.22,4.42,4.42,0,0,0-1.38.63,3,3,0,0,0-.89,1,2.49,2.49,0,0,0-.32,1.25,2.62,2.62,0,0,0,.12.8,3,3,0,0,0,.41.79,5.62,5.62,0,0,0,.74.84q.46.43,1.11.94l.75.59a12.2,12.2,0,0,1,1,.83,5,5,0,0,1,.65.75,2.88,2.88,0,0,1,.37.72,2.35,2.35,0,0,1,.12.73A2.87,2.87,0,0,1,30,12.82q-.17.2-.37.39a2.14,2.14,0,0,1-.31.26l-.24.17L29,13.7a.19.19,0,0,1-.1.09l-.09,0-.09.06-.12.06a5.07,5.07,0,0,1-1.29.51,6,6,0,0,1-1.48.19A6.53,6.53,0,0,1,24,14.36a8.47,8.47,0,0,1-1.82-.77A5.62,5.62,0,0,1,20.43,12a3.36,3.36,0,0,1-.61-2,2.62,2.62,0,0,1,.17-1,2.46,2.46,0,0,1,.47-.78,2.19,2.19,0,0,1,.7-.51A2,2,0,0,1,22,7.62a2.44,2.44,0,0,1,1.51.61l0-.12ZM35.77,7l-.19-.07h-.13a1.29,1.29,0,0,0-.85.52,2.91,2.91,0,0,0-.33.39.61.61,0,0,0-.13.26c0,.09.06.14.19.14l0,0,.51-.46.47-.41.33-.23L35.77,7ZM34,9.4l-.32,0-.38.1a7.1,7.1,0,0,0-.58.91,5.18,5.18,0,0,0-.84,2.39.9.9,0,0,0,.18.59.67.67,0,0,0,.54.22,3.32,3.32,0,0,0,1.7-.75,16.74,16.74,0,0,0,2.38-2.12l.3-.33.16-.17.06-.07v0c0-.08,0-.12-.09-.12a.12.12,0,0,0-.11.05l-.22.25a15.1,15.1,0,0,1-1.13,1.15,13.66,13.66,0,0,1-1.07.88,6.11,6.11,0,0,1-.91.57,1.63,1.63,0,0,1-.67.2q-.43,0-.43-.55a3.28,3.28,0,0,1,.3-1.23,12.77,12.77,0,0,1,1-1.85L34,9.4Zm4.05-.14a2.34,2.34,0,0,0-.38.12l-.34.16q-.19.29-.39.65t-.45.85q-.17.35-.33.7t-.26.65q-.11.3-.17.54a1.6,1.6,0,0,0-.06.35q0,.16.14.16a.32.32,0,0,0,.22-.12,9.71,9.71,0,0,1,1.26-1.21A19.22,19.22,0,0,1,39,10.91q.61-.39.94-.56a1.28,1.28,0,0,1,.51-.17q.2,0,.2.23a1.43,1.43,0,0,1,0,.18.88.88,0,0,1-.07.24l-.19.52a8.87,8.87,0,0,0-.28,1A3.61,3.61,0,0,0,40,13q0,.38.28.38a.24.24,0,0,0,.13,0,1,1,0,0,0,.19-.21l.28-.3q.17-.19.53-.52t.76-.68A9.36,9.36,0,0,1,43,11a6.53,6.53,0,0,1,.89-.55,1.5,1.5,0,0,1,.56-.19c.19,0,.29.1.29.3a.9.9,0,0,1,0,.2q0,.12-.14.51t-.14.66a3.23,3.23,0,0,0-.05.54,1,1,0,0,0,.21.66.72.72,0,0,0,.57.24,1.76,1.76,0,0,0,.75-.2,5.49,5.49,0,0,0,1-.65l.41-.33.48-.43.47-.46.4-.41.43-.48.21-.25a.18.18,0,0,0,0-.11A.06.06,0,0,0,49.3,10a.09.09,0,0,0-.08,0l-.2.22-.62.65q-.31.32-.73.7a11.43,11.43,0,0,1-1.3,1.06,1.59,1.59,0,0,1-.82.32q-.51,0-.51-.59a1.63,1.63,0,0,1,0-.2q0-.12,0-.29t.09-.43q.07-.26.15-.67a1.06,1.06,0,0,0,.07-.27,2.06,2.06,0,0,0,0-.24q0-.39-.43-.39a2,2,0,0,0-.67.15,6,6,0,0,0-.87.43,11.43,11.43,0,0,0-1,.66,12.63,12.63,0,0,0-1,.86l-.54.48-.16.14c0-.11,0-.2.06-.29l.06-.28q0-.15.08-.33l.12-.42a6.58,6.58,0,0,0,.22-.72,1.88,1.88,0,0,0,0-.35.43.43,0,0,0-.11-.3.35.35,0,0,0-.27-.12,2.21,2.21,0,0,0-.86.25,14.06,14.06,0,0,0-1.44.82q-.55.36-1,.71l-1,.74-.09.06a15.45,15.45,0,0,1,.64-1.49q.39-.8.8-1.5l.1-.16ZM51.26,7.94h-.47a.31.31,0,0,0-.14.08,1.52,1.52,0,0,0-.18.21l-.33.41a24.85,24.85,0,0,0-4.42,10.46l0,.2.59-.16a13.76,13.76,0,0,1,.28-1.67,19.07,19.07,0,0,1,.59-2,11.19,11.19,0,0,1,2.12-4q1.56-1.75,2.67-1.75a.69.69,0,0,1,.74.75,2.1,2.1,0,0,1-.25.93,5,5,0,0,1-.67,1,3,3,0,0,1-.49.1,5.13,5.13,0,0,1-.6,0h-.51a1.36,1.36,0,0,1-.38-.07l-.23-.06h-.09a.31.31,0,0,0-.28.19,1,1,0,0,0-.1.49.64.64,0,0,0,.22.49.8.8,0,0,0,.56.2,1.88,1.88,0,0,0,.94-.28,5.52,5.52,0,0,0,1.09-.88l.48-.18.37-.15.32-.16.33-.19q.25-.13.51-.3t.51-.37q.25-.2.46-.39c.14-.13.26-.25.36-.36l.22-.23q.13-.13.13-.19T55.44,10h-.05l-.07.09a4.7,4.7,0,0,1-.48.52,7.49,7.49,0,0,1-.71.58l-.51.38-.46.29a3.83,3.83,0,0,1-.47.23q-.25.1-.54.19a6.43,6.43,0,0,0,.66-1.14,2.62,2.62,0,0,0,.24-1,.86.86,0,0,0-.23-.61.75.75,0,0,0-.57-.25,2,2,0,0,0-.81.2,4.23,4.23,0,0,0-.91.58l-.35.3-.37.34-.35.34-.29.3-.48.55a.71.71,0,0,0-.13.15q.13-.28.33-.62t.43-.72q.23-.38.49-.77l.52-.77.21-.28.16-.22.17-.23.25-.3.13-.16Zm-1.17,4.83h.81a3.29,3.29,0,0,0,.52,0,1.89,1.89,0,0,1-1.32.65q-.55,0-.55-.42a1,1,0,0,1,0-.13.62.62,0,0,1,.06-.17,2.36,2.36,0,0,0,.46.09ZM56,9.57,56.37,9l.19-.25.32-.43L57.14,8l.22-.32.22-.32.25-.4a18.91,18.91,0,0,0,1.37-2.43,4.14,4.14,0,0,0,.43-1.59.64.64,0,0,0-.13-.42.4.4,0,0,0-.32-.16,1.32,1.32,0,0,0-.94.62,10.4,10.4,0,0,0-1.15,1.78A21.23,21.23,0,0,0,56,7.24a13.34,13.34,0,0,0-.68,2.15,9.24,9.24,0,0,0-.22,2,3.6,3.6,0,0,0,.38,1.84,1.23,1.23,0,0,0,1.12.64,2.18,2.18,0,0,0,.84-.18,4.42,4.42,0,0,0,.95-.57,12.49,12.49,0,0,0,1.14-1q.62-.61,1.41-1.48l.32-.36a.17.17,0,0,0,0-.1c0-.07,0-.1-.09-.1s-.13.06-.22.19l-.2.23-.28.3-.33.33-.32.32a9.6,9.6,0,0,1-1.65,1.46,2.37,2.37,0,0,1-1.25.45,1,1,0,0,1-.93-.67,4.74,4.74,0,0,1-.31-1.94,4.48,4.48,0,0,1,0-.49q0-.2.07-.43A1.23,1.23,0,0,1,56,9.57Zm.28-1.86q.28-.91.65-1.85a12.48,12.48,0,0,1,.58-1.27,10.16,10.16,0,0,1,.59-1A3.85,3.85,0,0,1,58.6,3,.71.71,0,0,1,59,2.72q.29,0,.29.38a2.37,2.37,0,0,1-.14.67q-.14.43-.4,1.05a14.07,14.07,0,0,1-.84,1.56q-.51.83-1.25,1.9l-.45.61q-.17.23-.41.49a11.94,11.94,0,0,1,.39-1.67Zm5.48,1.7a1.57,1.57,0,0,0-.35.09,6.82,6.82,0,0,0-1,1.46A3,3,0,0,0,60,12.24a1.07,1.07,0,0,0,.3.79,1,1,0,0,0,.71.3,1.94,1.94,0,0,0,1.19-.45,6,6,0,0,0,1.23-1.42q-.07.3-.14.5a4.11,4.11,0,0,1-.18.44l-.23.58q-.17.43-.25.59l-.14.3-.38.22-.32.2-.33.17-.45.25-.47.28-.39.24-.9.51-.53.32a11.69,11.69,0,0,0-1.23.88,2.46,2.46,0,0,0-1,1.65.67.67,0,0,0,.71.71,3.12,3.12,0,0,0,1.81-.8,12.62,12.62,0,0,0,1.34-1.2,13.75,13.75,0,0,0,1.18-1.37l.25-.35.29-.41.27-.38.18-.28.29-.51a.68.68,0,0,1,.12-.19l.43-.3.35-.26.32-.25.35-.28q.49-.41,1-.88t.85-.84l.51-.57.19-.22s.06-.05.06-.13,0-.1-.09-.1-.08,0-.14.1q-.38.46-.85.95T65,12q-.49.45-1,.82t-.83.6l.06-.16a.13.13,0,0,0,0-.06l.22-.43a3.44,3.44,0,0,0,.18-.41l.19-.53q.1-.28.2-.59l.18-.58a6.38,6.38,0,0,0,.32-1.83,1.56,1.56,0,0,0,0-.22c0-.06,0-.15,0-.25L64,8.62a.21.21,0,0,0,0,.09v0a4.47,4.47,0,0,1-.26,1.46,5.93,5.93,0,0,1-.67,1.37,4.46,4.46,0,0,1-.91,1,1.58,1.58,0,0,1-1,.4.61.61,0,0,1-.47-.2.73.73,0,0,1-.18-.51,5.67,5.67,0,0,1,1.51-2.9l-.4,0Zm.65,4.8a10.09,10.09,0,0,1-1,1.63,13.46,13.46,0,0,1-1.27,1.49,8.63,8.63,0,0,1-1.29,1.09,2,2,0,0,1-1,.42.55.55,0,0,1-.4-.14.52.52,0,0,1-.15-.39,1.18,1.18,0,0,1,.18-.61A3,3,0,0,1,58,17a8.88,8.88,0,0,1,1-.78q.64-.42,1.55-1l.91-.54.71-.43.19-.1Z" style="fill:#192332;stroke:#192332;stroke-miterlimit:10"/><path d="M18.2,49.78H17.5c0,.75-.22,1.34-1.12,1.34s-3-2-6.38-2c-5.33,0-8.5,3.88-8.5,8.58,0,12.34,15.18,5,15.18,12.9,0,3.39-3,5.41-6.15,5.41-5,0-7.76-5.48-7.9-8H1.91V76h.71a1.26,1.26,0,0,1,1.27-1.34c1.64,0,2.91,2,6.86,2,6.38,0,9.66-4.21,9.66-9.58,0-12.3-15.17-5.44-15.17-12.71a4.45,4.45,0,0,1,4.59-4.59c5.33,0,7.35,5.11,7.68,7.12h.71V49.78ZM28.68,66.34V63.2c0-3,.52-4,2.12-4s2.13,1.45,2.13,3.06v4.1Zm11,.71a8.56,8.56,0,0,0-8.8-8.58c-5.37,0-9.54,3.73-9.54,9.21s4.18,9,9.84,9c4.29,0,6.86-2.05,8.35-6l-.71-.22c-1,2.68-3.43,5.29-6.45,5.29-2.27,0-3.65-1.08-3.65-4.88V67Zm6.3,9.21h1.64L52,64.66l4.88,11.6h1.64L64,62.12c.34-.86.82-2.27,2.2-2.27h.3v-.71H61.12v.71h.78c1,0,1.34.37,1.34,1a5.66,5.66,0,0,1-.45,2l-2.2,6.08h-.07l-3.39-9.06h1.34v-.71H48.63v.71H50l1.57,3.73-1.94,5.33h-.07l-3.39-9.06h1.34v-.71h-10v.71H39l6.9,16.41ZM65.82,76H76.63v-.71H74.58V58.47c-1.27.6-4.1.67-6.53.67H65.82v.71h2.05V75.32H65.82V76Zm1.94-23.3a3.47,3.47,0,1,0,3.47-3.47,3.49,3.49,0,0,0-3.47,3.47ZM76.14,76H87v-.71H84.91V64.47c0-2.16,2-4.62,3.65-4.62,1.45,0,1.83,1,1.83,2.39V75.32H88.34V76H99.15v-.71H97.1V64.47c0-4.25-2.5-6-6.15-6a6.42,6.42,0,0,0-6,3.24h-.07V58.47c-1.27.6-4.1.67-6.52.67H76.14v.71H78.2V75.32H76.14V76ZM103,71.56c-1.3,0-1.79-.41-1.79-1,0-.78,2-2,2.91-2a17.8,17.8,0,0,0,4,.6c3.36,0,7.68-1.64,7.68-5.48a4.62,4.62,0,0,0-2.39-3.8,4.49,4.49,0,0,1,1.19-1.9,2.11,2.11,0,0,0,1.9,2.31,1.85,1.85,0,0,0,2.05-1.94,1.9,1.9,0,0,0-2.09-2c-1.79,0-3,1.6-3.65,3.17a9.25,9.25,0,0,0-5.11-1c-3.58,0-7.72,1.86-7.72,5.11,0,2.31,1.6,3.69,3.43,4.44v.07a5.6,5.6,0,0,0-4,5.22A3.76,3.76,0,0,0,103,77.48v.07c-1.83.41-3.92,1.42-3.92,3.58,0,3.13,4,4.51,7.9,4.51,3.47,0,10.22-1.16,10.22-8.65,0-2.91-1.12-5.44-6.53-5.44Zm8.5,6c2.27,0,3.92.41,3.92,2.24,0,2.5-3.32,4.88-7.72,4.88-3.09,0-5.89-1.16-5.89-3.73A3.37,3.37,0,0,1,105,77.6Zm-5.74-15.77c0-1.42.67-2.65,2.09-2.65s2.09,1.23,2.09,2.65v4c0,1.42-.67,2.65-2.09,2.65s-2.09-1.23-2.09-2.65v-4Z" style="fill:#fff"/><path d="M18,78.8h3v.33H18.31v2h2v.33h-2v2.63H18Z" style="fill:#fff"/><path d="M21.43,78.8h1.71c1.14,0,1.77.5,1.77,1.36a1.33,1.33,0,0,1-1.29,1.39L25,84.06h-.41l-1.34-2.47H21.79v2.47h-.36Zm1.68,2.47c.91,0,1.44-.28,1.44-1.09s-.53-1.05-1.45-1.05H21.79v2.15Z" style="fill:#fff"/><path d="M25.43,78.8h3v.33H25.79v2h2v.33h-2v2.3h2.84v.33h-3.2Z" style="fill:#fff"/><path d="M28.71,82.74l.35-.09a1.47,1.47,0,0,0,1.53,1.18c.85,0,1.39-.42,1.39-1.05s-.24-.89-1.46-1.28-1.66-.7-1.66-1.51a1.44,1.44,0,0,1,1.58-1.3,1.67,1.67,0,0,1,1.74,1.24l-.34.1a1.33,1.33,0,0,0-1.41-1c-.75,0-1.21.44-1.21,1s.34.85,1.54,1.24,1.57.75,1.57,1.55-.79,1.39-1.76,1.39A1.8,1.8,0,0,1,28.71,82.74Z" style="fill:#fff"/><path d="M32.65,78.8H33v2.31h3V78.8h.36v5.26H36V81.43H33v2.62h-.36Z" style="fill:#fff"/><path d="M39.05,78.8h.36v5.26h-.36Z" style="fill:#fff"/><path d="M39.9,78.8h1.26a2.63,2.63,0,0,1,0,5.26H39.9Zm1.34,4.93c1.34,0,2.14-.71,2.14-2.3s-.8-2.3-2.15-2.3h-1v4.6Z" style="fill:#fff"/><path d="M44.1,78.8h3v.33H44.46v2h2v.33h-2v2.3H47.3v.33H44.1Z" style="fill:#fff"/><path d="M49.43,78.78h.42l1.86,5.28h-.38l-.61-1.76H48.54l-.61,1.76h-.36ZM50.61,82l-1-2.8h0l-1,2.8Z" style="fill:#fff"/><path d="M51.59,82.74l.35-.09a1.47,1.47,0,0,0,1.53,1.18c.85,0,1.39-.42,1.39-1.05s-.24-.89-1.46-1.28-1.66-.7-1.66-1.51a1.44,1.44,0,0,1,1.58-1.3,1.66,1.66,0,0,1,1.74,1.24l-.34.1a1.33,1.33,0,0,0-1.41-1c-.75,0-1.21.44-1.21,1s.34.85,1.54,1.24,1.57.75,1.57,1.55-.79,1.39-1.76,1.39A1.8,1.8,0,0,1,51.59,82.74Z" style="fill:#fff"/><path d="M57,78.8h.36l.88,3.37c.14.5.26,1,.33,1.36h0c.07-.33.19-.85.32-1.35l.84-3.38h.41L61,82.21c.12.49.24.94.31,1.32h0c.09-.4.2-.82.32-1.29l.89-3.44h.35l-1.4,5.26h-.36l-1.18-4.77h0l-1.19,4.77h-.36Z" style="fill:#fff"/><path d="M63.31,78.8h.36v5.26h-.36Z" style="fill:#fff"/><path d="M65.8,79.12H64.07V78.8h3.81v.33H66.15v4.93H65.8Z" style="fill:#fff"/><path d="M68.13,78.8h.36v2.31h3V78.8h.36v5.26h-.36V81.43h-3v2.62h-.36Z" style="fill:#fff"/><path d="M74.46,78.8h3v.33H74.81v2h2v.33h-2v2.63h-.36Z" style="fill:#fff"/><path d="M78.28,78.78h.42l1.86,5.28h-.38l-.61-1.76H77.39l-.61,1.76h-.36ZM79.46,82l-1-2.8h0l-1,2.8Z" style="fill:#fff"/><path d="M80.83,78.8H82.6c1.24,0,1.76.55,1.76,1.33a1.21,1.21,0,0,1-1,1.21h0a1.31,1.31,0,0,1,1.2,1.28c0,.78-.51,1.42-1.78,1.42H80.83Zm1.73,2.39c.9,0,1.43-.33,1.43-1s-.44-1-1.41-1h-1.4v2.07Zm.22,2.54c1,0,1.4-.41,1.4-1.09s-.62-1.12-1.58-1.12H81.19v2.22Z" style="fill:#fff"/><path d="M84.88,78.8h1.71c1.14,0,1.77.5,1.77,1.36a1.33,1.33,0,0,1-1.29,1.39l1.36,2.51H88l-1.34-2.47H85.23v2.47h-.36Zm1.68,2.47c.91,0,1.44-.28,1.44-1.09s-.53-1.05-1.45-1.05H85.23v2.15Z" style="fill:#fff"/><path d="M88.81,78.8h.36v5.26h-.36Z" style="fill:#fff"/><path d="M89.83,81.4c0-1.52.83-2.7,2.14-2.7a1.84,1.84,0,0,1,1.85,1.59l-.34.08C93.23,79.48,92.81,79,92,79c-1.07,0-1.78,1-1.78,2.37s.72,2.45,1.79,2.45a1.61,1.61,0,0,0,1.6-1.41l.33.08A2,2,0,0,1,92,84.15C90.65,84.15,89.83,83,89.83,81.4Z" style="fill:#fff"/><path d="M23.57,50.75v-.07a.32.32,0,0,0-.13-.23,1.22,1.22,0,0,0-.33-.2,2.61,2.61,0,0,0-.46-.15,2.4,2.4,0,0,0-.52-.06,2.45,2.45,0,0,0-1.06.23,2.56,2.56,0,0,0-.85.64,3,3,0,0,0-.56,1,3.45,3.45,0,0,0-.2,1.2,3.68,3.68,0,0,0,.45,1.8,4.5,4.5,0,0,0,1.24,1.42,6,6,0,0,0,1.87.93,7.91,7.91,0,0,0,2.34.33,7.4,7.4,0,0,0,2.29-.35,6.53,6.53,0,0,0,1.88-.94,4.73,4.73,0,0,0,1.28-1.38,3.24,3.24,0,0,0,.47-1.69,4,4,0,0,0-1.71-3l-1.74-1.41a6.44,6.44,0,0,1-1.35-1.4,2.32,2.32,0,0,1-.41-1.27,1.89,1.89,0,0,1,.26-1,2.36,2.36,0,0,1,.74-.76,3.77,3.77,0,0,1,1.14-.49,5.71,5.71,0,0,1,1.46-.17,5,5,0,0,1,1.35.18,4.69,4.69,0,0,1,1.16.49,3.09,3.09,0,0,1,.82.69,1.25,1.25,0,0,1,.31.79.61.61,0,0,1-.2.48.72.72,0,0,1-.5.17,1.41,1.41,0,0,1-.41-.07,1.45,1.45,0,0,1-.39-.18l-.06,0s0,0,0,.06l-.07.08a.06.06,0,0,0,0,.05s0,.09.12.14l.38.13a1.49,1.49,0,0,0,.4.06,1.28,1.28,0,0,0,.86-.29.94.94,0,0,0,.34-.75,1.44,1.44,0,0,0-.3-.87,2.65,2.65,0,0,0-.82-.71,4.64,4.64,0,0,0-1.22-.48,6.07,6.07,0,0,0-1.48-.17,6.59,6.59,0,0,0-1.78.22,4.42,4.42,0,0,0-1.38.63,3,3,0,0,0-.89,1,2.49,2.49,0,0,0-.32,1.25,2.62,2.62,0,0,0,.12.8,3,3,0,0,0,.41.79,5.62,5.62,0,0,0,.74.84q.46.43,1.11.94l.75.59a12.2,12.2,0,0,1,1,.83,5,5,0,0,1,.65.75,2.88,2.88,0,0,1,.37.72,2.35,2.35,0,0,1,.12.73A2.87,2.87,0,0,1,30,55.47q-.17.2-.37.39a2.14,2.14,0,0,1-.31.26l-.24.17-.09.07a.19.19,0,0,1-.1.09l-.09,0-.09.06-.12.06a5.07,5.07,0,0,1-1.29.51,6,6,0,0,1-1.48.19A6.53,6.53,0,0,1,24,57a8.47,8.47,0,0,1-1.82-.77,5.62,5.62,0,0,1-1.77-1.57,3.36,3.36,0,0,1-.61-2,2.62,2.62,0,0,1,.17-1,2.46,2.46,0,0,1,.47-.78,2.19,2.19,0,0,1,.7-.51,2,2,0,0,1,.87-.19,2.44,2.44,0,0,1,1.51.61l0-.12Zm12.19-1.14-.19-.07h-.13a1.29,1.29,0,0,0-.85.52,2.91,2.91,0,0,0-.33.39.61.61,0,0,0-.13.26c0,.09.06.14.19.14l0,0,.51-.46.47-.41.33-.23.09-.09ZM34,52l-.32,0-.38.1a7.1,7.1,0,0,0-.58.91,5.18,5.18,0,0,0-.84,2.39.9.9,0,0,0,.18.59.67.67,0,0,0,.54.22,3.32,3.32,0,0,0,1.7-.75,16.74,16.74,0,0,0,2.38-2.12l.3-.33.16-.17.06-.07v0c0-.08,0-.12-.09-.12a.12.12,0,0,0-.11.05l-.22.25a15.1,15.1,0,0,1-1.13,1.15,13.66,13.66,0,0,1-1.07.88,6.11,6.11,0,0,1-.91.57,1.63,1.63,0,0,1-.67.2q-.43,0-.43-.55a3.28,3.28,0,0,1,.3-1.23,12.77,12.77,0,0,1,1-1.85L34,52Zm4.05-.14a2.34,2.34,0,0,0-.38.12l-.34.16q-.19.29-.39.65t-.45.85q-.17.35-.33.7t-.26.65q-.11.3-.17.54a1.6,1.6,0,0,0-.06.35q0,.16.14.16a.32.32,0,0,0,.22-.12,9.71,9.71,0,0,1,1.26-1.21A19.22,19.22,0,0,1,39,53.56q.61-.39.94-.56a1.28,1.28,0,0,1,.51-.17q.2,0,.2.23a1.43,1.43,0,0,1,0,.18.88.88,0,0,1-.07.24L40.4,54a8.87,8.87,0,0,0-.28,1,3.61,3.61,0,0,0-.1.71q0,.38.28.38a.24.24,0,0,0,.13,0,1,1,0,0,0,.19-.21l.28-.3q.17-.19.53-.52t.76-.68a9.36,9.36,0,0,1,.85-.62,6.53,6.53,0,0,1,.89-.55,1.5,1.5,0,0,1,.56-.19c.19,0,.29.1.29.3a.9.9,0,0,1,0,.2q0,.12-.14.51t-.14.66a3.23,3.23,0,0,0-.05.54,1,1,0,0,0,.21.66.72.72,0,0,0,.57.24,1.76,1.76,0,0,0,.75-.2,5.49,5.49,0,0,0,1-.65l.41-.33.48-.43.47-.46.4-.41.43-.48.21-.25a.18.18,0,0,0,0-.11.06.06,0,0,0-.07-.07.09.09,0,0,0-.08,0l-.2.22-.62.65q-.31.32-.73.7a11.43,11.43,0,0,1-1.3,1.06,1.59,1.59,0,0,1-.82.32q-.51,0-.51-.59a1.63,1.63,0,0,1,0-.2q0-.12,0-.29t.09-.43q.07-.26.15-.67a1.06,1.06,0,0,0,.07-.27,2.06,2.06,0,0,0,0-.24q0-.39-.43-.39a2,2,0,0,0-.67.15,6,6,0,0,0-.87.43,11.43,11.43,0,0,0-1,.66,12.63,12.63,0,0,0-1,.86l-.54.48-.16.14c0-.11,0-.2.06-.29l.06-.28q0-.15.08-.33l.12-.42a6.58,6.58,0,0,0,.22-.72,1.88,1.88,0,0,0,0-.35.43.43,0,0,0-.11-.3.35.35,0,0,0-.27-.12,2.21,2.21,0,0,0-.86.25,14.06,14.06,0,0,0-1.44.82q-.55.36-1,.71l-1,.74-.09.06a15.45,15.45,0,0,1,.64-1.49q.39-.8.8-1.5l.1-.16Zm13.17-1.32h-.47a.31.31,0,0,0-.14.08,1.52,1.52,0,0,0-.18.21l-.33.41a24.85,24.85,0,0,0-4.42,10.46l0,.2.59-.16a13.76,13.76,0,0,1,.28-1.67,19.07,19.07,0,0,1,.59-2,11.19,11.19,0,0,1,2.12-4q1.56-1.75,2.67-1.75a.69.69,0,0,1,.74.75,2.1,2.1,0,0,1-.25.93,5,5,0,0,1-.67,1,3,3,0,0,1-.49.1,5.13,5.13,0,0,1-.6,0h-.51a1.36,1.36,0,0,1-.38-.07l-.23-.06h-.09a.31.31,0,0,0-.28.19,1,1,0,0,0-.1.49.64.64,0,0,0,.22.49.8.8,0,0,0,.56.2,1.88,1.88,0,0,0,.94-.28,5.52,5.52,0,0,0,1.09-.88l.48-.18.37-.15.32-.16.33-.19q.25-.13.51-.3t.51-.37q.25-.2.46-.39c.14-.13.26-.25.36-.36l.22-.23q.13-.13.13-.19t-.12-.09h-.05l-.07.09a4.7,4.7,0,0,1-.48.52,7.49,7.49,0,0,1-.71.58l-.51.38-.46.29a3.83,3.83,0,0,1-.47.23q-.25.1-.54.19a6.43,6.43,0,0,0,.66-1.14,2.62,2.62,0,0,0,.24-1,.86.86,0,0,0-.23-.61.75.75,0,0,0-.57-.25,2,2,0,0,0-.81.2,4.23,4.23,0,0,0-.91.58l-.35.3-.37.34-.35.34-.29.3-.48.55a.71.71,0,0,0-.13.15q.13-.28.33-.62t.43-.72q.23-.38.49-.77l.52-.77.21-.28.16-.22.17-.23.25-.3.13-.16Zm-1.17,4.83h.81a3.29,3.29,0,0,0,.52,0A1.89,1.89,0,0,1,50.1,56q-.55,0-.55-.42a1,1,0,0,1,0-.13.62.62,0,0,1,.06-.17,2.36,2.36,0,0,0,.46.09ZM56,52.22l.42-.54.19-.25.32-.43.26-.38.22-.32.22-.32.25-.4a18.91,18.91,0,0,0,1.37-2.43,4.14,4.14,0,0,0,.43-1.59.64.64,0,0,0-.13-.42.4.4,0,0,0-.32-.16,1.32,1.32,0,0,0-.94.62,10.4,10.4,0,0,0-1.15,1.78A21.23,21.23,0,0,0,56,49.89,13.34,13.34,0,0,0,55.28,52a9.24,9.24,0,0,0-.22,2,3.6,3.6,0,0,0,.38,1.84,1.23,1.23,0,0,0,1.12.64,2.18,2.18,0,0,0,.84-.18,4.42,4.42,0,0,0,.95-.57,12.49,12.49,0,0,0,1.14-1q.62-.61,1.41-1.48l.32-.36a.17.17,0,0,0,0-.1c0-.07,0-.1-.09-.1s-.13.06-.22.19l-.2.23-.28.3-.33.33-.32.32a9.6,9.6,0,0,1-1.65,1.46,2.37,2.37,0,0,1-1.25.45,1,1,0,0,1-.93-.67,4.74,4.74,0,0,1-.31-1.94,4.48,4.48,0,0,1,0-.49q0-.2.07-.43a1.23,1.23,0,0,1,.17-.23Zm.28-1.86q.28-.91.65-1.85a12.48,12.48,0,0,1,.58-1.27,10.16,10.16,0,0,1,.59-1,3.85,3.85,0,0,1,.54-.65.71.71,0,0,1,.43-.23q.29,0,.29.38a2.37,2.37,0,0,1-.14.67q-.14.43-.4,1.05A14.07,14.07,0,0,1,57.94,49q-.51.83-1.25,1.9l-.45.61q-.17.23-.41.49a11.94,11.94,0,0,1,.39-1.67Zm5.48,1.7a1.57,1.57,0,0,0-.35.09,6.82,6.82,0,0,0-1,1.46A3,3,0,0,0,60,54.89a1.07,1.07,0,0,0,.3.79A1,1,0,0,0,61,56a1.94,1.94,0,0,0,1.19-.45,6,6,0,0,0,1.23-1.42q-.07.3-.14.5a4.11,4.11,0,0,1-.18.44l-.23.58q-.17.43-.25.59l-.14.3-.38.22-.32.2-.33.17-.45.25-.47.28-.39.24-.9.51-.53.32a11.69,11.69,0,0,0-1.23.88,2.46,2.46,0,0,0-1,1.65.67.67,0,0,0,.71.71,3.12,3.12,0,0,0,1.81-.8A12.62,12.62,0,0,0,60.38,60a13.75,13.75,0,0,0,1.18-1.37l.25-.35.29-.41.27-.38.18-.28.29-.51a.68.68,0,0,1,.12-.19l.43-.3.35-.26.32-.25.35-.28q.49-.41,1-.88t.85-.84l.51-.57.19-.22s.06-.05.06-.13,0-.1-.09-.1-.08,0-.14.1q-.38.46-.85.95t-1,.93q-.49.45-1,.82t-.83.6l.06-.16a.13.13,0,0,0,0-.06l.22-.43a3.44,3.44,0,0,0,.18-.41l.19-.53q.1-.28.2-.59l.18-.58a6.38,6.38,0,0,0,.32-1.83,1.56,1.56,0,0,0,0-.22c0-.06,0-.15,0-.25l-.45.26a.21.21,0,0,0,0,.09v0a4.47,4.47,0,0,1-.26,1.46,5.93,5.93,0,0,1-.67,1.37,4.46,4.46,0,0,1-.91,1,1.58,1.58,0,0,1-1,.4.61.61,0,0,1-.47-.2.73.73,0,0,1-.18-.51A5.67,5.67,0,0,1,62.11,52l-.4,0Zm.65,4.8a10.09,10.09,0,0,1-1,1.63A13.46,13.46,0,0,1,60.09,60a8.63,8.63,0,0,1-1.29,1.09,2,2,0,0,1-1,.42.55.55,0,0,1-.4-.14.52.52,0,0,1-.15-.39,1.18,1.18,0,0,1,.18-.61,3,3,0,0,1,.58-.66,8.88,8.88,0,0,1,1-.78q.64-.42,1.55-1l.91-.54.71-.43.19-.1Z" style="fill:#fff;stroke:#fff;stroke-miterlimit:10"/></g></svg>