<svg xmlns="http://www.w3.org/2000/svg" width="120" height="86" viewBox="0 0 120 86"><title>TodaysQuilterLogo</title><g id="Layer_4" data-name="Layer 4"><path d="M120,30.87a.23.23,0,0,0-.2-.15.24.24,0,0,0-.18.08,1.91,1.91,0,0,1-.58.34,2.27,2.27,0,0,1-.83.14,2.72,2.72,0,0,1-1.75-.64,8.93,8.93,0,0,1-1.67-2L111,23.08a6.2,6.2,0,0,0,3.51-1.74,4.36,4.36,0,0,0,1.22-3.07,4.3,4.3,0,0,0-.49-2.1,4.2,4.2,0,0,0-1.35-1.47,5.9,5.9,0,0,0-2-.84,9,9,0,0,0-2.51-.19l-1.3.05-1,.05-.82,0h-.81q-.86,0-1.66,0l-1.66-.09a.23.23,0,0,0-.23.06.29.29,0,0,0-.08.19.32.32,0,0,0,.08.21.28.28,0,0,0,.23.09,1.83,1.83,0,0,1,1.5.54,3.36,3.36,0,0,1,.44,2V29a5.83,5.83,0,0,1-.11,1.27,1.78,1.78,0,0,1-.37.78,1.32,1.32,0,0,1-.63.4,3.18,3.18,0,0,1-.91.11q-.33,0-.33.28a.29.29,0,0,0,.08.19.32.32,0,0,0,.25.09l1.78-.09q1,0,1.78,0t1.85,0l1.8.09q.33,0,.33-.28t-.35-.28a4.52,4.52,0,0,1-1.08-.11,1.56,1.56,0,0,1-.74-.4,1.75,1.75,0,0,1-.43-.79,4.85,4.85,0,0,1-.14-1.26V23.39a5.73,5.73,0,0,0,.67.06h.62l3.5,5.36a15.16,15.16,0,0,0,1,1.42,7.33,7.33,0,0,0,1.12,1.11,4.55,4.55,0,0,0,1.3.72,4.62,4.62,0,0,0,1.56.25,5.89,5.89,0,0,0,1.85-.3,3,3,0,0,0,1.37-.83A.29.29,0,0,0,120,30.87Zm-11.06-8q-.48,0-1.06,0l-1-.09V14.52q.25-.08.76-.18a7.09,7.09,0,0,1,1.33-.1,3.72,3.72,0,0,1,4,4,7.11,7.11,0,0,1-.29,2.19,3.5,3.5,0,0,1-.82,1.41,2.9,2.9,0,0,1-1.27.74A5.94,5.94,0,0,1,108.92,22.83Z" style="fill:#192332;stroke:#192332;stroke-width:0.25px"/><path d="M99.55,32.08a.63.63,0,0,0,.58-.24,1.3,1.3,0,0,0,.13-.74q0-.48,0-.84V28.8q0-.38,0-.88,0-.3-.28-.3a.28.28,0,0,0-.19.08.28.28,0,0,0-.09.23A4,4,0,0,1,99,30.55a2.4,2.4,0,0,1-1.91.82H93.35a1.92,1.92,0,0,1-1.61-.54,3.25,3.25,0,0,1-.4-1.88V22.83q1.13,0,2.17.05l1.81.08q.93,0,1.54.08a1,1,0,0,1,1,.72,4.47,4.47,0,0,1,.25,1.57.28.28,0,0,0,.09.23.32.32,0,0,0,.21.08.24.24,0,0,0,.28-.28V19.79a.25.25,0,0,0-.09-.2.32.32,0,0,0-.21-.08.28.28,0,0,0-.19.08.25.25,0,0,0-.09.2,4.62,4.62,0,0,1-.21,1.5A.94.94,0,0,1,97,22l-1.86.1-1.81.1q-1,.05-1.94.05V14.37H96.7a2.1,2.1,0,0,1,2,.92,5.09,5.09,0,0,1,.53,2.53.25.25,0,0,0,.09.2.28.28,0,0,0,.19.08.24.24,0,0,0,.28-.28q0-.53,0-.93t0-.78v-.79q0-.42,0-.94a1.05,1.05,0,0,0-.06-.52q-.09-.19-.52-.19H86.61q-.3,0-.3.28a.28.28,0,0,0,.08.19.28.28,0,0,0,.23.09,1.92,1.92,0,0,1,1.51.52,3.11,3.11,0,0,1,.45,2V29A8.2,8.2,0,0,1,88.51,30a2,2,0,0,1-.28.81,1.34,1.34,0,0,1-.62.52,2.83,2.83,0,0,1-1.11.18q-.3,0-.3.28a.29.29,0,0,0,.08.19.28.28,0,0,0,.23.09Z" style="fill:#192332;stroke:#192332;stroke-width:0.25px"/><path d="M75.82,29a4.81,4.81,0,0,1-.14,1.27,1.82,1.82,0,0,1-.42.78,1.48,1.48,0,0,1-.68.4,3.46,3.46,0,0,1-.93.11q-.33,0-.33.28a.29.29,0,0,0,.08.19.32.32,0,0,0,.25.09l1.8-.09q1,0,1.8,0t1.83,0l1.88.09a.24.24,0,0,0,.28-.28.29.29,0,0,0-.08-.19.28.28,0,0,0-.23-.09,4.47,4.47,0,0,1-1-.1A1.6,1.6,0,0,1,79.2,31a1.69,1.69,0,0,1-.45-.78A4.67,4.67,0,0,1,78.59,29V14.67h2.29a5.11,5.11,0,0,1,1.46.18,2.25,2.25,0,0,1,1,.55,2.63,2.63,0,0,1,.59.94,6,6,0,0,1,.31,1.32q.05.35.3.35a.2.2,0,0,0,.2-.11.65.65,0,0,0,.05-.26q-.05-1-.05-1.83t0-1.7q0-.3-.16-.39a.94.94,0,0,0-.44-.09q-1.84.05-3.6.06H73.88q-1.76,0-3.6-.06a.93.93,0,0,0-.44.09q-.16.09-.16.39,0,.81,0,1.69t-.05,1.84a.64.64,0,0,0,.05.26.2.2,0,0,0,.2.11q.25,0,.3-.35a6,6,0,0,1,.31-1.32,2.62,2.62,0,0,1,.59-.94,2.25,2.25,0,0,1,1-.55,5.14,5.14,0,0,1,1.45-.18h2.29Z" style="fill:#192332;stroke:#192332;stroke-width:0.25px"/><path d="M63.2,16.79a5.69,5.69,0,0,1,.13-1.33,1.64,1.64,0,0,1,.4-.78,1.37,1.37,0,0,1,.72-.37,5.56,5.56,0,0,1,1.07-.09.28.28,0,0,0,.3-.28q0-.28-.33-.28l-1.89.09q-1,0-1.79,0t-1.67,0l-1.65-.09a.23.23,0,0,0-.23.06.32.32,0,0,0-.08.21.29.29,0,0,0,.08.19.28.28,0,0,0,.23.09,1.92,1.92,0,0,1,1.51.52,3.11,3.11,0,0,1,.45,2V29A8.09,8.09,0,0,1,60.4,30a2,2,0,0,1-.28.81,1.34,1.34,0,0,1-.62.52,2.82,2.82,0,0,1-1.11.18q-.3,0-.3.28a.29.29,0,0,0,.08.19.28.28,0,0,0,.23.09H71q.43,0,.5-.2a2.84,2.84,0,0,0,.13-.48q.13-.93.25-1.69l.3-1.79a.23.23,0,0,0-.06-.23.32.32,0,0,0-.21-.08q-.23,0-.28.3a5.05,5.05,0,0,1-1.11,2.57,2.7,2.7,0,0,1-2.09.88H65.24a2,2,0,0,1-1.62-.54A3.17,3.17,0,0,1,63.2,29Z" style="fill:#192332;stroke:#192332;stroke-width:0.25px"/><path d="M44.29,25.93a6.61,6.61,0,0,1-.53,2.86,4.48,4.48,0,0,1-1.35,1.7,4.69,4.69,0,0,1-1.76.82,8,8,0,0,1-1.78.21,5.84,5.84,0,0,1-2.2-.37,3.51,3.51,0,0,1-1.45-1.06,4.25,4.25,0,0,1-.79-1.73A10.54,10.54,0,0,1,34.19,26V16.79a4.43,4.43,0,0,1,.16-1.33,1.85,1.85,0,0,1,.45-.78,1.42,1.42,0,0,1,.68-.37,4,4,0,0,1,.87-.09.28.28,0,0,0,.23-.09.28.28,0,0,0,.08-.19q0-.28-.33-.28l-1.79.08q-.93.05-1.74.05t-1.69-.05l-1.64-.08q-.3,0-.3.25a.32.32,0,0,0,.08.21.28.28,0,0,0,.23.09,1.83,1.83,0,0,1,1.5.54,3.36,3.36,0,0,1,.44,2v9.09a6.17,6.17,0,0,0,1.89,4.8,8,8,0,0,0,5.57,1.73,7.85,7.85,0,0,0,2.34-.35,5.32,5.32,0,0,0,2-1.13,5.67,5.67,0,0,0,1.4-2,7.43,7.43,0,0,0,.53-3V16.84a4.56,4.56,0,0,1,.16-1.35,2,2,0,0,1,.44-.81,1.3,1.3,0,0,1,.67-.38,4,4,0,0,1,.87-.09.28.28,0,0,0,.23-.09.29.29,0,0,0,.08-.19q0-.28-.33-.28l-1.41.09q-.58,0-1.13,0l-1.15,0-1.45-.09a.23.23,0,0,0-.23.06.29.29,0,0,0-.08.19.32.32,0,0,0,.08.21.28.28,0,0,0,.23.09,2.15,2.15,0,0,1,1.61.57,2.93,2.93,0,0,1,.55,2.05Z" style="fill:#192332;stroke:#192332;stroke-width:0.25px"/><path d="M54.09,16.79a4.43,4.43,0,0,1,.16-1.33,1.85,1.85,0,0,1,.45-.78,1.42,1.42,0,0,1,.68-.37,4,4,0,0,1,.87-.09.28.28,0,0,0,.23-.09.28.28,0,0,0,.08-.19c0-.18-.11-.28-.33-.28l-1.8.09q-.92,0-1.73,0t-1.69,0l-1.64-.09q-.3,0-.3.25a.32.32,0,0,0,.08.21.28.28,0,0,0,.23.09,1.83,1.83,0,0,1,1.5.54,3.36,3.36,0,0,1,.44,2V29a5.83,5.83,0,0,1-.11,1.27,1.78,1.78,0,0,1-.37.78,1.32,1.32,0,0,1-.63.4,3.18,3.18,0,0,1-.91.11q-.33,0-.33.28a.28.28,0,0,0,.08.19.32.32,0,0,0,.25.09L51,32q.92,0,1.73,0t1.75,0l1.8.09a.24.24,0,0,0,.28-.28.29.29,0,0,0-.08-.19.28.28,0,0,0-.23-.09,4.14,4.14,0,0,1-1-.1,1.43,1.43,0,0,1-.69-.38,1.64,1.64,0,0,1-.4-.78A5.55,5.55,0,0,1,54.09,29Z" style="fill:#192332;stroke:#192332;stroke-width:0.25px"/><path d="M6.79,33.09A14.4,14.4,0,0,0,4,34.25q-.44.23-.22.44t.62,0a15.55,15.55,0,0,1,4.11-1.44,22.79,22.79,0,0,1,4.51-.44,28.07,28.07,0,0,1,3.41.21q1.68.21,3.33.54t3.25.76l3.21.87q1.64.44,3.35.87t3.47.76q1.76.34,3.59.54a33.55,33.55,0,0,0,3.75.21,38.57,38.57,0,0,0,6.25-.47,38.35,38.35,0,0,0,5.07-1.16,39,39,0,0,0,4.61-1.59c.19-.1.23-.21.12-.34s-.27-.13-.48,0c-1.07.67-5,1.2-6.55,1.43s-3.15.4-4.71.48-3,.13-4.27.13a38.07,38.07,0,0,1-6.27-.5q-3-.5-5.91-1.17l-5.55-1.23c-1.86-.41-5.67-.85-5.67-.85a33.17,33.17,0,0,0-7.14.06,31.61,31.61,0,0,0-3.1.74" style="fill:#192332;stroke:#192332;stroke-miterlimit:10;stroke-width:0.8310000000000001px"/><path d="M76.55,12a3,3,0,0,0,1-.45,2.29,2.29,0,0,0,.71-.8,2.41,2.41,0,0,0,.26-1.17,2,2,0,0,0-.37-1.24,3.29,3.29,0,0,0-.92-.83A7.26,7.26,0,0,0,76,7q-.64-.25-1.2-.51a3.71,3.71,0,0,1-.92-.61A1.13,1.13,0,0,1,73.56,5a1.29,1.29,0,0,1,.17-.68,1.56,1.56,0,0,1,.45-.48,2,2,0,0,1,.64-.29,2.89,2.89,0,0,1,.74-.1,2.15,2.15,0,0,1,.68.11,1.7,1.7,0,0,1,.57.32,1.6,1.6,0,0,1,.41.55,2.29,2.29,0,0,1,.19.79c0,.1,0,.14.13.14a.12.12,0,0,0,.13-.13q0-.25,0-.43V4.14c0-.1,0-.2,0-.31a.24.24,0,0,0-.05-.2.47.47,0,0,0-.15-.1l-.35-.14a3.91,3.91,0,0,0-.46-.14l-.53-.1a3.87,3.87,0,0,0-.57,0,3.3,3.3,0,0,0-1.13.19,2.9,2.9,0,0,0-.89.5,2.36,2.36,0,0,0-.59.74,2,2,0,0,0-.22.89,2.3,2.3,0,0,0,.21,1,2.51,2.51,0,0,0,.54.74,3.35,3.35,0,0,0,.77.53q.44.22.89.41L76,8.5a4,4,0,0,1,.77.41,2.07,2.07,0,0,1,.54.54,1.32,1.32,0,0,1,.21.75,1.42,1.42,0,0,1-.19.74,1.53,1.53,0,0,1-.49.51,2.25,2.25,0,0,1-.7.29,3.39,3.39,0,0,1-.8.1,2.52,2.52,0,0,1-1.08-.2,2,2,0,0,1-1.08-1.17,3.09,3.09,0,0,1-.16-.68c0-.09-.06-.13-.13-.13s-.13,0-.13.14q0,.38,0,.73t0,.74a.28.28,0,0,0,.14.26l.33.18a3.26,3.26,0,0,0,.51.2,5.82,5.82,0,0,0,.7.17,5,5,0,0,0,.9.07A4.72,4.72,0,0,0,76.55,12" style="fill:#192332"/><path d="M71.52,5a1.55,1.55,0,0,0,.33-.95,1.14,1.14,0,0,0-.2-.68.66.66,0,0,0-.57-.28.58.58,0,0,0-.42.16.52.52,0,0,0-.17.39.45.45,0,0,0,.5.51h.24a.16.16,0,0,1,.13.06.23.23,0,0,1,0,.14,1.1,1.1,0,0,1-.2.6,1.28,1.28,0,0,1-.63.48q-.16.06-.11.16a.1.1,0,0,0,.14.07,1.87,1.87,0,0,0,.9-.65" style="fill:#192332"/><path d="M68.73,4.37a1.7,1.7,0,0,1,.52-.63,1.2,1.2,0,0,1,.63-.2.19.19,0,0,0,.14,0,.14.14,0,0,0,0-.1.15.15,0,0,0,0-.11.16.16,0,0,0-.14,0l-.56,0H68.09l-.71,0a.16.16,0,0,0-.14,0,.14.14,0,0,0,0,.1.15.15,0,0,0,0,.11.19.19,0,0,0,.14,0,1.09,1.09,0,0,1,.83.26q.21.25,0,.75l-.33.63-.41.74L67,6.71l-.44.75L66,6.65l-.54-.86L65,5l-.37-.62q-.23-.37,0-.6a1,1,0,0,1,.73-.23q.17,0,.17-.14a.15.15,0,0,0,0-.11.15.15,0,0,0-.13,0l-.87,0-.91,0-.77,0-.72,0q-.16,0-.16.13a.16.16,0,0,0,0,.11.14.14,0,0,0,.11,0,1.21,1.21,0,0,1,.36.07.92.92,0,0,1,.29.18,2,2,0,0,1,.26.3l.29.42q.44.67,1,1.5t1.24,2v2.57a1.41,1.41,0,0,1-.23,1,1,1,0,0,1-.74.24q-.16,0-.16.13a.14.14,0,0,0,0,.09.15.15,0,0,0,.12,0l.82,0,.82,0,.83,0,.86,0a.12.12,0,0,0,.13-.13.14.14,0,0,0,0-.09.13.13,0,0,0-.11,0,2,2,0,0,1-.47,0,.68.68,0,0,1-.33-.18.82.82,0,0,1-.2-.37,2.4,2.4,0,0,1-.07-.62V8Z" style="fill:#192332"/><path d="M63,11.77a.13.13,0,0,0-.11,0q-.77,0-1.2-1l-3-7.13c0-.1-.07-.19-.1-.27a.15.15,0,0,0-.15-.13c-.06,0-.1,0-.13.11l-.11.28L57,6.74,56.5,8,56,9.21l-.41,1-.28.66a1.44,1.44,0,0,1-.48.65,1.09,1.09,0,0,1-.63.2.17.17,0,0,0-.14,0,.15.15,0,0,0,0,.1.12.12,0,0,0,0,.1.21.21,0,0,0,.14,0l.57,0H56l.68,0a.19.19,0,0,0,.13,0,.13.13,0,0,0,0-.1.14.14,0,0,0,0-.1.19.19,0,0,0-.14,0,.9.9,0,0,1-.8-.29.69.69,0,0,1,0-.68l1-2.58h2.46l1.12,2.69a.57.57,0,0,1,0,.61.82.82,0,0,1-.69.25.14.14,0,0,0-.12,0,.17.17,0,0,0,0,.1.13.13,0,0,0,0,.1.17.17,0,0,0,.13,0l.45,0,.5,0h1l.65,0,.6,0a.13.13,0,0,0,.11,0,.12.12,0,0,0,0-.1A.21.21,0,0,0,63,11.77Zm-6-4,1.05-2.63,1.12,2.63Z" style="fill:#192332"/><path d="M54.47,6.81a4.16,4.16,0,0,0-.26-.92,4.34,4.34,0,0,0-.54-1,3.51,3.51,0,0,0-.91-.84,5,5,0,0,0-1.38-.6,7,7,0,0,0-1.93-.23l-.9,0-.9,0-.78,0-.79,0c-.1,0-.14,0-.14.12a.15.15,0,0,0,0,.1.13.13,0,0,0,.11,0,.87.87,0,0,1,.71.26,1.6,1.6,0,0,1,.21,1v5.78a2.77,2.77,0,0,1-.05.6.85.85,0,0,1-.17.37.62.62,0,0,1-.3.19,1.51,1.51,0,0,1-.43.05c-.1,0-.16,0-.16.13a.13.13,0,0,0,0,.09.15.15,0,0,0,.12,0l.81,0,.81,0q.43,0,.81,0t.81,0a7.08,7.08,0,0,0,2-.26A4.78,4.78,0,0,0,53,10.94a4,4,0,0,0,1.13-1.4,4.41,4.41,0,0,0,.42-2A5.16,5.16,0,0,0,54.47,6.81ZM52.91,9.06a4.09,4.09,0,0,1-.57,1.3,3.22,3.22,0,0,1-1,1,2.86,2.86,0,0,1-1.51.38,6.5,6.5,0,0,1-.71,0,5,5,0,0,1-.77-.14q0-2,0-3.95t0-3.94l.2,0,.28,0h.6a4.62,4.62,0,0,1,1.72.28,2.73,2.73,0,0,1,1.13.81A3.31,3.31,0,0,1,52.9,6a7,7,0,0,1,.19,1.71A5.76,5.76,0,0,1,52.91,9.06Z" style="fill:#192332"/><path d="M45.23,6a4.55,4.55,0,0,0-.82-1.46,4.22,4.22,0,0,0-1.35-1.06,4,4,0,0,0-1.85-.41,4,4,0,0,0-1.83.41A4.25,4.25,0,0,0,38,4.57,4.66,4.66,0,0,0,37.2,6a4.81,4.81,0,0,0-.29,1.62,5.16,5.16,0,0,0,.29,1.75,4.25,4.25,0,0,0,.85,1.44,4,4,0,0,0,1.35,1,4.33,4.33,0,0,0,1.8.36A4.23,4.23,0,0,0,43,11.8a4.15,4.15,0,0,0,1.35-1A4.28,4.28,0,0,0,45.2,9.4a5,5,0,0,0,.31-1.76A5,5,0,0,0,45.23,6ZM43.89,9.36a4.07,4.07,0,0,1-.51,1.33,2.47,2.47,0,0,1-.89.86,2.58,2.58,0,0,1-1.29.31,2.63,2.63,0,0,1-1.29-.29,2.42,2.42,0,0,1-.88-.84,3.92,3.92,0,0,1-.51-1.33,8.71,8.71,0,0,1-.16-1.75A9,9,0,0,1,38.51,6,4.22,4.22,0,0,1,39,4.7a2.65,2.65,0,0,1,.87-.93,2.42,2.42,0,0,1,1.35-.35,2.58,2.58,0,0,1,1.36.33,2.55,2.55,0,0,1,.89.91A4.08,4.08,0,0,1,43.92,6a9.28,9.28,0,0,1,.14,1.64A8.4,8.4,0,0,1,43.89,9.36Z" style="fill:#192332"/><path d="M32.13,10.52a2.29,2.29,0,0,1-.07.6.87.87,0,0,1-.2.37.7.7,0,0,1-.32.19,1.64,1.64,0,0,1-.44.05c-.1,0-.16,0-.16.13A.14.14,0,0,0,31,12a.15.15,0,0,0,.12,0L32,12l.86,0,.87,0,.89,0a.12.12,0,0,0,.13-.13.14.14,0,0,0,0-.09.13.13,0,0,0-.11,0,2.12,2.12,0,0,1-.47,0,.76.76,0,0,1-.35-.18.8.8,0,0,1-.22-.37,2.22,2.22,0,0,1-.07-.62V3.74h1.09a2.43,2.43,0,0,1,.69.08,1.08,1.08,0,0,1,.45.26,1.25,1.25,0,0,1,.28.45,2.86,2.86,0,0,1,.15.63q0,.17.14.17a.09.09,0,0,0,.1-.05.31.31,0,0,0,0-.13q0-.45,0-.87t0-.81c0-.1,0-.16-.08-.19a.45.45,0,0,0-.21,0l-1.71,0H31.21l-1.71,0a.45.45,0,0,0-.21,0q-.08,0-.08.19,0,.38,0,.8t0,.87a.31.31,0,0,0,0,.13.09.09,0,0,0,.1.05q.12,0,.14-.17a2.85,2.85,0,0,1,.15-.63,1.25,1.25,0,0,1,.28-.45,1.07,1.07,0,0,1,.46-.26A2.44,2.44,0,0,1,31,3.74h1.09Z" style="fill:#192332"/><path d="M26.86,12.62a14.83,14.83,0,0,0-2.65-4.75,13.63,13.63,0,0,0-4.35-3.44,13,13,0,0,0-6-1.32A12.82,12.82,0,0,0,8,4.43,13.74,13.74,0,0,0,3.61,7.85,15.17,15.17,0,0,0,.93,12.58,15.75,15.75,0,0,0,0,17.85a16.89,16.89,0,0,0,.95,5.7,13.86,13.86,0,0,0,2.74,4.67,13,13,0,0,0,4.37,3.17,13.92,13.92,0,0,0,5.82,1.17,13.59,13.59,0,0,0,5.72-1.17A13.42,13.42,0,0,0,24,28.24a14,14,0,0,0,2.8-4.67,16.47,16.47,0,0,0,1-5.72A16.25,16.25,0,0,0,26.86,12.62ZM22.55,23.44a13.27,13.27,0,0,1-1.64,4.32A8,8,0,0,1,18,30.56a8.29,8.29,0,0,1-4.17,1,8.45,8.45,0,0,1-4.15-1,7.83,7.83,0,0,1-2.84-2.72,12.81,12.81,0,0,1-1.64-4.32,28.52,28.52,0,0,1-.52-5.7,29.4,29.4,0,0,1,.44-5.18A13.79,13.79,0,0,1,6.67,8.3a8.6,8.6,0,0,1,2.82-3,7.79,7.79,0,0,1,4.35-1.15,8.29,8.29,0,0,1,4.41,1.09,8.26,8.26,0,0,1,2.86,3,13.3,13.3,0,0,1,1.53,4.36,30.39,30.39,0,0,1,.44,5.33A27.5,27.5,0,0,1,22.55,23.44Z" style="fill:#192332"/><path d="M117.55,35.66a1.67,1.67,0,0,1-.45.54.9.9,0,0,1-.55.22.4.4,0,0,1-.19,0,.23.23,0,0,1-.11-.11.49.49,0,0,1,0-.29,1.59,1.59,0,0,0,.77-.29.7.7,0,0,0,.35-.56q0-.29-.33-.29a1,1,0,0,0-.77.42,1.27,1.27,0,0,0-.37.82.51.51,0,0,0,.15.38.59.59,0,0,0,.43.15,1.14,1.14,0,0,0,.68-.24,1.56,1.56,0,0,0,.5-.64Zm-1-.39A.62.62,0,0,1,117,35s.08,0,.08.08a.61.61,0,0,1-.29.46,1.12,1.12,0,0,1-.54.26A1.56,1.56,0,0,1,116.6,35.27Z" style="fill:#192332"/><path d="M113,36.49a.49.49,0,0,0,.18,0,3,3,0,0,1,.47-.84q.32-.4.5-.4t.09.14a1.86,1.86,0,0,1-.15.55,4,4,0,0,0-.15.42s0,.06.09.08l.17,0,.1-.19a2.15,2.15,0,0,1,.14-.23,4.32,4.32,0,0,1,.34-.46.34.34,0,0,1,.22-.14c.07,0,.1,0,.1.13a1.15,1.15,0,0,1-.06.27,1.14,1.14,0,0,0-.06.3.35.35,0,0,0,.09.25.33.33,0,0,0,.25.1.59.59,0,0,0,.46-.24,2,2,0,0,0,.33-.56l-.08-.09q-.32.68-.59.68c-.07,0-.11,0-.11-.12a1.46,1.46,0,0,1,.07-.3,1.35,1.35,0,0,0,.07-.36.39.39,0,0,0-.07-.24.27.27,0,0,0-.23-.1q-.33,0-.64.46a1.24,1.24,0,0,0,.07-.36q0-.38-.28-.38t-.86.69a1.86,1.86,0,0,0,.06-.32.13.13,0,0,0,0-.1.16.16,0,0,0-.11,0,.36.36,0,0,0-.15,0c-.05,0-.09.05-.09.09l-.27,1.12s0,0,.1.07" style="fill:#192332"/><path d="M113.06,35.67a.55.55,0,0,1-.48.33.28.28,0,0,1-.13,0,1.42,1.42,0,0,0,.31-.75.38.38,0,0,0-.09-.26.35.35,0,0,0-.27-.1.4.4,0,0,0-.32.13.63.63,0,0,0-.14.34l-.14,0q-.19,0-.36.28a1.09,1.09,0,0,0-.17.57.52.52,0,0,0,.08.3.29.29,0,0,0,.26.12,1,1,0,0,0,.73-.44.74.74,0,0,0,.22,0,.56.56,0,0,0,.32-.11.74.74,0,0,0,.25-.32Zm-1.29.66c-.1,0-.15-.07-.15-.2a1.18,1.18,0,0,1,.11-.45.67.67,0,0,1,.2-.31.87.87,0,0,0,.26.65Q111.92,36.33,111.77,36.33Zm.53-.45a.54.54,0,0,1-.09-.2.88.88,0,0,1,0-.23.51.51,0,0,1,.08-.3.23.23,0,0,1,.18-.12c.08,0,.12.06.12.19A1.19,1.19,0,0,1,112.3,35.88Z" style="fill:#192332"/><path d="M111.42,35.64a1.76,1.76,0,0,1-.35.5.59.59,0,0,1-.36.21h0q-.11,0-.11-.14a1.06,1.06,0,0,1,.09-.32,1.09,1.09,0,0,0,.09-.38.49.49,0,0,0-.09-.3.34.34,0,0,0-.29-.13.57.57,0,0,0-.31.09.82.82,0,0,0-.24.24,2.52,2.52,0,0,0-.16.28q-.07.13-.11.26l-.05.14v0s0,0,0,0a2.09,2.09,0,0,1,.15-.74,2.1,2.1,0,0,0,.71-.78,1.93,1.93,0,0,0,.33-.88.47.47,0,0,0,0-.22.15.15,0,0,0-.13-.1q-.2,0-.53.53a6.55,6.55,0,0,0-.58,1.21,3.36,3.36,0,0,0-.25,1.07,1.21,1.21,0,0,0,0,.36c0,.09.07.14.14.14s.15-.06.22-.19a2.26,2.26,0,0,0,.19-.41,1.68,1.68,0,0,1,.21-.41.36.36,0,0,1,.28-.19q.16,0,.16.19a1.42,1.42,0,0,1-.06.32,1.41,1.41,0,0,0-.06.32.29.29,0,0,0,.09.22.36.36,0,0,0,.26.09.7.7,0,0,0,.5-.22,1.89,1.89,0,0,0,.39-.59Zm-1.29-1.51a1.31,1.31,0,0,1,.34-.44,1.59,1.59,0,0,1-.24.6,2.53,2.53,0,0,1-.5.67A4.08,4.08,0,0,1,110.13,34.12Z" style="fill:#192332"/><path d="M106.44,36a5.29,5.29,0,0,0,.41-.82q.22.11.22.28a1.19,1.19,0,0,1-.12.38,1.16,1.16,0,0,0-.12.41.3.3,0,0,0,.1.23.38.38,0,0,0,.26.09.88.88,0,0,0,.57-.24,1.55,1.55,0,0,0,.42-.55l-.11-.08a1.4,1.4,0,0,1-.34.43.68.68,0,0,1-.43.22q-.11,0-.11-.1a1.08,1.08,0,0,1,.12-.32,1,1,0,0,0,.12-.39.39.39,0,0,0-.07-.23.55.55,0,0,0-.16-.16L107,35q-.08-.05-.08-.09l0-.08a.3.3,0,0,0,0-.09.18.18,0,0,0,0-.09.1.1,0,0,0-.08-.05s-.08,0-.13.1a.39.39,0,0,0-.07.22.17.17,0,0,0,0,.12,5.09,5.09,0,0,1-.36.8Z" style="fill:#192332"/><path d="M104.54,36.41a.29.29,0,0,0,.24.14.36.36,0,0,0,.21-.08.92.92,0,0,0,.18-.17l.17-.24q0,.08,0,.14a.67.67,0,0,0,0,.13.34.34,0,0,0,0,.12.27.27,0,0,0,.09.08.29.29,0,0,0,.14,0,.78.78,0,0,0,.51-.24,1.66,1.66,0,0,0,.41-.6l-.07-.05a1.7,1.7,0,0,1-.37.51.6.6,0,0,1-.36.2h0q-.11,0-.11-.15a1.16,1.16,0,0,1,.06-.33c0-.14.08-.25.13-.36l.06-.17q0-.11-.24-.15-.1.22-.21.44a3,3,0,0,1-.28.44q-.17.22-.28.22c-.09,0-.13-.09-.13-.26a1.25,1.25,0,0,1,.1-.44,2,2,0,0,1,.19-.39.32.32,0,0,0-.21-.11q-.11,0-.26.37a1.75,1.75,0,0,0-.15.62.54.54,0,0,0,.1.32" style="fill:#192332"/><path d="M104.52,35.67A.55.55,0,0,1,104,36a.28.28,0,0,1-.13,0,1.42,1.42,0,0,0,.31-.75.38.38,0,0,0-.09-.26.35.35,0,0,0-.27-.1.4.4,0,0,0-.32.13.63.63,0,0,0-.14.34l-.14,0q-.19,0-.36.28a1.09,1.09,0,0,0-.17.57.52.52,0,0,0,.08.3.29.29,0,0,0,.26.12,1,1,0,0,0,.73-.44.74.74,0,0,0,.22,0,.56.56,0,0,0,.33-.11.74.74,0,0,0,.25-.32Zm-1.29.66c-.1,0-.15-.07-.15-.2a1.18,1.18,0,0,1,.11-.45.67.67,0,0,1,.2-.31.87.87,0,0,0,.26.65Q103.39,36.33,103.24,36.33Zm.53-.45a.55.55,0,0,1-.09-.2.91.91,0,0,1,0-.23.51.51,0,0,1,.08-.3.23.23,0,0,1,.18-.12q.13,0,.13.19A1.19,1.19,0,0,1,103.77,35.88Z" style="fill:#192332"/><path d="M102.85,35.68a1.25,1.25,0,0,1-.71.74q.13-.35.23-.72a3,3,0,0,0,.1-.48l-.14,0a.21.21,0,0,0-.15.06.28.28,0,0,0-.08.12,1.45,1.45,0,0,0,0,.15l0,.1q-.33.53-.58.53h0q-.12,0-.12-.16a1.31,1.31,0,0,1,.1-.42,1.7,1.7,0,0,1,.18-.38.2.2,0,0,0-.11-.1.32.32,0,0,0-.13,0q-.11,0-.26.36a1.63,1.63,0,0,0-.15.6.33.33,0,0,0,.12.28.42.42,0,0,0,.26.09q.29,0,.63-.48-.14.5-.21.69l-.24.12-.23.12a1.1,1.1,0,0,0-.22.16.9.9,0,0,0-.13.17.39.39,0,0,0-.06.21.27.27,0,0,0,.09.22.32.32,0,0,0,.21.07q.44,0,.88-1.06a1.39,1.39,0,0,0,.84-.85ZM101.4,37.3q-.15.19-.24.19c-.06,0-.09,0-.09-.12s.21-.37.63-.58A2.36,2.36,0,0,1,101.4,37.3Z" style="fill:#192332"/><path d="M99.93,35.67a1.35,1.35,0,0,1-.32.43.65.65,0,0,1-.42.22c-.07,0-.11,0-.11-.1a1.15,1.15,0,0,1,.11-.32,1.07,1.07,0,0,0,.11-.39.39.39,0,0,0-.08-.23.56.56,0,0,0-.16-.16L98.88,35q-.08-.05-.08-.09l0-.08a.26.26,0,0,0,0-.08q0-.14-.1-.14s-.08,0-.13.1a.36.36,0,0,0-.08.23.18.18,0,0,0,0,.11q-.06.19-.11.32a2.47,2.47,0,0,1-.14.29.67.67,0,0,1-.22.24.52.52,0,0,1-.29.08l-.13,0a1.34,1.34,0,0,0,.28-.74.32.32,0,0,0-.35-.36.4.4,0,0,0-.31.13.61.61,0,0,0-.15.34l-.13,0q-.2,0-.36.28a1.1,1.1,0,0,0-.17.57.45.45,0,0,0,.1.3.36.36,0,0,0,.29.12,1,1,0,0,0,.7-.44.56.56,0,0,0,.21,0,.64.64,0,0,0,.22,0l.17-.09a.63.63,0,0,0,.15-.15l.11-.16a1.42,1.42,0,0,0,.09-.2l.07-.19.07-.19a.36.36,0,0,1,.23.3,1.23,1.23,0,0,1-.11.37,1.21,1.21,0,0,0-.11.4.28.28,0,0,0,.1.23.39.39,0,0,0,.26.09.78.78,0,0,0,.54-.24,1.82,1.82,0,0,0,.41-.56ZM97,36.33q-.14,0-.14-.23a1,1,0,0,1,.11-.38,1.47,1.47,0,0,1,.21-.36.81.81,0,0,0,.27.65Q97.17,36.33,97,36.33Zm.58-.48a.68.68,0,0,1-.16-.42.47.47,0,0,1,.08-.28.22.22,0,0,1,.17-.11.1.1,0,0,1,.08.05.27.27,0,0,1,0,.15A1.08,1.08,0,0,1,97.58,35.85Z" style="fill:#192332"/><path d="M96.3,36a.38.38,0,0,1-.26.11.3.3,0,0,1-.16,0,.31.31,0,0,1-.11-.15,1.23,1.23,0,0,1-.06-.19q0-.09-.05-.27a.18.18,0,0,0-.11-.15l.07-.18a3.41,3.41,0,0,0,.83-.79,1.49,1.49,0,0,0,.37-.85q0-.22-.19-.22t-.63.5a5.92,5.92,0,0,0-.63,1.16,12.77,12.77,0,0,0-.47,1.32,4,4,0,0,0-.19,1,.49.49,0,0,0,.09.34.27.27,0,0,0,.2.09.45.45,0,0,0,.34-.22,1.79,1.79,0,0,0,.27-.57,2.63,2.63,0,0,0,.11-.71.54.54,0,0,0,.31.12.54.54,0,0,0,.33-.14,1.15,1.15,0,0,0,.31-.41l-.1-.07A1.52,1.52,0,0,1,96.3,36Zm-.12-2.06q.22-.33.37-.33a0,0,0,0,1,0,0,1.13,1.13,0,0,1-.24.48,4.21,4.21,0,0,1-.61.69A5.54,5.54,0,0,1,96.18,33.93Zm-.8,3q-.14.44-.26.44S95,37.3,95,37.18a5.27,5.27,0,0,1,.35-1.47.92.92,0,0,1,.13.45A2.56,2.56,0,0,1,95.38,36.93Z" style="fill:#192332"/><path d="M94,35.59a.87.87,0,0,1-.52.5,1.13,1.13,0,0,0,0-.18,1.83,1.83,0,0,0-.13-.57,1.86,1.86,0,0,1-.13-.48.45.45,0,0,1,0-.09V34.7a.09.09,0,0,0-.11-.09q-.2,0-.2.32v0a2.21,2.21,0,0,1-.42.6l-.09,0a.31.31,0,0,0-.14.11.41.41,0,0,0-.06.23.65.65,0,0,0,.15.43.55.55,0,0,0,.45.18.73.73,0,0,0,.37-.09.52.52,0,0,0,.23-.27.78.78,0,0,0,.61-.59Zm-1.19.79a.28.28,0,0,1-.24-.12.47.47,0,0,1-.09-.28c0-.07,0-.11.06-.12a1,1,0,0,0,.23.21.86.86,0,0,0,.32.13A.3.3,0,0,1,92.82,36.38Zm.32-.3a.83.83,0,0,1-.52-.37,3,3,0,0,0,.38-.55l0,.19.05.22,0,.18a1.34,1.34,0,0,1,0,.2A.48.48,0,0,1,93.14,36.07Z" style="fill:#192332"/><path d="M91.1,36.5a.42.42,0,0,0,.32.12.88.88,0,0,0,.59-.26,1.94,1.94,0,0,0,.47-.67l-.06,0a1.74,1.74,0,0,1-.4.55.7.7,0,0,1-.45.2.21.21,0,0,1-.18-.08.44.44,0,0,1-.06-.26,2.44,2.44,0,0,1,.23-.89q.36,0,.89,0V35q-.3,0-.81,0,.09-.19.25-.45l.24-.42a.57.57,0,0,0,.08-.24.12.12,0,0,0-.12-.13q-.14,0-.37.36a5.14,5.14,0,0,0-.43.86l-.21,0v.14l.15,0a3.26,3.26,0,0,0-.24,1,.48.48,0,0,0,.11.35" style="fill:#192332"/><path d="M90.3,35.63a3,3,0,0,0,.6-.67,4.33,4.33,0,0,0,.44-.79,1.69,1.69,0,0,0,.15-.58.63.63,0,0,0-.06-.24c0-.08-.08-.12-.13-.12s-.28.17-.5.52A7.08,7.08,0,0,0,90.17,35a3.17,3.17,0,0,0-.28,1.1q0,.46.37.46a.7.7,0,0,0,.48-.22,2.14,2.14,0,0,0,.43-.62l-.11-.06a2.25,2.25,0,0,1-.31.5.47.47,0,0,1-.33.21q-.19,0-.19-.3h0A2.36,2.36,0,0,1,90.3,35.63Zm.39-1.06a6,6,0,0,1,.36-.67q.17-.26.22-.26a2.08,2.08,0,0,1-.28.78,4.14,4.14,0,0,1-.63.93A6,6,0,0,1,90.69,34.57Z" style="fill:#192332"/><path d="M89.5,34.52a.27.27,0,0,0,.16,0,.33.33,0,0,0,.22-.09.24.24,0,0,0,.1-.18q0-.16-.19-.16a.41.41,0,0,0-.24.08.22.22,0,0,0-.11.18.15.15,0,0,0,.06.13" style="fill:#192332"/><path d="M88.85,36.44a.38.38,0,0,0,.29.11.74.74,0,0,0,.51-.22,1.59,1.59,0,0,0,.39-.6L90,35.66q-.34.68-.69.68a.2.2,0,0,1-.15,0,.27.27,0,0,1,0-.19,1,1,0,0,1,.11-.4q.11-.23.22-.42a.67.67,0,0,0,.11-.24.12.12,0,0,0,0-.09.14.14,0,0,0-.09,0q-.15,0-.31.24a2.18,2.18,0,0,0-.25.53,1.61,1.61,0,0,0-.09.47.4.4,0,0,0,.1.28" style="fill:#192332"/><path d="M86.89,36.41a.29.29,0,0,0,.24.14.36.36,0,0,0,.21-.08.94.94,0,0,0,.18-.17l.17-.24c0,.06,0,.1,0,.14a.7.7,0,0,0,0,.13.35.35,0,0,0,0,.12.27.27,0,0,0,.09.08.29.29,0,0,0,.14,0,.78.78,0,0,0,.51-.24,1.66,1.66,0,0,0,.41-.6l-.07-.05a1.71,1.71,0,0,1-.37.51.6.6,0,0,1-.36.2h0q-.11,0-.11-.15a1.16,1.16,0,0,1,.06-.33q.06-.2.13-.36l.06-.17q0-.11-.24-.15-.1.22-.21.44a3,3,0,0,1-.28.44q-.17.22-.28.22t-.13-.26a1.25,1.25,0,0,1,.1-.44,2,2,0,0,1,.19-.39.32.32,0,0,0-.21-.11q-.11,0-.26.37a1.75,1.75,0,0,0-.15.62.54.54,0,0,0,.1.32" style="fill:#192332"/><path d="M86.94,35.73l-.08-.07a1,1,0,0,1-.72.61,2.12,2.12,0,0,1,.23-.56,1,1,0,0,0,.16-.35.1.1,0,0,0-.09-.11.17.17,0,0,0,.09-.17.21.21,0,0,0-.11-.18.54.54,0,0,0-.29-.07,1,1,0,0,0-.6.22,1.77,1.77,0,0,0-.49.53,1.12,1.12,0,0,0-.18.57.4.4,0,0,0,.12.31.37.37,0,0,0,.25.11q.25,0,.64-.51a5.83,5.83,0,0,0-.13.67,4.37,4.37,0,0,0-.05.57c0,.23.06.34.17.34s.2-.07.26-.22a1.31,1.31,0,0,0,.1-.55,1.37,1.37,0,0,0-.08-.47A1.11,1.11,0,0,0,86.94,35.73Zm-1,1.63s0,0,0-.09a3,3,0,0,1,.08-.62,1.31,1.31,0,0,1,0,.21Q86,37.37,85.95,37.37Zm0-1.65-.19.27a1.2,1.2,0,0,1-.21.23.29.29,0,0,1-.17.07.12.12,0,0,1-.11-.05.24.24,0,0,1,0-.14.87.87,0,0,1,.07-.3,1.92,1.92,0,0,1,.18-.35,1.1,1.1,0,0,1,.28-.3.58.58,0,0,1,.34-.12.27.27,0,0,1,.18.06.19.19,0,0,1,.07.15s-.1.05-.17.16Z" style="fill:#192332"/><path d="M83.11,35.63a3,3,0,0,0,.6-.67,4.33,4.33,0,0,0,.44-.79,1.68,1.68,0,0,0,.15-.58.62.62,0,0,0-.06-.24q-.05-.12-.13-.12t-.5.52A7.1,7.1,0,0,0,83,35a3.17,3.17,0,0,0-.28,1.1q0,.46.37.46a.7.7,0,0,0,.48-.22,2.14,2.14,0,0,0,.43-.62l-.11-.06a2.22,2.22,0,0,1-.31.5.47.47,0,0,1-.33.21q-.19,0-.19-.3h0A2.35,2.35,0,0,1,83.11,35.63Zm.39-1.06a5.94,5.94,0,0,1,.36-.67q.17-.26.22-.26a2.09,2.09,0,0,1-.28.78,4.16,4.16,0,0,1-.63.93A6.09,6.09,0,0,1,83.51,34.57Z" style="fill:#192332"/><path d="M80.81,36.41a.29.29,0,0,0,.24.14.36.36,0,0,0,.21-.08.93.93,0,0,0,.18-.17l.17-.24c0,.06,0,.1,0,.14a.68.68,0,0,0,0,.13.35.35,0,0,0,0,.12.27.27,0,0,0,.09.08.29.29,0,0,0,.14,0,.78.78,0,0,0,.51-.24,1.66,1.66,0,0,0,.41-.6l-.07-.05a1.71,1.71,0,0,1-.37.51.6.6,0,0,1-.36.2h0c-.08,0-.11,0-.11-.15a1.17,1.17,0,0,1,.06-.33q.06-.2.13-.36l.06-.17q0-.11-.24-.15-.1.22-.21.44a3,3,0,0,1-.28.44q-.17.22-.28.22T81,36.05a1.25,1.25,0,0,1,.1-.44,2,2,0,0,1,.19-.39.32.32,0,0,0-.21-.11q-.11,0-.26.37a1.75,1.75,0,0,0-.15.62.54.54,0,0,0,.1.32" style="fill:#192332"/><path d="M80.54,36a.38.38,0,0,1-.26.11.3.3,0,0,1-.16,0A.31.31,0,0,1,80,35.9a1.21,1.21,0,0,1-.06-.19q0-.09-.05-.27a.18.18,0,0,0-.11-.15l.07-.18a3.41,3.41,0,0,0,.84-.79,1.49,1.49,0,0,0,.37-.85q0-.22-.18-.22t-.63.5a5.93,5.93,0,0,0-.63,1.16,12.81,12.81,0,0,0-.47,1.32,4,4,0,0,0-.19,1,.49.49,0,0,0,.09.34.27.27,0,0,0,.2.09.45.45,0,0,0,.34-.22,1.8,1.8,0,0,0,.27-.57,2.62,2.62,0,0,0,.11-.71.54.54,0,0,0,.31.12.54.54,0,0,0,.33-.14,1.15,1.15,0,0,0,.31-.41l-.1-.07A1.51,1.51,0,0,1,80.54,36Zm-.12-2.06q.22-.33.37-.33a0,0,0,0,1,0,0,1.13,1.13,0,0,1-.24.48,4.2,4.2,0,0,1-.61.69A5.57,5.57,0,0,1,80.42,33.93Zm-.8,3q-.14.44-.26.44s-.07-.06-.07-.19a5.26,5.26,0,0,1,.35-1.47.92.92,0,0,1,.13.45A2.57,2.57,0,0,1,79.62,36.93Z" style="fill:#192332"/><path d="M78.85,34.52a.27.27,0,0,0,.16,0,.34.34,0,0,0,.22-.09.24.24,0,0,0,.1-.18c0-.11-.06-.16-.19-.16a.42.42,0,0,0-.24.08.22.22,0,0,0-.11.18.14.14,0,0,0,.06.13" style="fill:#192332"/><path d="M78.2,36.44a.38.38,0,0,0,.29.11.75.75,0,0,0,.51-.22,1.6,1.6,0,0,0,.39-.6l-.07-.07q-.34.68-.69.68a.2.2,0,0,1-.15,0,.27.27,0,0,1,0-.19.94.94,0,0,1,.11-.4q.11-.23.22-.42a.67.67,0,0,0,.11-.24.12.12,0,0,0,0-.09.14.14,0,0,0-.09,0c-.1,0-.21.08-.31.24a2.17,2.17,0,0,0-.25.53,1.6,1.6,0,0,0-.09.47.4.4,0,0,0,.1.28" style="fill:#192332"/><path d="M76.9,36.5a.42.42,0,0,0,.32.12.88.88,0,0,0,.6-.26,2,2,0,0,0,.47-.67l-.06,0a1.75,1.75,0,0,1-.4.55.7.7,0,0,1-.45.2.21.21,0,0,1-.18-.08.44.44,0,0,1-.06-.26,2.43,2.43,0,0,1,.23-.89q.36,0,.89,0V35q-.3,0-.81,0,.09-.19.25-.45l.24-.42A.57.57,0,0,0,78,33.9a.12.12,0,0,0-.12-.13q-.14,0-.37.36a5.14,5.14,0,0,0-.43.86l-.21,0v.14l.15,0a3.24,3.24,0,0,0-.24,1,.48.48,0,0,0,.11.35" style="fill:#192332"/><path d="M74.92,36.41a.29.29,0,0,0,.24.14.36.36,0,0,0,.21-.08.94.94,0,0,0,.18-.17l.17-.24q0,.08,0,.14a.7.7,0,0,0,0,.13.34.34,0,0,0,0,.12.27.27,0,0,0,.09.08.29.29,0,0,0,.14,0,.78.78,0,0,0,.51-.24,1.66,1.66,0,0,0,.41-.6l-.07-.05a1.7,1.7,0,0,1-.37.51.6.6,0,0,1-.36.2h0q-.11,0-.11-.15a1.18,1.18,0,0,1,.06-.33q.06-.2.13-.36l.06-.17q0-.11-.24-.15-.1.22-.21.44a3,3,0,0,1-.28.44q-.17.22-.28.22c-.09,0-.13-.09-.13-.26a1.25,1.25,0,0,1,.1-.44,2,2,0,0,1,.19-.39.32.32,0,0,0-.21-.11q-.11,0-.26.37a1.75,1.75,0,0,0-.15.62.54.54,0,0,0,.1.32" style="fill:#192332"/><path d="M74.9,35.65a1.84,1.84,0,0,1-.37.51.54.54,0,0,1-.32.17c-.09,0-.13-.05-.13-.16a.74.74,0,0,1,.12-.32.87.87,0,0,0,.12-.27q0-.08-.15-.13.24,0,.24-.21a.31.31,0,0,0-.13-.26.49.49,0,0,0-.32-.1,1,1,0,0,0-.59.22,1.79,1.79,0,0,0-.48.54,1.16,1.16,0,0,0-.18.57.38.38,0,0,0,.1.29.36.36,0,0,0,.26.1.48.48,0,0,0,.3-.11,2.42,2.42,0,0,0,.34-.35.42.42,0,0,0,.09.27.32.32,0,0,0,.27.12.73.73,0,0,0,.49-.22,1.75,1.75,0,0,0,.41-.59Zm-1,.14-.13.17-.15.17-.14.13-.14.1a.27.27,0,0,1-.12,0q-.1,0-.1-.14a1.37,1.37,0,0,1,.31-.76q.31-.43.6-.43t.19.23a.52.52,0,0,1,0,.16h0l0,0-.11.14Z" style="fill:#192332"/><path d="M72.9,35.66a1.67,1.67,0,0,1-.45.54.9.9,0,0,1-.55.22.4.4,0,0,1-.19,0,.23.23,0,0,1-.11-.11.48.48,0,0,1,0-.11.54.54,0,0,1,0-.19,1.59,1.59,0,0,0,.77-.29.7.7,0,0,0,.35-.56q0-.29-.33-.29a1,1,0,0,0-.77.42,1.27,1.27,0,0,0-.37.82.51.51,0,0,0,.15.38.59.59,0,0,0,.43.15,1.14,1.14,0,0,0,.68-.24,1.56,1.56,0,0,0,.5-.64Zm-1-.39a.62.62,0,0,1,.43-.26q.08,0,.08.08a.61.61,0,0,1-.29.46,1.12,1.12,0,0,1-.54.26A1.56,1.56,0,0,1,71.94,35.27Z" style="fill:#192332"/><path d="M71.37,35.64q-.24.49-.57.49h-.08a1.3,1.3,0,0,0,.13-.56.52.52,0,0,0-.09-.33.29.29,0,0,0-.24-.11.35.35,0,0,0-.28.13.52.52,0,0,0-.11.35.71.71,0,0,0,.08.34.6.6,0,0,0,.24.24.82.82,0,0,1-.21.26.39.39,0,0,1-.24.1q-.23,0-.23-.43a2,2,0,0,1,.07-.5,1.87,1.87,0,0,1,.13-.38,1.71,1.71,0,0,0,.5-.47,3.1,3.1,0,0,0,.38-.65,1.49,1.49,0,0,0,.14-.54.52.52,0,0,0,0-.21.14.14,0,0,0-.13-.09q-.19,0-.53.54a6.81,6.81,0,0,0-.6,1.23,3.38,3.38,0,0,0-.26,1.11.64.64,0,0,0,.13.43.48.48,0,0,0,.38.15.85.85,0,0,0,.72-.48h.09a.63.63,0,0,0,.41-.13,1,1,0,0,0,.28-.4Zm-.93-1.51q.25-.41.34-.45a1.71,1.71,0,0,1-.23.61,2.51,2.51,0,0,1-.49.67A4,4,0,0,1,70.44,34.13ZM70.53,36a.47.47,0,0,1-.19-.41.39.39,0,0,1,0-.19q0-.08.1-.08t.13.31A.89.89,0,0,1,70.53,36Z" style="fill:#192332"/><path d="M68.42,35.66a1.66,1.66,0,0,1-.45.54.9.9,0,0,1-.55.22.4.4,0,0,1-.19,0,.22.22,0,0,1-.11-.11.5.5,0,0,1,0-.11.49.49,0,0,1,0-.08.51.51,0,0,1,0-.1,1.59,1.59,0,0,0,.77-.29.7.7,0,0,0,.35-.56q0-.29-.33-.29a1,1,0,0,0-.77.42,1.27,1.27,0,0,0-.37.82.51.51,0,0,0,.15.38.59.59,0,0,0,.43.15,1.14,1.14,0,0,0,.68-.24,1.56,1.56,0,0,0,.5-.64Zm-1-.39a.62.62,0,0,1,.43-.26s.07,0,.07.08a.61.61,0,0,1-.29.46,1.12,1.12,0,0,1-.54.26A1.56,1.56,0,0,1,67.47,35.27Z" style="fill:#192332"/><path d="M65.58,36.5a.42.42,0,0,0,.32.12.88.88,0,0,0,.59-.26,1.94,1.94,0,0,0,.47-.67l-.06,0a1.75,1.75,0,0,1-.4.55.7.7,0,0,1-.45.2.21.21,0,0,1-.18-.08.44.44,0,0,1-.06-.26,2.44,2.44,0,0,1,.23-.89q.36,0,.89,0V35q-.3,0-.81,0,.09-.19.25-.45l.24-.42a.57.57,0,0,0,.08-.24.12.12,0,0,0-.12-.13q-.14,0-.37.36a5.15,5.15,0,0,0-.43.86l-.21,0v.14l.15,0a3.26,3.26,0,0,0-.24,1,.48.48,0,0,0,.11.35" style="fill:#192332"/><path d="M65.55,35.65a1.83,1.83,0,0,1-.37.51.54.54,0,0,1-.32.17q-.13,0-.13-.16a.74.74,0,0,1,.12-.32.87.87,0,0,0,.12-.27c0-.05,0-.1-.15-.13q.23,0,.23-.21a.31.31,0,0,0-.13-.26.49.49,0,0,0-.31-.1,1,1,0,0,0-.59.22,1.79,1.79,0,0,0-.48.54,1.16,1.16,0,0,0-.18.57.38.38,0,0,0,.1.29.35.35,0,0,0,.26.1.48.48,0,0,0,.3-.11,2.4,2.4,0,0,0,.34-.35.42.42,0,0,0,.09.27.32.32,0,0,0,.27.12.73.73,0,0,0,.49-.22,1.77,1.77,0,0,0,.41-.59Zm-1,.14-.13.17-.15.17-.14.13-.14.1a.27.27,0,0,1-.12,0c-.07,0-.1,0-.1-.14A1.37,1.37,0,0,1,64,35.5q.31-.43.6-.43t.19.23a.52.52,0,0,1,0,.16h0l0,0-.1.14Z" style="fill:#192332"/><path d="M63.56,35.66a1.67,1.67,0,0,1-.45.54.9.9,0,0,1-.55.22.4.4,0,0,1-.19,0,.23.23,0,0,1-.11-.11.51.51,0,0,1,0-.11.52.52,0,0,1,0-.08.53.53,0,0,1,0-.1,1.59,1.59,0,0,0,.77-.29.7.7,0,0,0,.35-.56c0-.19-.11-.29-.33-.29a1,1,0,0,0-.77.42,1.27,1.27,0,0,0-.37.82.5.5,0,0,0,.15.38.59.59,0,0,0,.43.15,1.14,1.14,0,0,0,.68-.24,1.56,1.56,0,0,0,.5-.64Zm-1-.39A.62.62,0,0,1,63,35s.08,0,.08.08a.61.61,0,0,1-.29.46,1.12,1.12,0,0,1-.54.26A1.56,1.56,0,0,1,62.61,35.27Z" style="fill:#192332"/><path d="M60.35,36a5.28,5.28,0,0,0,.41-.82q.22.11.22.28a1.19,1.19,0,0,1-.12.38,1.16,1.16,0,0,0-.12.41.3.3,0,0,0,.1.23.38.38,0,0,0,.26.09.88.88,0,0,0,.57-.24,1.55,1.55,0,0,0,.42-.55L62,35.66a1.39,1.39,0,0,1-.34.43.68.68,0,0,1-.43.22q-.11,0-.11-.1a1.07,1.07,0,0,1,.12-.32,1,1,0,0,0,.12-.39.39.39,0,0,0-.07-.23.54.54,0,0,0-.16-.16L60.92,35q-.08-.05-.08-.09l0-.08a.31.31,0,0,0,0-.09.18.18,0,0,0,0-.09.1.1,0,0,0-.08-.05s-.08,0-.13.1a.39.39,0,0,0-.07.22.17.17,0,0,0,0,.12,5.15,5.15,0,0,1-.36.8Z" style="fill:#192332"/><path d="M58.34,36.48a.85.85,0,0,0,.72.32,1.27,1.27,0,0,0,.82-.3,2.46,2.46,0,0,0,.62-.78l-.11-.07a1.88,1.88,0,0,1-.53.66,1.1,1.1,0,0,1-.69.28.54.54,0,0,1-.48-.24,1.06,1.06,0,0,1-.16-.59,2.62,2.62,0,0,1,.23-1,3.08,3.08,0,0,1,.58-.92,1,1,0,0,1,.66-.37q.2,0,.2.17A.86.86,0,0,1,60,34a3,3,0,0,1-.32.44.21.21,0,0,0,.18.14q.19,0,.37-.33a1.34,1.34,0,0,0,.18-.62q0-.41-.46-.41a1.37,1.37,0,0,0-.88.37,2.82,2.82,0,0,0-.72.95,2.63,2.63,0,0,0-.28,1.15,1.23,1.23,0,0,0,.24.77" style="fill:#192332"/><path d="M120,73.87a.23.23,0,0,0-.2-.15.24.24,0,0,0-.18.08,1.91,1.91,0,0,1-.58.34,2.27,2.27,0,0,1-.83.14,2.72,2.72,0,0,1-1.75-.64,8.93,8.93,0,0,1-1.67-2L111,66.08a6.2,6.2,0,0,0,3.51-1.74,4.36,4.36,0,0,0,1.22-3.07,4.3,4.3,0,0,0-.49-2.1,4.2,4.2,0,0,0-1.35-1.47,5.9,5.9,0,0,0-2-.84,9,9,0,0,0-2.51-.19l-1.3.05-1,.05-.82,0h-.81q-.86,0-1.66,0l-1.66-.09a.23.23,0,0,0-.23.06.29.29,0,0,0-.08.19.32.32,0,0,0,.08.21.28.28,0,0,0,.23.09,1.83,1.83,0,0,1,1.5.54,3.36,3.36,0,0,1,.44,2V72a5.83,5.83,0,0,1-.11,1.27,1.78,1.78,0,0,1-.37.78,1.32,1.32,0,0,1-.63.4,3.18,3.18,0,0,1-.91.11q-.33,0-.33.28a.29.29,0,0,0,.08.19.32.32,0,0,0,.25.09l1.78-.09q1,0,1.78,0t1.85,0l1.8.09q.33,0,.33-.28t-.35-.28a4.52,4.52,0,0,1-1.08-.11,1.56,1.56,0,0,1-.74-.4,1.75,1.75,0,0,1-.43-.79,4.85,4.85,0,0,1-.14-1.26V66.39a5.73,5.73,0,0,0,.67.06h.62l3.5,5.36a15.16,15.16,0,0,0,1,1.42,7.33,7.33,0,0,0,1.12,1.11,4.55,4.55,0,0,0,1.3.72,4.62,4.62,0,0,0,1.56.25,5.89,5.89,0,0,0,1.85-.3,3,3,0,0,0,1.37-.83A.29.29,0,0,0,120,73.87Zm-11.06-8q-.48,0-1.06,0l-1-.09V57.52q.25-.08.76-.18a7.09,7.09,0,0,1,1.33-.1,3.72,3.72,0,0,1,4,4,7.11,7.11,0,0,1-.29,2.19,3.5,3.5,0,0,1-.82,1.41,2.9,2.9,0,0,1-1.27.74A5.94,5.94,0,0,1,108.92,65.83Z" style="fill:#fff;stroke:#fff;stroke-width:0.25px"/><path d="M99.55,75.08a.63.63,0,0,0,.58-.24,1.3,1.3,0,0,0,.13-.74q0-.48,0-.84V71.8q0-.38,0-.88,0-.3-.28-.3a.28.28,0,0,0-.19.08.28.28,0,0,0-.09.23A4,4,0,0,1,99,73.55a2.4,2.4,0,0,1-1.91.82H93.35a1.92,1.92,0,0,1-1.61-.54,3.25,3.25,0,0,1-.4-1.88V65.83q1.13,0,2.17.05l1.81.08q.93,0,1.54.08a1,1,0,0,1,1,.72,4.47,4.47,0,0,1,.25,1.57.28.28,0,0,0,.09.23.32.32,0,0,0,.21.08.24.24,0,0,0,.28-.28V62.79a.25.25,0,0,0-.09-.2.32.32,0,0,0-.21-.08.28.28,0,0,0-.19.08.25.25,0,0,0-.09.2,4.62,4.62,0,0,1-.21,1.5A.94.94,0,0,1,97,65l-1.86.1-1.81.1q-1,.05-1.94.05V57.37H96.7a2.1,2.1,0,0,1,2,.92,5.09,5.09,0,0,1,.53,2.53.25.25,0,0,0,.09.2.28.28,0,0,0,.19.08.24.24,0,0,0,.28-.28q0-.53,0-.93t0-.78v-.79q0-.42,0-.94a1.05,1.05,0,0,0-.06-.52q-.09-.19-.52-.19H86.61q-.3,0-.3.28a.28.28,0,0,0,.08.19.28.28,0,0,0,.23.09,1.92,1.92,0,0,1,1.51.52,3.11,3.11,0,0,1,.45,2V72A8.2,8.2,0,0,1,88.51,73a2,2,0,0,1-.28.81,1.34,1.34,0,0,1-.62.52,2.83,2.83,0,0,1-1.11.18q-.3,0-.3.28a.29.29,0,0,0,.08.19.28.28,0,0,0,.23.09Z" style="fill:#fff;stroke:#fff;stroke-width:0.25px"/><path d="M75.82,72a4.81,4.81,0,0,1-.14,1.27,1.82,1.82,0,0,1-.42.78,1.48,1.48,0,0,1-.68.4,3.46,3.46,0,0,1-.93.11q-.33,0-.33.28a.29.29,0,0,0,.08.19.32.32,0,0,0,.25.09l1.8-.09q1,0,1.8,0t1.83,0l1.88.09a.24.24,0,0,0,.28-.28.29.29,0,0,0-.08-.19.28.28,0,0,0-.23-.09,4.47,4.47,0,0,1-1-.1A1.6,1.6,0,0,1,79.2,74a1.69,1.69,0,0,1-.45-.78A4.67,4.67,0,0,1,78.59,72V57.67h2.29a5.11,5.11,0,0,1,1.46.18,2.25,2.25,0,0,1,1,.55,2.63,2.63,0,0,1,.59.94,6,6,0,0,1,.31,1.32q.05.35.3.35a.2.2,0,0,0,.2-.11.65.65,0,0,0,.05-.26q-.05-1-.05-1.83t0-1.7q0-.3-.16-.39a.94.94,0,0,0-.44-.09q-1.84.05-3.6.06H73.88q-1.76,0-3.6-.06a.93.93,0,0,0-.44.09q-.16.09-.16.39,0,.81,0,1.69t-.05,1.84a.64.64,0,0,0,.05.26.2.2,0,0,0,.2.11q.25,0,.3-.35a6,6,0,0,1,.31-1.32,2.62,2.62,0,0,1,.59-.94,2.25,2.25,0,0,1,1-.55,5.14,5.14,0,0,1,1.45-.18h2.29Z" style="fill:#fff;stroke:#fff;stroke-width:0.25px"/><path d="M63.2,59.79a5.69,5.69,0,0,1,.13-1.33,1.64,1.64,0,0,1,.4-.78,1.37,1.37,0,0,1,.72-.37,5.56,5.56,0,0,1,1.07-.09.28.28,0,0,0,.3-.28q0-.28-.33-.28l-1.89.09q-1,0-1.79,0t-1.67,0l-1.65-.09a.23.23,0,0,0-.23.06.32.32,0,0,0-.08.21.29.29,0,0,0,.08.19.28.28,0,0,0,.23.09,1.92,1.92,0,0,1,1.51.52,3.11,3.11,0,0,1,.45,2V72A8.09,8.09,0,0,1,60.4,73a2,2,0,0,1-.28.81,1.34,1.34,0,0,1-.62.52,2.82,2.82,0,0,1-1.11.18q-.3,0-.3.28a.29.29,0,0,0,.08.19.28.28,0,0,0,.23.09H71q.43,0,.5-.2a2.84,2.84,0,0,0,.13-.48q.13-.93.25-1.69l.3-1.79a.23.23,0,0,0-.06-.23.32.32,0,0,0-.21-.08q-.23,0-.28.3a5.05,5.05,0,0,1-1.11,2.57,2.7,2.7,0,0,1-2.09.88H65.24a2,2,0,0,1-1.62-.54A3.17,3.17,0,0,1,63.2,72Z" style="fill:#fff;stroke:#fff;stroke-width:0.25px"/><path d="M44.29,68.93a6.61,6.61,0,0,1-.53,2.86,4.48,4.48,0,0,1-1.35,1.7,4.69,4.69,0,0,1-1.76.82,8,8,0,0,1-1.78.21,5.84,5.84,0,0,1-2.2-.37,3.51,3.51,0,0,1-1.45-1.06,4.25,4.25,0,0,1-.79-1.73A10.54,10.54,0,0,1,34.19,69V59.79a4.43,4.43,0,0,1,.16-1.33,1.85,1.85,0,0,1,.45-.78,1.42,1.42,0,0,1,.68-.37,4,4,0,0,1,.87-.09.28.28,0,0,0,.23-.09.28.28,0,0,0,.08-.19q0-.28-.33-.28l-1.79.08q-.93.05-1.74.05t-1.69-.05l-1.64-.08q-.3,0-.3.25a.32.32,0,0,0,.08.21.28.28,0,0,0,.23.09,1.83,1.83,0,0,1,1.5.54,3.36,3.36,0,0,1,.44,2v9.09a6.17,6.17,0,0,0,1.89,4.8,8,8,0,0,0,5.57,1.73,7.85,7.85,0,0,0,2.34-.35,5.32,5.32,0,0,0,2-1.13,5.67,5.67,0,0,0,1.4-2,7.43,7.43,0,0,0,.53-3V59.84a4.56,4.56,0,0,1,.16-1.35,2,2,0,0,1,.44-.81,1.3,1.3,0,0,1,.67-.38,4,4,0,0,1,.87-.09.28.28,0,0,0,.23-.09.29.29,0,0,0,.08-.19q0-.28-.33-.28l-1.41.09q-.58,0-1.13,0l-1.15,0-1.45-.09a.23.23,0,0,0-.23.06.29.29,0,0,0-.08.19.32.32,0,0,0,.08.21.28.28,0,0,0,.23.09,2.15,2.15,0,0,1,1.61.57,2.93,2.93,0,0,1,.55,2.05Z" style="fill:#fff;stroke:#fff;stroke-width:0.25px"/><path d="M54.09,59.79a4.43,4.43,0,0,1,.16-1.33,1.85,1.85,0,0,1,.45-.78,1.42,1.42,0,0,1,.68-.37,4,4,0,0,1,.87-.09.28.28,0,0,0,.23-.09.28.28,0,0,0,.08-.19c0-.18-.11-.28-.33-.28l-1.8.09q-.92,0-1.73,0t-1.69,0l-1.64-.09q-.3,0-.3.25a.32.32,0,0,0,.08.21.28.28,0,0,0,.23.09,1.83,1.83,0,0,1,1.5.54,3.36,3.36,0,0,1,.44,2V72a5.83,5.83,0,0,1-.11,1.27,1.78,1.78,0,0,1-.37.78,1.32,1.32,0,0,1-.63.4,3.18,3.18,0,0,1-.91.11q-.33,0-.33.28a.28.28,0,0,0,.08.19.32.32,0,0,0,.25.09L51,75q.92,0,1.73,0t1.75,0l1.8.09a.24.24,0,0,0,.28-.28.29.29,0,0,0-.08-.19.28.28,0,0,0-.23-.09,4.14,4.14,0,0,1-1-.1,1.43,1.43,0,0,1-.69-.38,1.64,1.64,0,0,1-.4-.78A5.55,5.55,0,0,1,54.09,72Z" style="fill:#fff;stroke:#fff;stroke-width:0.25px"/><path d="M6.79,76.09A14.4,14.4,0,0,0,4,77.25q-.44.23-.22.44t.62,0a15.55,15.55,0,0,1,4.11-1.44,22.79,22.79,0,0,1,4.51-.44,28.07,28.07,0,0,1,3.41.21q1.68.21,3.33.54t3.25.76l3.21.87q1.64.44,3.35.87t3.47.76q1.76.34,3.59.54a33.55,33.55,0,0,0,3.75.21,38.35,38.35,0,0,0,11.33-1.63,39,39,0,0,0,4.61-1.59c.19-.1.23-.21.12-.34s-.27-.13-.48,0c-1.07.67-5,1.2-6.55,1.43s-3.15.4-4.71.48-3,.13-4.27.13a38.07,38.07,0,0,1-6.27-.5q-3-.5-5.91-1.17l-5.55-1.23c-1.86-.41-5.67-.85-5.67-.85a33.17,33.17,0,0,0-7.14.06,31.61,31.61,0,0,0-3.1.74" style="fill:#fff;stroke:#fff;stroke-miterlimit:10;stroke-width:0.8310000000000001px"/><path d="M76.55,55a3,3,0,0,0,1-.45,2.29,2.29,0,0,0,.71-.8,2.41,2.41,0,0,0,.26-1.17,2,2,0,0,0-.37-1.24,3.29,3.29,0,0,0-.92-.83A7.26,7.26,0,0,0,76,50q-.64-.25-1.2-.51a3.71,3.71,0,0,1-.92-.61,1.13,1.13,0,0,1-.36-.87,1.29,1.29,0,0,1,.17-.68,1.56,1.56,0,0,1,.45-.48,2,2,0,0,1,.64-.29,2.89,2.89,0,0,1,.74-.1,2.15,2.15,0,0,1,.68.11,1.7,1.7,0,0,1,.57.32,1.6,1.6,0,0,1,.41.55,2.29,2.29,0,0,1,.19.79c0,.1,0,.14.13.14a.12.12,0,0,0,.13-.13q0-.25,0-.43v-.63c0-.1,0-.2,0-.31a.24.24,0,0,0-.05-.2.47.47,0,0,0-.15-.1l-.35-.14a3.91,3.91,0,0,0-.46-.14l-.53-.1a3.87,3.87,0,0,0-.57,0,3.3,3.3,0,0,0-1.13.19,2.9,2.9,0,0,0-.89.5,2.36,2.36,0,0,0-.59.74,2,2,0,0,0-.22.89,2.3,2.3,0,0,0,.21,1,2.51,2.51,0,0,0,.54.74,3.35,3.35,0,0,0,.77.53q.44.22.89.41l.89.37a4,4,0,0,1,.77.41,2.07,2.07,0,0,1,.54.54,1.32,1.32,0,0,1,.21.75,1.42,1.42,0,0,1-.19.74,1.53,1.53,0,0,1-.49.51,2.25,2.25,0,0,1-.7.29,3.39,3.39,0,0,1-.8.1,2.52,2.52,0,0,1-1.08-.2,2,2,0,0,1-1.08-1.17,3.09,3.09,0,0,1-.16-.68c0-.09-.06-.13-.13-.13s-.13,0-.13.14q0,.38,0,.73t0,.74a.28.28,0,0,0,.14.26l.33.18a3.26,3.26,0,0,0,.51.2,5.82,5.82,0,0,0,.7.17,5,5,0,0,0,.9.07A4.72,4.72,0,0,0,76.55,55" style="fill:#fff"/><path d="M71.52,48a1.55,1.55,0,0,0,.33-.95,1.14,1.14,0,0,0-.2-.68.66.66,0,0,0-.57-.28.58.58,0,0,0-.42.16.52.52,0,0,0-.17.39.45.45,0,0,0,.5.51h.24a.16.16,0,0,1,.13.06.23.23,0,0,1,0,.14,1.1,1.1,0,0,1-.2.6,1.28,1.28,0,0,1-.63.48q-.16.06-.11.16a.1.1,0,0,0,.14.07,1.87,1.87,0,0,0,.9-.65" style="fill:#fff"/><path d="M68.73,47.37a1.7,1.7,0,0,1,.52-.63,1.2,1.2,0,0,1,.63-.2.19.19,0,0,0,.14,0,.14.14,0,0,0,0-.1.15.15,0,0,0,0-.11.16.16,0,0,0-.14,0l-.56,0H68.09l-.71,0a.16.16,0,0,0-.14,0,.14.14,0,0,0,0,.1.15.15,0,0,0,0,.11.19.19,0,0,0,.14,0,1.09,1.09,0,0,1,.83.26q.21.25,0,.75l-.33.63-.41.74-.44.78-.44.75L66,49.65l-.54-.86L65,48l-.37-.62q-.23-.37,0-.6a1,1,0,0,1,.73-.23q.17,0,.17-.14a.15.15,0,0,0,0-.11.15.15,0,0,0-.13,0l-.87,0-.91,0-.77,0-.72,0q-.16,0-.16.13a.16.16,0,0,0,0,.11.14.14,0,0,0,.11,0,1.21,1.21,0,0,1,.36.07.92.92,0,0,1,.29.18,2,2,0,0,1,.26.3l.29.42q.44.67,1,1.5t1.24,2v2.57a1.41,1.41,0,0,1-.23,1,1,1,0,0,1-.74.24q-.16,0-.16.13a.14.14,0,0,0,0,.09.15.15,0,0,0,.12,0l.82,0,.82,0,.83,0,.86,0a.12.12,0,0,0,.13-.13.14.14,0,0,0,0-.09.13.13,0,0,0-.11,0,2,2,0,0,1-.47,0,.68.68,0,0,1-.33-.18.82.82,0,0,1-.2-.37,2.4,2.4,0,0,1-.07-.62V51Z" style="fill:#fff"/><path d="M63,54.77a.13.13,0,0,0-.11,0q-.77,0-1.2-1l-3-7.13c0-.1-.07-.19-.1-.27a.15.15,0,0,0-.15-.13c-.06,0-.1,0-.13.11l-.11.28L57,49.74,56.5,51,56,52.21l-.41,1-.28.66a1.44,1.44,0,0,1-.48.65,1.09,1.09,0,0,1-.63.2.17.17,0,0,0-.14,0,.15.15,0,0,0,0,.1.12.12,0,0,0,0,.1.21.21,0,0,0,.14,0l.57,0H56l.68,0a.19.19,0,0,0,.13,0,.13.13,0,0,0,0-.1.14.14,0,0,0,0-.1.19.19,0,0,0-.14,0,.9.9,0,0,1-.8-.29.69.69,0,0,1,0-.68l1-2.58h2.46l1.12,2.69a.57.57,0,0,1,0,.61.82.82,0,0,1-.69.25.14.14,0,0,0-.12,0,.17.17,0,0,0,0,.1.13.13,0,0,0,0,.1.17.17,0,0,0,.13,0l.45,0,.5,0h1l.65,0,.6,0a.13.13,0,0,0,.11,0,.12.12,0,0,0,0-.1A.21.21,0,0,0,63,54.77Zm-6-4,1.05-2.63,1.12,2.63Z" style="fill:#fff"/><path d="M54.47,49.81a4.16,4.16,0,0,0-.26-.92,4.34,4.34,0,0,0-.54-1,3.51,3.51,0,0,0-.91-.84,5,5,0,0,0-1.38-.6,7,7,0,0,0-1.93-.23l-.9,0-.9,0-.78,0-.79,0c-.1,0-.14,0-.14.12a.15.15,0,0,0,0,.1.13.13,0,0,0,.11,0,.87.87,0,0,1,.71.26,1.6,1.6,0,0,1,.21,1v5.78a2.77,2.77,0,0,1-.05.6.85.85,0,0,1-.17.37.62.62,0,0,1-.3.19,1.51,1.51,0,0,1-.43.05c-.1,0-.16,0-.16.13a.13.13,0,0,0,0,.09.15.15,0,0,0,.12,0l.81,0,.81,0q.43,0,.81,0t.81,0a7.08,7.08,0,0,0,2-.26A4.78,4.78,0,0,0,53,53.94a4,4,0,0,0,1.13-1.4,4.41,4.41,0,0,0,.42-2A5.16,5.16,0,0,0,54.47,49.81Zm-1.56,2.26a4.09,4.09,0,0,1-.57,1.3,3.22,3.22,0,0,1-1,1,2.86,2.86,0,0,1-1.51.38,6.5,6.5,0,0,1-.71,0,5,5,0,0,1-.77-.14q0-2,0-3.95t0-3.94l.2,0,.28,0h.6a4.62,4.62,0,0,1,1.72.28,2.73,2.73,0,0,1,1.13.81A3.31,3.31,0,0,1,52.9,49a7,7,0,0,1,.19,1.71A5.76,5.76,0,0,1,52.91,52.06Z" style="fill:#fff"/><path d="M45.23,49a4.55,4.55,0,0,0-.82-1.46,4.22,4.22,0,0,0-1.35-1.06,4,4,0,0,0-1.85-.41,4,4,0,0,0-1.83.41A4.25,4.25,0,0,0,38,47.57,4.66,4.66,0,0,0,37.2,49a4.81,4.81,0,0,0-.29,1.62,5.16,5.16,0,0,0,.29,1.75,4.25,4.25,0,0,0,.85,1.44,4,4,0,0,0,1.35,1,4.33,4.33,0,0,0,1.8.36A4.23,4.23,0,0,0,43,54.8a4.15,4.15,0,0,0,1.35-1,4.28,4.28,0,0,0,.87-1.44,5,5,0,0,0,.31-1.76A5,5,0,0,0,45.23,49Zm-1.33,3.33a4.07,4.07,0,0,1-.51,1.33,2.47,2.47,0,0,1-.89.86,2.58,2.58,0,0,1-1.29.31,2.63,2.63,0,0,1-1.29-.29,2.42,2.42,0,0,1-.88-.84,3.92,3.92,0,0,1-.51-1.33,8.71,8.71,0,0,1-.16-1.75A9,9,0,0,1,38.51,49,4.22,4.22,0,0,1,39,47.7a2.65,2.65,0,0,1,.87-.93,2.42,2.42,0,0,1,1.35-.35,2.58,2.58,0,0,1,1.36.33,2.55,2.55,0,0,1,.89.91A4.08,4.08,0,0,1,43.92,49a9.28,9.28,0,0,1,.14,1.64A8.4,8.4,0,0,1,43.89,52.36Z" style="fill:#fff"/><path d="M32.13,53.52a2.29,2.29,0,0,1-.07.6.87.87,0,0,1-.2.37.7.7,0,0,1-.32.19,1.64,1.64,0,0,1-.44.05c-.1,0-.16,0-.16.13A.14.14,0,0,0,31,55a.15.15,0,0,0,.12,0L32,55l.86,0,.87,0,.89,0a.12.12,0,0,0,.13-.13.14.14,0,0,0,0-.09.13.13,0,0,0-.11,0,2.12,2.12,0,0,1-.47,0,.76.76,0,0,1-.35-.18.8.8,0,0,1-.22-.37,2.22,2.22,0,0,1-.07-.62V46.74h1.09a2.43,2.43,0,0,1,.69.08,1.08,1.08,0,0,1,.45.26,1.25,1.25,0,0,1,.28.45,2.86,2.86,0,0,1,.15.63q0,.17.14.17a.09.09,0,0,0,.1-.05.31.31,0,0,0,0-.13q0-.45,0-.87t0-.81c0-.1,0-.16-.08-.19a.45.45,0,0,0-.21,0l-1.71,0H31.21l-1.71,0a.45.45,0,0,0-.21,0q-.08,0-.08.19,0,.38,0,.8t0,.87a.31.31,0,0,0,0,.13.09.09,0,0,0,.1.05q.12,0,.14-.17a2.85,2.85,0,0,1,.15-.63,1.25,1.25,0,0,1,.28-.45,1.07,1.07,0,0,1,.46-.26,2.44,2.44,0,0,1,.69-.08h1.09Z" style="fill:#fff"/><path d="M26.86,55.62a14.83,14.83,0,0,0-2.65-4.75,13.63,13.63,0,0,0-4.35-3.44,13,13,0,0,0-6-1.32A12.82,12.82,0,0,0,8,47.43a13.74,13.74,0,0,0-4.35,3.42A15.17,15.17,0,0,0,.93,55.58,15.75,15.75,0,0,0,0,60.85a16.89,16.89,0,0,0,.95,5.7,13.86,13.86,0,0,0,2.74,4.67,13,13,0,0,0,4.37,3.17,13.92,13.92,0,0,0,5.82,1.17,13.59,13.59,0,0,0,5.72-1.17A13.42,13.42,0,0,0,24,71.24a14,14,0,0,0,2.8-4.67,16.47,16.47,0,0,0,1-5.72A16.25,16.25,0,0,0,26.86,55.62ZM22.55,66.44a13.27,13.27,0,0,1-1.64,4.32A8,8,0,0,1,18,73.56a8.29,8.29,0,0,1-4.17,1,8.45,8.45,0,0,1-4.15-1,7.83,7.83,0,0,1-2.84-2.72,12.81,12.81,0,0,1-1.64-4.32,28.52,28.52,0,0,1-.52-5.7,29.4,29.4,0,0,1,.44-5.18A13.79,13.79,0,0,1,6.67,51.3a8.6,8.6,0,0,1,2.82-3,7.79,7.79,0,0,1,4.35-1.15,8.29,8.29,0,0,1,4.41,1.09,8.26,8.26,0,0,1,2.86,3,13.3,13.3,0,0,1,1.53,4.36,30.39,30.39,0,0,1,.44,5.33A27.5,27.5,0,0,1,22.55,66.44Z" style="fill:#fff"/><path d="M117.55,78.66a1.67,1.67,0,0,1-.45.54.9.9,0,0,1-.55.22.4.4,0,0,1-.19,0,.23.23,0,0,1-.11-.11.49.49,0,0,1,0-.29,1.59,1.59,0,0,0,.77-.29.7.7,0,0,0,.35-.56q0-.29-.33-.29a1,1,0,0,0-.77.42,1.27,1.27,0,0,0-.37.82.51.51,0,0,0,.15.38.59.59,0,0,0,.43.15,1.14,1.14,0,0,0,.68-.24,1.56,1.56,0,0,0,.5-.64Zm-1-.39A.62.62,0,0,1,117,78s.08,0,.08.08a.61.61,0,0,1-.29.46,1.12,1.12,0,0,1-.54.26A1.56,1.56,0,0,1,116.6,78.27Z" style="fill:#fff"/><path d="M113,79.49a.49.49,0,0,0,.18,0,3,3,0,0,1,.47-.84q.32-.4.5-.4t.09.14a1.86,1.86,0,0,1-.15.55,4,4,0,0,0-.15.42s0,.06.09.08l.17,0,.1-.19a2.15,2.15,0,0,1,.14-.23,4.32,4.32,0,0,1,.34-.46.34.34,0,0,1,.22-.14c.07,0,.1,0,.1.13a1.15,1.15,0,0,1-.06.27,1.14,1.14,0,0,0-.06.3.35.35,0,0,0,.09.25.33.33,0,0,0,.25.1.59.59,0,0,0,.46-.24,2,2,0,0,0,.33-.56l-.08-.09q-.32.68-.59.68c-.07,0-.11,0-.11-.12a1.46,1.46,0,0,1,.07-.3,1.35,1.35,0,0,0,.07-.36.39.39,0,0,0-.07-.24.27.27,0,0,0-.23-.1q-.33,0-.64.46a1.24,1.24,0,0,0,.07-.36q0-.38-.28-.38t-.86.69a1.86,1.86,0,0,0,.06-.32.13.13,0,0,0,0-.1.16.16,0,0,0-.11,0,.36.36,0,0,0-.15,0c-.05,0-.09.05-.09.09l-.27,1.12s0,0,.1.07" style="fill:#fff"/><path d="M113.06,78.67a.55.55,0,0,1-.48.33.28.28,0,0,1-.13,0,1.42,1.42,0,0,0,.31-.75.38.38,0,0,0-.09-.26.35.35,0,0,0-.27-.1.4.4,0,0,0-.32.13.63.63,0,0,0-.14.34l-.14,0q-.19,0-.36.28a1.09,1.09,0,0,0-.17.57.52.52,0,0,0,.08.3.29.29,0,0,0,.26.12,1,1,0,0,0,.73-.44.74.74,0,0,0,.22,0,.56.56,0,0,0,.32-.11.74.74,0,0,0,.25-.32Zm-1.29.66c-.1,0-.15-.07-.15-.2a1.18,1.18,0,0,1,.11-.45.67.67,0,0,1,.2-.31.87.87,0,0,0,.26.65Q111.92,79.33,111.77,79.33Zm.53-.45a.54.54,0,0,1-.09-.2.88.88,0,0,1,0-.23.51.51,0,0,1,.08-.3.23.23,0,0,1,.18-.12c.08,0,.12.06.12.19A1.19,1.19,0,0,1,112.3,78.88Z" style="fill:#fff"/><path d="M111.42,78.64a1.76,1.76,0,0,1-.35.5.59.59,0,0,1-.36.21h0q-.11,0-.11-.14a1.06,1.06,0,0,1,.09-.32,1.09,1.09,0,0,0,.09-.38.49.49,0,0,0-.09-.3.34.34,0,0,0-.29-.13.57.57,0,0,0-.31.09.82.82,0,0,0-.24.24,2.52,2.52,0,0,0-.16.28q-.07.13-.11.26l-.05.14v0s0,0,0,0a2.09,2.09,0,0,1,.15-.74,2.1,2.1,0,0,0,.71-.78,1.93,1.93,0,0,0,.33-.88.47.47,0,0,0,0-.22.15.15,0,0,0-.13-.1q-.2,0-.53.53a6.55,6.55,0,0,0-.58,1.21,3.36,3.36,0,0,0-.25,1.07,1.21,1.21,0,0,0,0,.36c0,.09.07.14.14.14s.15-.06.22-.19a2.26,2.26,0,0,0,.19-.41,1.68,1.68,0,0,1,.21-.41.36.36,0,0,1,.28-.19q.16,0,.16.19a1.42,1.42,0,0,1-.06.32,1.41,1.41,0,0,0-.06.32.29.29,0,0,0,.09.22.36.36,0,0,0,.26.09.7.7,0,0,0,.5-.22,1.89,1.89,0,0,0,.39-.59Zm-1.29-1.51a1.31,1.31,0,0,1,.34-.44,1.59,1.59,0,0,1-.24.6,2.53,2.53,0,0,1-.5.67A4.08,4.08,0,0,1,110.13,77.12Z" style="fill:#fff"/><path d="M106.44,79a5.29,5.29,0,0,0,.41-.82q.22.11.22.28a1.19,1.19,0,0,1-.12.38,1.16,1.16,0,0,0-.12.41.3.3,0,0,0,.1.23.38.38,0,0,0,.26.09.88.88,0,0,0,.57-.24,1.55,1.55,0,0,0,.42-.55l-.11-.08a1.4,1.4,0,0,1-.34.43.68.68,0,0,1-.43.22q-.11,0-.11-.1a1.08,1.08,0,0,1,.12-.32,1,1,0,0,0,.12-.39.39.39,0,0,0-.07-.23.55.55,0,0,0-.16-.16L107,78q-.08-.05-.08-.09l0-.08a.3.3,0,0,0,0-.09.18.18,0,0,0,0-.09.1.1,0,0,0-.08-.05s-.08,0-.13.1a.39.39,0,0,0-.07.22.17.17,0,0,0,0,.12,5.09,5.09,0,0,1-.36.8Z" style="fill:#fff"/><path d="M104.54,79.41a.29.29,0,0,0,.24.14.36.36,0,0,0,.21-.08.92.92,0,0,0,.18-.17l.17-.24q0,.08,0,.14a.67.67,0,0,0,0,.13.34.34,0,0,0,0,.12.27.27,0,0,0,.09.08.29.29,0,0,0,.14,0,.78.78,0,0,0,.51-.24,1.66,1.66,0,0,0,.41-.6l-.07-.05a1.7,1.7,0,0,1-.37.51.6.6,0,0,1-.36.2h0q-.11,0-.11-.15a1.16,1.16,0,0,1,.06-.33c0-.14.08-.25.13-.36l.06-.17q0-.11-.24-.15-.1.22-.21.44a3,3,0,0,1-.28.44q-.17.22-.28.22c-.09,0-.13-.09-.13-.26a1.25,1.25,0,0,1,.1-.44,2,2,0,0,1,.19-.39.32.32,0,0,0-.21-.11q-.11,0-.26.37a1.75,1.75,0,0,0-.15.62.54.54,0,0,0,.1.32" style="fill:#fff"/><path d="M104.52,78.67A.55.55,0,0,1,104,79a.28.28,0,0,1-.13,0,1.42,1.42,0,0,0,.31-.75.38.38,0,0,0-.09-.26.35.35,0,0,0-.27-.1.4.4,0,0,0-.32.13.63.63,0,0,0-.14.34l-.14,0q-.19,0-.36.28a1.09,1.09,0,0,0-.17.57.52.52,0,0,0,.08.3.29.29,0,0,0,.26.12,1,1,0,0,0,.73-.44.74.74,0,0,0,.22,0,.56.56,0,0,0,.33-.11.74.74,0,0,0,.25-.32Zm-1.29.66c-.1,0-.15-.07-.15-.2a1.18,1.18,0,0,1,.11-.45.67.67,0,0,1,.2-.31.87.87,0,0,0,.26.65Q103.39,79.33,103.24,79.33Zm.53-.45a.55.55,0,0,1-.09-.2.91.91,0,0,1,0-.23.51.51,0,0,1,.08-.3.23.23,0,0,1,.18-.12q.13,0,.13.19A1.19,1.19,0,0,1,103.77,78.88Z" style="fill:#fff"/><path d="M102.85,78.68a1.25,1.25,0,0,1-.71.74q.13-.35.23-.72a3,3,0,0,0,.1-.48l-.14,0a.21.21,0,0,0-.15.06.28.28,0,0,0-.08.12,1.45,1.45,0,0,0,0,.15l0,.1q-.33.53-.58.53h0q-.12,0-.12-.16a1.31,1.31,0,0,1,.1-.42,1.7,1.7,0,0,1,.18-.38.2.2,0,0,0-.11-.1.32.32,0,0,0-.13,0q-.11,0-.26.36a1.63,1.63,0,0,0-.15.6.33.33,0,0,0,.12.28.42.42,0,0,0,.26.09q.29,0,.63-.48-.14.5-.21.69l-.24.12-.23.12a1.1,1.1,0,0,0-.22.16.9.9,0,0,0-.13.17.39.39,0,0,0-.06.21.27.27,0,0,0,.09.22.32.32,0,0,0,.21.07q.44,0,.88-1.06a1.39,1.39,0,0,0,.84-.85ZM101.4,80.3q-.15.19-.24.19c-.06,0-.09,0-.09-.12s.21-.37.63-.58A2.36,2.36,0,0,1,101.4,80.3Z" style="fill:#fff"/><path d="M99.93,78.67a1.35,1.35,0,0,1-.32.43.65.65,0,0,1-.42.22c-.07,0-.11,0-.11-.1a1.15,1.15,0,0,1,.11-.32,1.07,1.07,0,0,0,.11-.39.39.39,0,0,0-.08-.23.56.56,0,0,0-.16-.16L98.88,78q-.08-.05-.08-.09l0-.08a.26.26,0,0,0,0-.08q0-.14-.1-.14s-.08,0-.13.1a.36.36,0,0,0-.08.23.18.18,0,0,0,0,.11q-.06.19-.11.32a2.47,2.47,0,0,1-.14.29.67.67,0,0,1-.22.24.52.52,0,0,1-.29.08l-.13,0a1.34,1.34,0,0,0,.28-.74.32.32,0,0,0-.35-.36.4.4,0,0,0-.31.13.61.61,0,0,0-.15.34l-.13,0q-.2,0-.36.28a1.1,1.1,0,0,0-.17.57.45.45,0,0,0,.1.3.36.36,0,0,0,.29.12,1,1,0,0,0,.7-.44.56.56,0,0,0,.21,0,.64.64,0,0,0,.22,0l.17-.09a.63.63,0,0,0,.15-.15l.11-.16a1.42,1.42,0,0,0,.09-.2l.07-.19.07-.19a.36.36,0,0,1,.23.3,1.23,1.23,0,0,1-.11.37,1.21,1.21,0,0,0-.11.4.28.28,0,0,0,.1.23.39.39,0,0,0,.26.09.78.78,0,0,0,.54-.24,1.82,1.82,0,0,0,.41-.56ZM97,79.33q-.14,0-.14-.23a1,1,0,0,1,.11-.38,1.47,1.47,0,0,1,.21-.36.81.81,0,0,0,.27.65Q97.17,79.33,97,79.33Zm.58-.48a.68.68,0,0,1-.16-.42.47.47,0,0,1,.08-.28.22.22,0,0,1,.17-.11.1.1,0,0,1,.08.05.27.27,0,0,1,0,.15A1.08,1.08,0,0,1,97.58,78.85Z" style="fill:#fff"/><path d="M96.3,79a.38.38,0,0,1-.26.11.3.3,0,0,1-.16,0,.31.31,0,0,1-.11-.15,1.23,1.23,0,0,1-.06-.19q0-.09-.05-.27a.18.18,0,0,0-.11-.15l.07-.18a3.41,3.41,0,0,0,.83-.79,1.49,1.49,0,0,0,.37-.85q0-.22-.19-.22t-.63.5a5.92,5.92,0,0,0-.63,1.16,12.77,12.77,0,0,0-.47,1.32,4,4,0,0,0-.19,1,.49.49,0,0,0,.09.34.27.27,0,0,0,.2.09.45.45,0,0,0,.34-.22,1.79,1.79,0,0,0,.27-.57,2.63,2.63,0,0,0,.11-.71.54.54,0,0,0,.31.12.54.54,0,0,0,.33-.14,1.15,1.15,0,0,0,.31-.41l-.1-.07A1.52,1.52,0,0,1,96.3,79Zm-.12-2.06q.22-.33.37-.33a0,0,0,0,1,0,0,1.13,1.13,0,0,1-.24.48,4.21,4.21,0,0,1-.61.69A5.54,5.54,0,0,1,96.18,76.93Zm-.8,3q-.14.44-.26.44S95,80.3,95,80.18a5.27,5.27,0,0,1,.35-1.47.92.92,0,0,1,.13.45A2.56,2.56,0,0,1,95.38,79.93Z" style="fill:#fff"/><path d="M94,78.59a.87.87,0,0,1-.52.5,1.13,1.13,0,0,0,0-.18,1.83,1.83,0,0,0-.13-.57,1.86,1.86,0,0,1-.13-.48.45.45,0,0,1,0-.09V77.7a.09.09,0,0,0-.11-.09q-.2,0-.2.32v0a2.21,2.21,0,0,1-.42.6l-.09,0a.31.31,0,0,0-.14.11.41.41,0,0,0-.06.23.65.65,0,0,0,.15.43.55.55,0,0,0,.45.18.73.73,0,0,0,.37-.09.52.52,0,0,0,.23-.27.78.78,0,0,0,.61-.59Zm-1.19.79a.28.28,0,0,1-.24-.12.47.47,0,0,1-.09-.28c0-.07,0-.11.06-.12a1,1,0,0,0,.23.21.86.86,0,0,0,.32.13A.3.3,0,0,1,92.82,79.38Zm.32-.3a.83.83,0,0,1-.52-.37,3,3,0,0,0,.38-.55l0,.19.05.22,0,.18a1.34,1.34,0,0,1,0,.2A.48.48,0,0,1,93.14,79.07Z" style="fill:#fff"/><path d="M91.1,79.5a.42.42,0,0,0,.32.12.88.88,0,0,0,.59-.26,1.94,1.94,0,0,0,.47-.67l-.06,0a1.74,1.74,0,0,1-.4.55.7.7,0,0,1-.45.2.21.21,0,0,1-.18-.08.44.44,0,0,1-.06-.26,2.44,2.44,0,0,1,.23-.89q.36,0,.89,0V78q-.3,0-.81,0,.09-.19.25-.45l.24-.42a.57.57,0,0,0,.08-.24.12.12,0,0,0-.12-.13q-.14,0-.37.36a5.14,5.14,0,0,0-.43.86l-.21,0v.14l.15,0a3.26,3.26,0,0,0-.24,1,.48.48,0,0,0,.11.35" style="fill:#fff"/><path d="M90.3,78.63a3,3,0,0,0,.6-.67,4.33,4.33,0,0,0,.44-.79,1.69,1.69,0,0,0,.15-.58.63.63,0,0,0-.06-.24c0-.08-.08-.12-.13-.12s-.28.17-.5.52A7.08,7.08,0,0,0,90.17,78a3.17,3.17,0,0,0-.28,1.1q0,.46.37.46a.7.7,0,0,0,.48-.22,2.14,2.14,0,0,0,.43-.62l-.11-.06a2.25,2.25,0,0,1-.31.5.47.47,0,0,1-.33.21q-.19,0-.19-.3h0A2.36,2.36,0,0,1,90.3,78.63Zm.39-1.06a6,6,0,0,1,.36-.67q.17-.26.22-.26a2.08,2.08,0,0,1-.28.78,4.14,4.14,0,0,1-.63.93A6,6,0,0,1,90.69,77.57Z" style="fill:#fff"/><path d="M89.5,77.52a.27.27,0,0,0,.16,0,.33.33,0,0,0,.22-.09.24.24,0,0,0,.1-.18q0-.16-.19-.16a.41.41,0,0,0-.24.08.22.22,0,0,0-.11.18.15.15,0,0,0,.06.13" style="fill:#fff"/><path d="M88.85,79.44a.38.38,0,0,0,.29.11.74.74,0,0,0,.51-.22,1.59,1.59,0,0,0,.39-.6L90,78.66q-.34.68-.69.68a.2.2,0,0,1-.15,0,.27.27,0,0,1,0-.19,1,1,0,0,1,.11-.4q.11-.23.22-.42a.67.67,0,0,0,.11-.24.12.12,0,0,0,0-.09.14.14,0,0,0-.09,0q-.15,0-.31.24a2.18,2.18,0,0,0-.25.53,1.61,1.61,0,0,0-.09.47.4.4,0,0,0,.1.28" style="fill:#fff"/><path d="M86.89,79.41a.29.29,0,0,0,.24.14.36.36,0,0,0,.21-.08.94.94,0,0,0,.18-.17l.17-.24c0,.06,0,.1,0,.14a.7.7,0,0,0,0,.13.35.35,0,0,0,0,.12.27.27,0,0,0,.09.08.29.29,0,0,0,.14,0,.78.78,0,0,0,.51-.24,1.66,1.66,0,0,0,.41-.6l-.07-.05a1.71,1.71,0,0,1-.37.51.6.6,0,0,1-.36.2h0q-.11,0-.11-.15a1.16,1.16,0,0,1,.06-.33q.06-.2.13-.36l.06-.17q0-.11-.24-.15-.1.22-.21.44a3,3,0,0,1-.28.44q-.17.22-.28.22t-.13-.26a1.25,1.25,0,0,1,.1-.44,2,2,0,0,1,.19-.39.32.32,0,0,0-.21-.11q-.11,0-.26.37a1.75,1.75,0,0,0-.15.62.54.54,0,0,0,.1.32" style="fill:#fff"/><path d="M86.94,78.73l-.08-.07a1,1,0,0,1-.72.61,2.12,2.12,0,0,1,.23-.56,1,1,0,0,0,.16-.35.1.1,0,0,0-.09-.11.17.17,0,0,0,.09-.17.21.21,0,0,0-.11-.18.54.54,0,0,0-.29-.07,1,1,0,0,0-.6.22,1.77,1.77,0,0,0-.49.53,1.12,1.12,0,0,0-.18.57.4.4,0,0,0,.12.31.37.37,0,0,0,.25.11q.25,0,.64-.51a5.83,5.83,0,0,0-.13.67,4.37,4.37,0,0,0-.05.57c0,.23.06.34.17.34s.2-.07.26-.22a1.31,1.31,0,0,0,.1-.55,1.37,1.37,0,0,0-.08-.47A1.11,1.11,0,0,0,86.94,78.73Zm-1,1.63s0,0,0-.09a3,3,0,0,1,.08-.62,1.31,1.31,0,0,1,0,.21Q86,80.37,85.95,80.37Zm0-1.65-.19.27a1.2,1.2,0,0,1-.21.23.29.29,0,0,1-.17.07.12.12,0,0,1-.11-.05.24.24,0,0,1,0-.14.87.87,0,0,1,.07-.3,1.92,1.92,0,0,1,.18-.35,1.1,1.1,0,0,1,.28-.3.58.58,0,0,1,.34-.12.27.27,0,0,1,.18.06.19.19,0,0,1,.07.15s-.1.05-.17.16Z" style="fill:#fff"/><path d="M83.11,78.63a3,3,0,0,0,.6-.67,4.33,4.33,0,0,0,.44-.79,1.68,1.68,0,0,0,.15-.58.62.62,0,0,0-.06-.24q-.05-.12-.13-.12t-.5.52A7.1,7.1,0,0,0,83,78a3.17,3.17,0,0,0-.28,1.1q0,.46.37.46a.7.7,0,0,0,.48-.22,2.14,2.14,0,0,0,.43-.62l-.11-.06a2.22,2.22,0,0,1-.31.5.47.47,0,0,1-.33.21q-.19,0-.19-.3h0A2.35,2.35,0,0,1,83.11,78.63Zm.39-1.06a5.94,5.94,0,0,1,.36-.67q.17-.26.22-.26a2.09,2.09,0,0,1-.28.78,4.16,4.16,0,0,1-.63.93A6.09,6.09,0,0,1,83.51,77.57Z" style="fill:#fff"/><path d="M80.81,79.41a.29.29,0,0,0,.24.14.36.36,0,0,0,.21-.08.93.93,0,0,0,.18-.17l.17-.24c0,.06,0,.1,0,.14a.68.68,0,0,0,0,.13.35.35,0,0,0,0,.12.27.27,0,0,0,.09.08.29.29,0,0,0,.14,0,.78.78,0,0,0,.51-.24,1.66,1.66,0,0,0,.41-.6l-.07-.05a1.71,1.71,0,0,1-.37.51.6.6,0,0,1-.36.2h0c-.08,0-.11,0-.11-.15a1.17,1.17,0,0,1,.06-.33q.06-.2.13-.36l.06-.17q0-.11-.24-.15-.1.22-.21.44a3,3,0,0,1-.28.44q-.17.22-.28.22T81,79.05a1.25,1.25,0,0,1,.1-.44,2,2,0,0,1,.19-.39.32.32,0,0,0-.21-.11q-.11,0-.26.37a1.75,1.75,0,0,0-.15.62.54.54,0,0,0,.1.32" style="fill:#fff"/><path d="M80.54,79a.38.38,0,0,1-.26.11.3.3,0,0,1-.16,0A.31.31,0,0,1,80,78.9a1.21,1.21,0,0,1-.06-.19q0-.09-.05-.27a.18.18,0,0,0-.11-.15l.07-.18a3.41,3.41,0,0,0,.84-.79,1.49,1.49,0,0,0,.37-.85q0-.22-.18-.22t-.63.5a5.93,5.93,0,0,0-.63,1.16,12.81,12.81,0,0,0-.47,1.32,4,4,0,0,0-.19,1,.49.49,0,0,0,.09.34.27.27,0,0,0,.2.09.45.45,0,0,0,.34-.22,1.8,1.8,0,0,0,.27-.57,2.62,2.62,0,0,0,.11-.71.54.54,0,0,0,.31.12.54.54,0,0,0,.33-.14,1.15,1.15,0,0,0,.31-.41l-.1-.07A1.51,1.51,0,0,1,80.54,79Zm-.12-2.06q.22-.33.37-.33a0,0,0,0,1,0,0,1.13,1.13,0,0,1-.24.48,4.2,4.2,0,0,1-.61.69A5.57,5.57,0,0,1,80.42,76.93Zm-.8,3q-.14.44-.26.44s-.07-.06-.07-.19a5.26,5.26,0,0,1,.35-1.47.92.92,0,0,1,.13.45A2.57,2.57,0,0,1,79.62,79.93Z" style="fill:#fff"/><path d="M78.85,77.52a.27.27,0,0,0,.16,0,.34.34,0,0,0,.22-.09.24.24,0,0,0,.1-.18c0-.11-.06-.16-.19-.16a.42.42,0,0,0-.24.08.22.22,0,0,0-.11.18.14.14,0,0,0,.06.13" style="fill:#fff"/><path d="M78.2,79.44a.38.38,0,0,0,.29.11.75.75,0,0,0,.51-.22,1.6,1.6,0,0,0,.39-.6l-.07-.07q-.34.68-.69.68a.2.2,0,0,1-.15,0,.27.27,0,0,1,0-.19.94.94,0,0,1,.11-.4q.11-.23.22-.42a.67.67,0,0,0,.11-.24.12.12,0,0,0,0-.09.14.14,0,0,0-.09,0c-.1,0-.21.08-.31.24a2.17,2.17,0,0,0-.25.53,1.6,1.6,0,0,0-.09.47.4.4,0,0,0,.1.28" style="fill:#fff"/><path d="M76.9,79.5a.42.42,0,0,0,.32.12.88.88,0,0,0,.6-.26,2,2,0,0,0,.47-.67l-.06,0a1.75,1.75,0,0,1-.4.55.7.7,0,0,1-.45.2.21.21,0,0,1-.18-.08.44.44,0,0,1-.06-.26,2.43,2.43,0,0,1,.23-.89q.36,0,.89,0V78q-.3,0-.81,0,.09-.19.25-.45l.24-.42A.57.57,0,0,0,78,76.9a.12.12,0,0,0-.12-.13q-.14,0-.37.36a5.14,5.14,0,0,0-.43.86l-.21,0v.14l.15,0a3.24,3.24,0,0,0-.24,1,.48.48,0,0,0,.11.35" style="fill:#fff"/><path d="M74.92,79.41a.29.29,0,0,0,.24.14.36.36,0,0,0,.21-.08.94.94,0,0,0,.18-.17l.17-.24q0,.08,0,.14a.7.7,0,0,0,0,.13.34.34,0,0,0,0,.12.27.27,0,0,0,.09.08.29.29,0,0,0,.14,0,.78.78,0,0,0,.51-.24,1.66,1.66,0,0,0,.41-.6l-.07-.05a1.7,1.7,0,0,1-.37.51.6.6,0,0,1-.36.2h0q-.11,0-.11-.15a1.18,1.18,0,0,1,.06-.33q.06-.2.13-.36l.06-.17q0-.11-.24-.15-.1.22-.21.44a3,3,0,0,1-.28.44q-.17.22-.28.22c-.09,0-.13-.09-.13-.26a1.25,1.25,0,0,1,.1-.44,2,2,0,0,1,.19-.39.32.32,0,0,0-.21-.11q-.11,0-.26.37a1.75,1.75,0,0,0-.15.62.54.54,0,0,0,.1.32" style="fill:#fff"/><path d="M74.9,78.65a1.84,1.84,0,0,1-.37.51.54.54,0,0,1-.32.17c-.09,0-.13-.05-.13-.16a.74.74,0,0,1,.12-.32.87.87,0,0,0,.12-.27q0-.08-.15-.13.24,0,.24-.21a.31.31,0,0,0-.13-.26.49.49,0,0,0-.32-.1,1,1,0,0,0-.59.22,1.79,1.79,0,0,0-.48.54,1.16,1.16,0,0,0-.18.57.38.38,0,0,0,.1.29.36.36,0,0,0,.26.1.48.48,0,0,0,.3-.11,2.42,2.42,0,0,0,.34-.35.42.42,0,0,0,.09.27.32.32,0,0,0,.27.12.73.73,0,0,0,.49-.22,1.75,1.75,0,0,0,.41-.59Zm-1,.14-.13.17-.15.17-.14.13-.14.1a.27.27,0,0,1-.12,0q-.1,0-.1-.14a1.37,1.37,0,0,1,.31-.76q.31-.43.6-.43t.19.23a.52.52,0,0,1,0,.16h0l0,0-.11.14Z" style="fill:#fff"/><path d="M72.9,78.66a1.67,1.67,0,0,1-.45.54.9.9,0,0,1-.55.22.4.4,0,0,1-.19,0,.23.23,0,0,1-.11-.11.48.48,0,0,1,0-.11.54.54,0,0,1,0-.19,1.59,1.59,0,0,0,.77-.29.7.7,0,0,0,.35-.56q0-.29-.33-.29a1,1,0,0,0-.77.42,1.27,1.27,0,0,0-.37.82.51.51,0,0,0,.15.38.59.59,0,0,0,.43.15,1.14,1.14,0,0,0,.68-.24,1.56,1.56,0,0,0,.5-.64Zm-1-.39a.62.62,0,0,1,.43-.26q.08,0,.08.08a.61.61,0,0,1-.29.46,1.12,1.12,0,0,1-.54.26A1.56,1.56,0,0,1,71.94,78.27Z" style="fill:#fff"/><path d="M71.37,78.64q-.24.49-.57.49h-.08a1.3,1.3,0,0,0,.13-.56.52.52,0,0,0-.09-.33.29.29,0,0,0-.24-.11.35.35,0,0,0-.28.13.52.52,0,0,0-.11.35.71.71,0,0,0,.08.34.6.6,0,0,0,.24.24.82.82,0,0,1-.21.26.39.39,0,0,1-.24.1q-.23,0-.23-.43a2,2,0,0,1,.07-.5,1.87,1.87,0,0,1,.13-.38,1.71,1.71,0,0,0,.5-.47,3.1,3.1,0,0,0,.38-.65,1.49,1.49,0,0,0,.14-.54.52.52,0,0,0,0-.21.14.14,0,0,0-.13-.09q-.19,0-.53.54a6.81,6.81,0,0,0-.6,1.23,3.38,3.38,0,0,0-.26,1.11.64.64,0,0,0,.13.43.48.48,0,0,0,.38.15.85.85,0,0,0,.72-.48h.09a.63.63,0,0,0,.41-.13,1,1,0,0,0,.28-.4Zm-.93-1.51q.25-.41.34-.45a1.71,1.71,0,0,1-.23.61,2.51,2.51,0,0,1-.49.67A4,4,0,0,1,70.44,77.13ZM70.53,79a.47.47,0,0,1-.19-.41.39.39,0,0,1,0-.19q0-.08.1-.08t.13.31A.89.89,0,0,1,70.53,79Z" style="fill:#fff"/><path d="M68.42,78.66a1.66,1.66,0,0,1-.45.54.9.9,0,0,1-.55.22.4.4,0,0,1-.19,0,.22.22,0,0,1-.11-.11.5.5,0,0,1,0-.11.49.49,0,0,1,0-.08.51.51,0,0,1,0-.1,1.59,1.59,0,0,0,.77-.29.7.7,0,0,0,.35-.56q0-.29-.33-.29a1,1,0,0,0-.77.42,1.27,1.27,0,0,0-.37.82.51.51,0,0,0,.15.38.59.59,0,0,0,.43.15,1.14,1.14,0,0,0,.68-.24,1.56,1.56,0,0,0,.5-.64Zm-1-.39a.62.62,0,0,1,.43-.26s.07,0,.07.08a.61.61,0,0,1-.29.46,1.12,1.12,0,0,1-.54.26A1.56,1.56,0,0,1,67.47,78.27Z" style="fill:#fff"/><path d="M65.58,79.5a.42.42,0,0,0,.32.12.88.88,0,0,0,.59-.26,1.94,1.94,0,0,0,.47-.67l-.06,0a1.75,1.75,0,0,1-.4.55.7.7,0,0,1-.45.2.21.21,0,0,1-.18-.08.44.44,0,0,1-.06-.26,2.44,2.44,0,0,1,.23-.89q.36,0,.89,0V78q-.3,0-.81,0,.09-.19.25-.45l.24-.42a.57.57,0,0,0,.08-.24.12.12,0,0,0-.12-.13q-.14,0-.37.36a5.15,5.15,0,0,0-.43.86l-.21,0v.14l.15,0a3.26,3.26,0,0,0-.24,1,.48.48,0,0,0,.11.35" style="fill:#fff"/><path d="M65.55,78.65a1.83,1.83,0,0,1-.37.51.54.54,0,0,1-.32.17q-.13,0-.13-.16a.74.74,0,0,1,.12-.32.87.87,0,0,0,.12-.27c0-.05,0-.1-.15-.13q.23,0,.23-.21a.31.31,0,0,0-.13-.26.49.49,0,0,0-.31-.1,1,1,0,0,0-.59.22,1.79,1.79,0,0,0-.48.54,1.16,1.16,0,0,0-.18.57.38.38,0,0,0,.1.29.35.35,0,0,0,.26.1.48.48,0,0,0,.3-.11,2.4,2.4,0,0,0,.34-.35.42.42,0,0,0,.09.27.32.32,0,0,0,.27.12.73.73,0,0,0,.49-.22,1.77,1.77,0,0,0,.41-.59Zm-1,.14-.13.17-.15.17-.14.13-.14.1a.27.27,0,0,1-.12,0c-.07,0-.1,0-.1-.14A1.37,1.37,0,0,1,64,78.5q.31-.43.6-.43t.19.23a.52.52,0,0,1,0,.16h0l0,0-.1.14Z" style="fill:#fff"/><path d="M63.56,78.66a1.67,1.67,0,0,1-.45.54.9.9,0,0,1-.55.22.4.4,0,0,1-.19,0,.23.23,0,0,1-.11-.11.51.51,0,0,1,0-.11.52.52,0,0,1,0-.08.53.53,0,0,1,0-.1,1.59,1.59,0,0,0,.77-.29.7.7,0,0,0,.35-.56c0-.19-.11-.29-.33-.29a1,1,0,0,0-.77.42,1.27,1.27,0,0,0-.37.82.5.5,0,0,0,.15.38.59.59,0,0,0,.43.15,1.14,1.14,0,0,0,.68-.24,1.56,1.56,0,0,0,.5-.64Zm-1-.39A.62.62,0,0,1,63,78s.08,0,.08.08a.61.61,0,0,1-.29.46,1.12,1.12,0,0,1-.54.26A1.56,1.56,0,0,1,62.61,78.27Z" style="fill:#fff"/><path d="M60.35,79a5.28,5.28,0,0,0,.41-.82q.22.11.22.28a1.19,1.19,0,0,1-.12.38,1.16,1.16,0,0,0-.12.41.3.3,0,0,0,.1.23.38.38,0,0,0,.26.09.88.88,0,0,0,.57-.24,1.55,1.55,0,0,0,.42-.55L62,78.66a1.39,1.39,0,0,1-.34.43.68.68,0,0,1-.43.22q-.11,0-.11-.1a1.07,1.07,0,0,1,.12-.32,1,1,0,0,0,.12-.39.39.39,0,0,0-.07-.23.54.54,0,0,0-.16-.16L60.92,78q-.08-.05-.08-.09l0-.08a.31.31,0,0,0,0-.09.18.18,0,0,0,0-.09.1.1,0,0,0-.08-.05s-.08,0-.13.1a.39.39,0,0,0-.07.22.17.17,0,0,0,0,.12,5.15,5.15,0,0,1-.36.8Z" style="fill:#fff"/><path d="M58.34,79.48a.85.85,0,0,0,.72.32,1.27,1.27,0,0,0,.82-.3,2.46,2.46,0,0,0,.62-.78l-.11-.07a1.88,1.88,0,0,1-.53.66,1.1,1.1,0,0,1-.69.28.54.54,0,0,1-.48-.24,1.06,1.06,0,0,1-.16-.59,2.62,2.62,0,0,1,.23-1,3.08,3.08,0,0,1,.58-.92,1,1,0,0,1,.66-.37q.2,0,.2.17A.86.86,0,0,1,60,77a3,3,0,0,1-.32.44.21.21,0,0,0,.18.14q.19,0,.37-.33a1.34,1.34,0,0,0,.18-.62q0-.41-.46-.41a1.37,1.37,0,0,0-.88.37,2.82,2.82,0,0,0-.72.95,2.63,2.63,0,0,0-.28,1.15,1.23,1.23,0,0,0,.24.77" style="fill:#fff"/></g></svg>