<?xml version="1.0" encoding="UTF-8" standalone="no"?>
<svg width="255px" height="121px" viewBox="0 0 255 121" version="1.1" xmlns="http://www.w3.org/2000/svg" xmlns:xlink="http://www.w3.org/1999/xlink">
    <!-- Generator: Sketch 41.2 (35397) - http://www.bohemiancoding.com/sketch -->
    <title>Logo_SewingQuarter</title>
    <desc>Created with Sketch.</desc>
    <defs>
        <polygon id="path-1" points="32.0447477 39.454957 32.0447477 0.113016875 0.0159509452 0.113016875 0.0159509452 39.454957 32.0447477 39.454957"></polygon>
    </defs>
    <g id="Ibiza-Visual-Design-Home-Page" stroke="none" stroke-width="1" fill="none" fill-rule="evenodd">
        <g id="18-Error-Page-404-1366px" transform="translate(-542.000000, -130.000000)">
            <g id="Logo_SewingQuarter" transform="translate(542.000000, 130.000000)">
                <path d="M89.1410529,33.2375995 C89.3124321,35.6996641 88.1192206,37.9065303 84.3733609,40.6229369 C82.3301257,42.2363385 78.582548,44.1888628 74.8349702,45.7166274 C77.7303767,39.8590546 83.8626595,34.5118785 89.1410529,33.2375995 M87.0973882,44.0188733 C92.5471608,40.6229369 94.3352601,37.9921673 94.3352601,35.954006 C94.3352601,34.0023382 93.229671,32.4737172 91.3560969,30.8611719 C88.9709623,27.2956742 87.1832926,26.5317919 84.8844919,26.5317919 C79.0932494,26.5317919 70.7480703,31.6250542 65.9808078,37.9065303 C62.3187049,42.8302313 61.1254933,48.0082743 62.4028911,50.8946703 C63.6798595,53.8658471 66.2359437,56.5826818 68.7903099,57.8556763 C70.2373688,58.6195586 71.9412818,58.9595376 74.1541782,58.9595376 C78.582548,58.9595376 82.5852616,57.0070133 85.7345155,54.5453769 C86.8418227,53.6958576 87.3529537,53.0176123 87.693994,51.9981035 C87.9495595,51.1494405 88.0354638,50.3855582 88.0354638,49.8764461 C88.0354638,49.5360389 87.9495595,49.2816969 87.7798983,49.2816969 C87.5243329,49.2816969 87.2691969,49.7060284 85.9058947,50.5555477 C83.4357148,52.2524454 79.7740414,53.4415156 76.7089739,53.4415156 C75.431576,53.4415156 74.1541782,53.2723825 73.1327753,52.9319753 C73.046871,51.9133228 73.1327753,50.8946703 73.3024364,49.790809 C79.0077745,48.0939113 83.9464162,45.9713975 87.0973882,44.0188733" id="Fill-1" fill="#00BCB4"></path>
                <path d="M145.235403,27.4318765 C145.494383,26.5734886 145.924855,25.5426433 145.924855,25.2848237 C145.924855,25.027004 145.665875,24.9403419 145.235403,25.2848237 C139.625763,29.4077717 129.788002,37.9123539 122.281497,46.4165028 C123.403599,42.723832 124.956609,39.1152234 126.33595,36.1942784 C127.371435,33.9614301 127.286559,32.7585606 126.59493,32.4145122 C126.07697,32.1566925 122.799022,31.5556911 121.67692,31.3836669 C120.728487,31.2125093 120.210527,31.2125093 119.518898,32.0713304 C116.930838,35.3354572 112.702281,39.8882491 108.043251,44.0974259 C109.854805,39.4592719 111.149271,35.678639 111.408251,34.5624316 C112.012828,31.9855349 112.099445,29.6655913 111.149271,28.2915642 C110.113785,26.4876932 106.317877,26.2298735 104.67825,25.5426433 C103.383785,25.027004 103.12524,26.1436448 102.951572,26.9166704 C101.916086,31.4703289 96.1345192,41.9503731 94.1506012,47.4486481 C92.1649421,52.9464898 92.510539,53.8906731 94.9271062,56.3817743 C96.5671683,58.1856453 97.6022181,58.9595376 98.8966833,58.9595376 C100.621621,58.9595376 102.86626,57.756668 104.937231,54.7499275 C107.871323,50.5407508 110.803674,46.5031649 113.39391,43.0670138 C112.617405,46.5031649 111.925776,50.1109069 111.753848,52.8598278 C111.58192,54.4925412 111.753848,55.7807728 112.702281,56.2106167 C113.565838,56.5537985 117.102766,57.4992817 117.881012,57.4992817 C119.777878,57.4992817 121.504557,56.5537985 123.921559,53.2896716 C131.515116,43.0670138 135.828549,38.0843781 141.179209,32.5865364 C144.543773,29.149952 144.88937,28.5493838 145.235403,27.4318765" id="Fill-3" fill="#00BCB4"></path>
                <path d="M159.438306,19.6844911 C160.014062,20.1171991 161.744657,20.6358382 162.899495,20.6358382 C164.135396,20.6358382 165.288572,20.4635401 166.607615,18.9063144 C167.596586,17.8686002 169.987325,15.5340704 172.129471,13.2859076 C172.789616,12.593662 172.376402,12.0745867 171.552052,11.3836497 C170.646223,10.5182335 168.585556,9.39458835 166.854962,8.87594934 C166.196064,8.70277887 165.454855,9.22141788 164.218538,10.691404 C162.569007,12.593662 160.674623,15.3608999 159.438306,18.1281378 C159.108233,18.9063144 159.108233,19.4249535 159.438306,19.6844911" id="Fill-5" fill="#00BCB4"></path>
                <path d="M68.6992251,16.9906754 C68.7343456,17.0364547 68.759808,17.090082 68.8085377,17.1258335 C69.4161224,17.5583392 71.2437056,18.0767358 72.4632651,18.0767358 C73.7688699,18.0767358 74.9862344,17.9045183 76.3796404,16.3480207 C77.4240363,15.3107916 79.9487616,12.9773532 82.210522,10.7298055 C82.5893845,10.3544149 82.6148469,10.0291636 82.4366103,9.70042435 C82.4366103,9.6969364 82.4431954,9.69562842 82.4427564,9.69214047 C80.2301646,5.82880009 74.0643211,0.407218138 66.8373994,0 L66.181085,0 C62.7322515,0 58.8725081,1.22339839 54.4376664,3.4247307 C52.1381514,4.64812909 39.4100417,11.0912443 39.4100417,21.9392042 C39.4100417,24.4662238 40.1493284,27.4030775 41.9549613,30.8278082 C44.2544763,35.3141836 51.2346765,43.3063846 51.2346765,47.1396414 C51.2346765,52.1962966 45.3783324,54.0675817 44.7321151,54.180504 C40.6743799,54.8920458 38.1083881,54.8144389 38.1083881,54.8144389 C34.9756391,54.8144389 31.2331104,53.6041203 28.7079461,51.8762772 C27.3149791,51.0112657 27.0537704,50.5787599 26.7925617,50.5787599 C26.6191542,50.5787599 26.5317919,50.8381761 26.5317919,51.1843552 C26.5317919,51.7031877 26.6191542,52.4810005 26.8803629,53.3447041 C27.2293729,54.3828051 27.7513514,55.0738552 28.8831097,55.9384307 C32.1019039,58.4453946 36.1934426,60.433526 40.7191585,60.433526 L40.9698311,60.433526 L41.1340195,60.433526 C50.2495463,60.433526 58.0520053,55.6214633 58.7083197,47.9549497 L58.7083197,47.1396414 C58.7083197,44.040598 57.0655581,40.6969621 55.0939809,37.1078618 C53.5337525,34.1718801 49.181883,28.2994806 49.181883,24.9562807 C49.181883,18.5946963 57.1120928,12.9263419 59.0832311,12.5182518 C59.6570123,12.436721 61.4104035,11.7177673 63.7380149,12.5771109 C65.7789552,13.3309441 66.6749671,15.69839 68.6992251,16.9906754" id="Fill-7" fill="#00BCB4"></path>
                <path d="M60.140842,109.075145 C68.6255668,109.075145 75.1734104,103.3582 75.1734104,94.6384027 L75.1734104,68.3138781 C75.1734104,68.0295321 74.9519042,67.8034682 74.6737236,67.8034682 L68.7934269,67.8034682 C68.5148137,67.8034682 68.2383636,68.0295321 68.2383636,68.3138781 L68.2383636,94.9223072 C68.2383636,99.7910705 65.0217652,103.13037 60.140842,103.13037 C55.2023792,103.13037 51.9304042,99.67848 51.9304042,94.9223072 L51.9304042,68.3138781 C51.9304042,68.0295321 51.7071675,67.8034682 51.4311501,67.8034682 L44.71934,67.8034682 C44.4407267,67.8034682 44.2196532,68.0295321 44.2196532,68.3138781 L44.2196532,94.6949187 C44.2196532,103.527306 50.4317765,109.075145 60.140842,109.075145" id="Fill-9" fill="#182231"></path>
                <path d="M89.5933213,92.5239077 L95.3082143,76.6399851 L100.965001,92.5239077 L89.5933213,92.5239077 Z M20.1670493,103.70956 C16.5819709,103.70956 14.9567586,101.750348 14.9567586,99.4570405 C14.9567586,97.4446176 16.5819709,95.5992423 19.2718719,95.5992423 C22.6092366,95.5992423 26.5263476,97.7481821 28.4429622,100.847069 L28.4565057,100.930811 C25.8836898,103.078442 22.4004055,103.70956 20.1670493,103.70956 L20.1670493,103.70956 Z M11.2598376,97.8371578 L11.2598376,98.1712532 C8.68352662,95.0954824 7.95567618,91.5722157 7.95567618,88.441053 C7.95567618,80.8344956 12.269042,74.2350219 20.2247181,74.2350219 C27.7304028,74.2350219 32.6597764,79.9403762 32.6597764,88.6076646 C32.6597764,90.5389625 32.3203168,92.491196 31.623922,94.3309012 C28.9379529,91.9804575 25.0898697,89.9030474 19.8730257,89.9030474 L19.8730257,89.9074089 C19.7476397,89.9030474 19.6244381,89.8943242 19.4973046,89.8943242 C14.7335104,89.8943242 11.2598376,93.5868194 11.2598376,97.8371578 L11.2598376,97.8371578 Z M100.460836,68.9780358 C100.406662,68.8109881 100.18123,68.6435043 100.013903,68.6435043 L92.2832224,68.6435043 C92.1154585,68.6435043 91.8904628,68.8109881 91.8345415,68.9780358 L79.0744407,102.579916 C74.3997711,112.670817 66.7197693,114.654454 60.1485818,114.654454 C50.5882269,114.654454 41.2965563,109.923036 36.6590219,100.938226 C39.3615926,97.2479113 40.5040469,93.0782617 40.5040469,88.7773292 C40.5040469,77.4246294 33.1080204,67.8034682 20.2247181,67.8034682 C6.94690867,67.8034682 0,78.2066568 0,88.7193205 C0,100.130029 7.90019178,109.468561 20.2247181,109.468561 C23.8102335,109.468561 26.946631,108.741926 29.9716229,107.231082 C29.9716229,107.231082 30.6549111,106.87954 31.6470769,106.149415 C38.6778675,115.616177 49.0145671,121.198536 60.5365357,120.851792 C69.7268489,120.575269 81.4056592,117.444543 86.0501838,102.584714 L87.8007821,97.8925496 L102.646135,97.8925496 L106.456646,108.405213 C106.510383,108.574442 106.791737,108.741926 106.960811,108.741926 L114.410575,108.741926 C114.747413,108.741926 114.971098,108.574442 114.971098,108.293557 C114.971098,108.238166 114.971098,108.12651 114.913429,108.071118 L100.460836,68.9780358 Z" id="Fill-11" fill="#182231"></path>
                <path d="M131.800138,87.0631509 L125.541304,87.0631509 L125.541304,73.4639301 L131.856928,73.4639301 C136.350404,73.4639301 139.082072,76.1846401 139.082072,80.1819409 C139.082072,84.1766443 136.522548,87.0631509 131.800138,87.0631509 L131.800138,87.0631509 Z M138.113987,90.1730284 C143.745474,88.894706 147.216294,84.4000153 147.216294,79.2373762 C147.216294,72.6877594 142.040455,67.8034682 134.019812,67.8034682 L118.431512,67.8034682 C118.146234,67.8034682 117.919075,68.0251076 117.919075,68.3034555 L117.919075,107.101602 C117.919075,107.37995 118.146234,107.601156 118.431512,107.601156 L125.08743,107.601156 C125.370935,107.601156 125.541304,107.37995 125.541304,107.101602 L125.541304,92.1154032 L131.117775,92.1154032 L141.813741,107.37995 C141.868312,107.435359 142.210824,107.601156 142.32396,107.601156 L149.834383,107.601156 C150.174677,107.601156 150.346821,107.37995 150.346821,107.156579 C150.346821,107.046192 150.288257,106.879962 150.231467,106.824552 L138.113987,90.1730284 Z" id="Fill-13" fill="#182231"></path>
                <g id="Group-17" transform="translate(222.572254, 67.803468)">
                    <mask id="mask-2" fill="white">
                        <use xlink:href="#path-1"></use>
                    </mask>
                    <g id="Clip-16"></g>
                    <path d="M13.7263142,19.1521452 L7.54400828,19.1521452 L7.54400828,5.70865737 L13.7819672,5.70865737 C18.2201862,5.70865737 20.9182623,8.3982108 20.9182623,12.3497361 C20.9182623,16.2986937 18.390651,19.1521452 13.7263142,19.1521452 M31.9305494,38.6872468 L19.962082,22.2264096 C25.524755,20.962726 28.9524554,16.5195067 28.9524554,11.4159882 C28.9524554,4.94137507 23.8402651,0.113016875 15.9182545,0.113016875 L0.521648492,0.113016875 C0.239877675,0.113016875 0.0159509452,0.332118124 0.0159509452,0.607278482 L0.0159509452,38.9611233 C0.0159509452,39.2362837 0.239877675,39.454957 0.521648492,39.454957 L7.09571661,39.454957 C7.37617279,39.454957 7.54400828,39.2362837 7.54400828,38.9611233 L7.54400828,24.146541 L13.0523429,24.146541 L23.6163384,39.2362837 C23.6702386,39.291059 24.0085388,39.454957 24.1207213,39.454957 L31.538349,39.454957 C31.8748964,39.454957 32.044923,39.2362837 32.044923,39.0154707 C32.044923,38.906348 31.9866407,38.7420221 31.9305494,38.6872468" id="Fill-15" fill="#182231" mask="url(#mask-2)"></path>
                </g>
                <path d="M185.722543,67.8034682 L150.910721,67.8034682 C150.629212,67.8034682 150.346821,68.0251052 150.346821,68.30345 L150.346821,73.8534648 C150.346821,74.1296452 150.629212,74.3530137 150.910721,74.3530137 L164.71614,74.3530137 L164.71614,107.101174 C164.71614,107.379519 164.99809,107.601156 165.282247,107.601156 L172.07244,107.601156 C172.354391,107.601156 172.636782,107.379519 172.636782,107.101174 L172.636782,74.3530137 L181.756707,74.3530137 C182.265011,71.9777754 183.660202,69.7440903 185.722543,67.8034682" id="Fill-18" fill="#182231"></path>
                <path d="M225.620913,40.8486274 C220.96828,45.9116648 216.057482,48.9154623 211.231869,50.1171545 C213.214617,43.5948577 222.002247,34.3263306 229.412994,32.867504 C228.292102,35.5280227 226.99997,38.1881086 225.620913,40.8486274 M240.441972,55.4386249 C237.340506,55.0944804 233.72184,55.0092018 228.809303,55.5239035 C236.649891,44.3671267 240.958738,35.4414455 240.958738,33.8116288 C240.958738,32.5242252 239.666171,31.322533 237.168396,30.3784081 C235.702414,29.8637064 234.238606,29.6061391 233.204639,29.5208605 C232.946039,28.9191487 232.773059,28.3191683 232.687873,27.9758896 C232.256293,26.4304857 230.876802,25.915784 227.948751,25.915784 C222.002247,25.915784 214.506749,28.5763028 209.163936,33.5540615 C204.652121,37.8370379 202.507694,42.0611417 201.876622,45.2424227 C197.754663,49.62453 194.230745,51.6313905 191.154488,52.3482501 C192.188454,48.3150491 197.617757,41.535185 199.685691,37.0725608 C201.063009,34.1544747 200.978258,32.6099367 198.995076,30.8078313 C197.789868,29.6918506 196.410811,29.0910045 194.946568,29.0910045 C193.050745,29.0910045 189.258665,30.7221198 184.692956,33.1246384 C185.468323,31.2372544 184.779446,29.948985 183.400389,28.5763028 C181.245966,26.517063 178.144501,25.0578035 176.335602,25.0578035 C175.818402,25.0578035 175.472877,25.2296593 175.127787,25.8300725 C174.032973,27.7624766 170.208296,32.9878463 164.955449,39.8867542 C164.927633,39.9222509 164.90286,39.95212 164.872436,39.9906469 L164.613836,40.3339257 C157.118338,50.2890103 151.689035,52.7776733 147.640093,53.1209521 C148.67406,50.031443 151.516925,45.4831074 156.256047,38.7889547 C159.271023,34.5838979 160.995605,31.5801003 160.995605,29.8637064 C160.995605,26.6023415 155.565432,26.1729184 153.413182,26.1729184 C152.722567,26.1729184 152.379216,26.3452071 152.034125,26.7741974 C150.137868,28.9191487 145.83076,34.8410323 142.210355,40.3339257 C135.748824,50.2890103 135.9205,52.2629716 139.797332,55.7814708 C142.210355,57.7554321 143.417736,58.6134126 145.915511,58.6134126 C149.588505,58.6134126 154.344143,55.2321382 158.478272,51.1327056 C158.43959,51.3777192 158.412644,51.6149409 158.412644,51.8335484 C158.412644,53.8927882 159.618286,55.5239035 161.169019,56.7255957 C162.548076,57.8407106 164.098809,58.6995569 165.564355,58.6995569 C166.166307,58.6995569 166.683508,58.3558453 167.71704,57.3260089 C169.786712,55.2667691 172.630012,51.1469908 177.024044,44.624694 C181.504566,40.7629159 186.243689,36.9872822 189.775431,34.5838979 C187.10598,38.6170989 182.797133,42.5650213 180.64271,47.1133569 C179.265392,50.1171545 180.12551,52.520106 182.193008,54.8369131 C183.830666,56.6394513 185.639999,57.6688548 187.707932,57.6688548 C192.387946,57.6688548 197.753794,53.3902073 201.876188,48.9184925 C202.398169,51.0980747 203.934994,53.1841535 206.666161,54.4079228 C208.560245,55.7814708 210.629917,55.9533267 212.610492,55.2667691 C214.420259,54.6650572 216.832848,53.3780865 219.330623,51.4041253 C217.953305,53.5499423 216.487758,55.5239035 215.023515,57.4978647 C206.750912,58.9571242 198.910324,60.5016623 192.103703,63.5907385 C185.813413,66.4235459 181.678415,71.1424388 181.678415,76.2924862 C181.678415,78.0097459 182.625023,80.4131303 184.26268,81.700101 C185.167564,82.4083029 187.190297,83.3541593 189.381228,83.7840154 L189.427298,83.7926731 C189.573331,83.8208107 189.719364,83.846351 189.866701,83.8697268 C189.920595,83.8779517 189.974922,83.8866094 190.02925,83.8944014 C190.134863,83.9099853 190.240042,83.9234047 190.345655,83.9355255 C190.430841,83.9459148 190.516027,83.9558712 190.601213,83.9645289 C190.623379,83.9662605 190.644676,83.9692907 190.666407,83.9714551 L190.666407,83.9692907 C190.982377,83.9987269 191.297913,84.017341 191.610841,84.017341 C196.263039,84.017341 203.501675,81.9576684 211.429623,75.2626499 C211.994632,74.7825791 212.570072,74.2722062 213.149423,73.7453837 L213.128127,73.7453837 C213.135081,73.7388904 213.142035,73.7332628 213.149423,73.7263367 L199.488807,73.7263367 C199.134155,73.9531691 198.775591,74.1761055 198.412682,74.3938472 L198.412682,74.3951459 C195.886656,75.9137108 193.203732,77.2080406 190.666407,77.9954607 L190.666407,77.9885345 C190.112263,78.1603903 189.564204,78.3106019 189.027446,78.43181 C189.79977,72.3662081 194.638421,68.2996749 202.386,65.1642799 L202.358184,65.159951 C205.016769,64.0837959 208.016967,63.116728 211.318359,62.2180562 C209.643759,64.2526215 207.995236,66.1058075 206.423642,67.732161 L217.920273,67.732161 C218.197997,67.732161 218.420524,67.9533659 218.420524,68.2321446 L218.420524,68.474128 C218.647831,68.2282486 218.875574,67.983235 219.10375,67.732161 C221.420722,65.1794309 223.740737,62.3678348 225.966003,59.3856816 C230.876802,58.6134126 235.444683,58.0982779 239.149405,57.8407106 C240.183371,57.7554321 240.787496,57.4978647 241.130848,57.0684416 C241.562863,56.5537399 241.734104,56.210894 241.734104,56.0390381 C241.734104,55.6957594 241.389014,55.5239035 240.441972,55.4386249" id="Fill-20" fill="#00BCB4"></path>
                <path d="M219.109684,101.661978 L198.085739,101.661978 L198.085739,90.5052406 L209.855459,90.5052406 C210.141939,90.5052406 210.370053,90.2836036 210.370053,90.0048259 L210.370053,85.3422247 C210.370053,85.0656114 210.141939,84.7872666 209.855459,84.7872666 L198.085739,84.7872666 L198.085739,73.7980555 L218.082724,73.7980555 C218.367421,73.7980555 218.595535,73.5768515 218.595535,73.2985066 L218.595535,68.30345 C218.595535,68.0251052 218.367421,67.8034682 218.082724,67.8034682 L196.737993,67.8034682 C193.797011,69.501242 191.566659,71.4600453 190.144509,73.7768442 L190.144509,107.101174 C190.144509,107.379519 190.374851,107.601156 190.659548,107.601156 L219.109684,107.601156 C219.394827,107.601156 219.624277,107.379519 219.624277,107.101174 L219.624277,102.161527 C219.624277,101.883182 219.394827,101.661978 219.109684,101.661978" id="Fill-22" fill="#182231"></path>
            </g>
        </g>
    </g>
</svg>